<svg id="Layer_1" data-name="Layer 1" xmlns="http://www.w3.org/2000/svg" viewBox="0 0 1080 1080"><defs><style>.cls-1,.cls-2,.cls-3{isolation:isolate;font-size:24.97px;font-family:Poppins-Medium, Poppins;font-weight:500;}.cls-1,.cls-3{letter-spacing:0.12em;}.cls-2,.cls-3,.cls-4,.cls-5{fill:#f0c507;}.cls-2{letter-spacing:0.12em;}.cls-5,.cls-6{fill-rule:evenodd;}</style></defs><text class="cls-1" transform="translate(333.93 742.96)">DEDICATED </text><text class="cls-1" transform="translate(519.1 742.96)">TO</text><text class="cls-2" transform="translate(570.71 742.96)"> </text><text class="cls-3" transform="translate(582.2 742.96)">HAPPINESS</text><path class="cls-4" d="M313,657.9l-.5,45.1h23.4v5.4l-22.9.1h-8.1V683.3l-6.6,17.3h-4.7L287,683.3v25.2h-8.1V658h4.7L296,686l12.4-28,4.6-.1Zm60.5,0L373,703h23.4v5.4l-22.9.1h-8.1V683.3l-6.6,17.3H354l-6.6-17.3v25.2h-8.1V657.9H344l12.4,28,12.4-28Z"/><path class="cls-4" d="M324.6,664.2v10.1h7.3v6.3h-7.3v11.2h10.6v6.3H318.1V657.9h17.1v6.3Z"/><path class="cls-4" d="M506,664.2v10.1h7.3v6.3H506v11.2h10.6v6.3H499.5V657.9h17.1v6.3Z"/><path class="cls-4" d="M387.8,698.7a9,9,0,0,1-9.7-8.3V667.7a9.67,9.67,0,1,1,19.3-1.1v22.3a9,9,0,0,1-8.1,9.8Zm0-34.5a3.41,3.41,0,0,0-2.4.7,3.66,3.66,0,0,0-.9,2.8v21.2a3.54,3.54,0,0,0,.9,2.8,4.46,4.46,0,0,0,4.8,0,3.66,3.66,0,0,0,.9-2.8V667.7a3.54,3.54,0,0,0-.9-2.8A3,3,0,0,0,387.8,664.2Z"/><path class="cls-4" d="M426.7,708.5h-2.9a6.63,6.63,0,0,1-6.5-5.2l-3.1-15.1h-3.7v20.3h-8.1V658h12.3a12.41,12.41,0,0,1,8.6,3c2.5,2.2,3.7,5.4,3.7,9.4v5.4c0,4.1-1.2,7.2-3.7,9.5a4.7,4.7,0,0,1-1.2.9l2.8,13.3a4.61,4.61,0,0,0,4.6,3.6l26-.1v5.4Zm-7.9-38.2a5.16,5.16,0,0,0-1.1-3.6,4.63,4.63,0,0,0-3-.9h-4.1v14.4h4.1a4.12,4.12,0,0,0,3-.9,5,5,0,0,0,1.1-3.6Z"/><path class="cls-4" d="M444,692.7h-7.6l-1.2,6.5h-6.8l8.5-41.3h6.6l8.4,41.3h-6.8Zm-1.1-6.5-2.7-14.8-2.7,14.8Z"/><path class="cls-4" d="M472.2,708.5H460V658h11.2a13,13,0,0,1,8.5,2.8,9.4,9.4,0,0,1,2.8,4,13.86,13.86,0,0,1,1,5.3v4.7q0,5.1-3,7.8c2.7,1.9,4.1,4.9,4.1,9.1v4.6a13.86,13.86,0,0,1-1,5.3,10.36,10.36,0,0,1-2.8,4A13.17,13.17,0,0,1,472.2,708.5Zm-4.1-29.2h3a4.12,4.12,0,0,0,3-.9,5.16,5.16,0,0,0,1.1-3.6v-4.7a3.34,3.34,0,0,0-2.5-4.2,3.26,3.26,0,0,0-1.7,0h-3Zm0,21.2h4.1a4.83,4.83,0,0,0,3.1-.8,4.59,4.59,0,0,0,1-3.4v-4.6a5,5,0,0,0-1.1-3.6,4.63,4.63,0,0,0-3-.9h-4.1Z"/><path class="cls-4" d="M520,708.5H488V658h7v45h25Z"/><path d="M550.5,708.4H538.9V657.9h11.6a11.49,11.49,0,0,1,8.1,3c2.3,2.2,3.5,5.3,3.5,9.4v26a18.9,18.9,0,0,1-.8,5.3,10.9,10.9,0,0,1-2.7,4A11.32,11.32,0,0,1,550.5,708.4Zm-3.9-7.9h3.9a4.28,4.28,0,0,0,2.9-.8c.7-.6,1-1.7,1-3.4v-26a5.09,5.09,0,0,0-1-3.6,4.2,4.2,0,0,0-2.9-.9h-3.9Z"/><path d="M574.8,665.9v12.7h8.7v7.9h-8.7v14h12.6v7.9H567.1V657.9h20.3v7.9l-12.6.1Z"/><path d="M602.6,709a11.49,11.49,0,0,1-8.1-3c-2.3-2.3-3.5-5.4-3.5-9.4V690h7.7v6.6c0,1.7.3,2.9,1,3.6a3.76,3.76,0,0,0,2.9.9,3.89,3.89,0,0,0,2.9-.9c.7-.6,1-1.8,1-3.6v-3.2a7.67,7.67,0,0,0-2.6-5.8,29,29,0,0,0-2.9-1.9,25.08,25.08,0,0,1-4.8-3.2,16.64,16.64,0,0,1-3.8-5.3,15.47,15.47,0,0,1-1.3-6.3v-1.2c0-4,1.2-7.2,3.5-9.5a12.68,12.68,0,0,1,16.2,0c2.3,2.3,3.5,5.5,3.5,9.5v4.4h-7.7v-4.4a5.15,5.15,0,0,0-1-3.6,3.76,3.76,0,0,0-2.9-.9,3.89,3.89,0,0,0-2.9.9,4.65,4.65,0,0,0-1,3.6V671a7.32,7.32,0,0,0,2.6,5.7c.9.6,1.8,1.2,2.7,1.7a24.06,24.06,0,0,1,5,3.3,15.25,15.25,0,0,1,5.2,11.7v3.2c0,4-1.2,7.1-3.5,9.4A11.45,11.45,0,0,1,602.6,709Z"/><path d="M639.9,665.9h-7.8v42.5h-7.7V665.9h-7.8V658H640v7.9Z"/><path d="M651.1,708.4h-7.7V657.9h7.7Z"/><path d="M680.3,708.4h-4.5L664,682.8v25.6h-7.6V657.9h4.5l11.8,25.5V657.9h7.7l-.1,50.5Z"/><path d="M701.7,700.4h-8.8l-1.4,8h-7.8l9.8-50.5h7.7l9.8,50.5h-7.8Zm-1.3-7.9-3.1-18.1-3.1,18.1Z"/><path d="M733.2,665.9h-7.8v42.5h-7.7V665.9h-7.8V658h23.3Z"/><path d="M744.3,708.4h-7.7V657.9h7.7Z"/><path d="M760.9,709a11.49,11.49,0,0,1-8.1-3c-2.3-2.3-3.5-5.4-3.5-9.4V669.8a13.08,13.08,0,0,1,3.5-9.5,12.68,12.68,0,0,1,16.2,0c2.3,2.3,3.5,5.5,3.5,9.5v26.8c0,4-1.2,7.1-3.5,9.4A11.06,11.06,0,0,1,760.9,709Zm0-43.7a3.89,3.89,0,0,0-2.9.9,4.65,4.65,0,0,0-1,3.6v26.8a5.53,5.53,0,0,0,1,3.6,3.76,3.76,0,0,0,2.9.9,3.89,3.89,0,0,0,2.9-.9c.7-.6,1-1.8,1-3.6V669.8c0-1.8-.3-3-1-3.6A4,4,0,0,0,760.9,665.3Z"/><path d="M801.1,708.4h-4.5l-11.7-25.6v25.6h-7.7V657.9h4.5l11.8,25.5V657.9h7.7l-.1,50.5Z"/><path class="cls-5" d="M464.4,331.5a49,49,0,0,1,28.8,9.3l-24.6,3.6,29.5.5a49.1,49.1,0,1,1-80,19.5l21.8-4.3H419.8A50.74,50.74,0,0,1,430,345.6l23.8-3.3L434,342A49.38,49.38,0,0,1,464.4,331.5Z"/><path class="cls-6" d="M472.2,463.5c30.8,0,55.7,1.2,55.7,2.8s-24.9,2.8-55.7,2.8-55.7-1.2-55.7-2.8S441.5,463.5,472.2,463.5Z"/><path d="M503,377.1c14.5,1.8,16.1,11.4,17.9,22,.9,5.4,1.8,11.2,5,15.9h.8a8.17,8.17,0,0,1,8.1,6.7,8.21,8.21,0,0,1-4.3,1.2,8,8,0,0,1-4.7-1.5l-.1.1-.9-.9a6.47,6.47,0,0,1-.8-.9c-11.3-13.1-5.1-30.3-20-32.4l-1-10.2Z"/><path class="cls-6" d="M486.2,395.9s5,14.8,15.2,21a14,14,0,0,1-7.3-1c4.1,6.7,9.7,11.3,19.9,20.4-2.4-3.4-10.5-14.4-6.2-38.1,0-1.6,1.2-16.7-18.9-25.3l-.4-.2-.2-.4s-7.4-13.1-19.7-13.3a21.75,21.75,0,0,0-20.5,14l-1.1-3.5c-9.6,2.6-16.4,15.3-17.5,22.1l-2-5.2c-6.2,0-19.4-3.4-18.2-32.7-.1-1.1-2-12.2-21.6-4.2l-.3.1h-.3s-9.9,0-9.1,5.4a8,8,0,0,0,6.2,1.1l.8-.1.5.5c4.4,4.3,9.7,2.2,14.6.7l-3.4,5.5c0,.1-7.5,36.5,32,41.8-.4-1.7-.8-3.5-1.1-5.3,3.3,3.5,6.2,6.6,8.7,9.8a67.27,67.27,0,0,1,10,17.2c-2.9-7.4-5.4-21.5-.2-27.9a82.33,82.33,0,0,0,1,15.7c0-4.8,1-10.7,4-18.7l1,9.4c.1,0,18,6.5,30.6,1.5l3.7-10.4Z"/><path d="M506,388.4c-2.1-5.1-6.9-11.2-17.1-15.6l-.4-.2-.2-.4s-7.4-13.1-19.7-13.3a21.75,21.75,0,0,0-20.5,14l-1.1-3.5c-9.6,2.6-16.4,15.3-17.5,22.1l-2-5.2c-6.2,0-19.4-3.4-18.2-32.7-.1-1.1-2-12.2-21.6-4.2l-.3.1H387s-9.9,0-9.1,5.4a8,8,0,0,0,6.2,1.1l.8-.1.5.5c4.4,4.3,9.7,2.2,14.6.7l-2.7,4.4h0s-9,33.6,30.3,37.7c1.9,2,3.6,3.8,5.2,5.7l8.8,9.5s-2.6-9.6,4.4-15.8l.1-.2h0a17.07,17.07,0,0,1,5-3l3.8,4.9s8.7,3.1,24.7,1.9l6.9-6.3s6.2,13.4,17.7,18.5c-.2.1,4.5-18.9,1.8-26ZM493.8,465l.1.5H482.4a6.54,6.54,0,0,1,5.5-4.2c0-8.5,4-15-2.4-23.5-10.6-9.3-15.6-16.9-17.9-21.5a102.9,102.9,0,0,1-14.6-2.2,10,10,0,0,0-1.9,5.3c4.1,13.4,3.6,31.6,2,46.1H440.5a5.87,5.87,0,0,1,5.9-3.8c.3,0,.5.1.8.1v-.2c1.9-13.5-2.3-28.4-8.9-40.1,3.2,15.8-.3,37.5-1.4,44H424.6a5.87,5.87,0,0,1,5.9-3.8c.3,0,.5.1.8.1,3.8-17.8-3.8-41.8-14.1-54.7h0C389.7,398.2,391.8,370,393,362a14,14,0,0,1-9.2-3,11.45,11.45,0,0,1-8.4-2.2l-.4-.3-.1-.5c-2.2-8.9,9.6-9.6,11.7-9.7,24.2-9.7,25.6,6.9,25.6,7v.2c-1.2,29.9,12.7,28.8,16,28.1,4.7-11.3,17.4-15.5,19.7-16.2,24.1-23.1,41.1-.4,43.4,2.9,22.6,9.9,22,29.4,22,29.5v.2c-2.5,13.3-.2,32.1,8.4,43.2-2,7.3-3.6,16.2-2.4,23.7l.1.5H507.9a5.91,5.91,0,0,1,5-4.2c0-8.5,1.6-17.3-4.9-24.2a90.57,90.57,0,0,1-15.2-13.2c.7,7.1,2.5,14,5.8,19.5-1.8,4.8-5.6,16.8-4.8,21.7Zm-44.3-28.7c.1.2.1.4.2.6v-.4Z"/><path class="cls-6" d="M410.2,340a8.56,8.56,0,0,0-7.3,4.1,10.41,10.41,0,0,1,6,3.8,8.35,8.35,0,0,0,3.1-6.6,4.1,4.1,0,0,0-.1-1.1,8.81,8.81,0,0,0-1.7-.2Z"/><path class="cls-6" d="M468.4,358.9a21.75,21.75,0,0,0-20.5,14l-1.1-3.5c-9.6,2.6-16.4,15.3-17.5,22.1,0,0,5.8-13.5,16.2-17.3l2.7,2.4s2.4-8.1,10.5-9.8c5.5,8.6,21.6,1.7,28.4,6.1,0,0,6.8,4.6,15.4,9.6-2.8-3.5-7.1-6.9-13.6-9.7l-.7-.6s-7.4-13-19.8-13.3Z"/><path class="cls-6" d="M427.2,386.3c-6.2,0-19.4-3.4-18.2-32.7-.1-1.1-2-12.2-21.6-4.2,0,0,4.8,1.8,13.5-.1,0,0,5.6,0,6,4.5s-5.3,30.7,19.5,34l2.9,3.7Z"/><path class="cls-6" d="M385.2,356.4c4.4,4.3,9.7,2.2,14.6.7-12.2,3-14.8-4-14.8-4-2,3.6-7.4,1.8-7.4,1.8a8,8,0,0,0,6.2,1.1l.8-.1Z"/><path class="cls-6" d="M430,394.9c-39.5-5.3-30.1-37.9-30.1-37.9l-2.7,4.4s-9,33.6,30.3,37.7c1.9,2,3.6,3.8,5.2,5.7h0l8.8,9.5s-2.6-9.6,4.3-15.8l.1-.2h0a17.07,17.07,0,0,1,5-3l3.8,4.9s8.7,3.1,24.7,1.9l6.9-6.3-5.9,1.8H458a12.46,12.46,0,0,1-1.9-5.9c-15.1.7-18.7,11-18.7,11l-7.4-7.8Z"/><path class="cls-6" d="M486.2,395.9s6.2,13.4,17.7,18.5a113.37,113.37,0,0,0,2.8-17.3C500.4,409.4,486.2,395.9,486.2,395.9Z"/><path class="cls-4" d="M665.4,322.5H597.7a40,40,0,0,0-39.9,39.9v67.7A40,40,0,0,0,597.7,470h67.7a40,40,0,0,0,39.9-39.9V362.4a40,40,0,0,0-39.9-39.9Zm7.4,66.5a4.23,4.23,0,0,1,3-1.2,4.17,4.17,0,0,1,4,4.1,4,4,0,0,1-1.3,3l-5,4.6,2,11.5,1.1-1.1a4.23,4.23,0,0,1,3-1.2,4.08,4.08,0,0,1,3.9,4.1,4,4,0,0,1-1.3,3l-5.2,4.8,3.6,21a5.83,5.83,0,0,1-1.8,5l-5.3,5.1-18.6-43.9-11.3-14.4c-6.9,6.2-19.7,17.5-29.3,24.1l3.4,18.3a3.92,3.92,0,0,1-1.2,3.4l-4.4,4.3a.78.78,0,0,1-1,.2c-.1,0-.1-.1-.2-.2l-8.7-16.3a.91.91,0,0,1,.2-1.1l.8-1.1a1.23,1.23,0,0,0,.2-1l-.1-.2a63.64,63.64,0,0,1-5.7,4.6c1.5-1.9,3.1-3.8,4.8-5.6l-.2-.1c-.4-.1-.8-.1-1,.2l-1.1.8a.91.91,0,0,1-1.1.1l-16.1-9.1a.78.78,0,0,1-.2-1c0-.1.1-.1.2-.2l4.4-4.3a3.68,3.68,0,0,1,3.4-1.1l18.2,4c6.9-9.5,18.5-22,24.9-28.7L619.4,371l-43.3-19.8,5.3-5.2a5.86,5.86,0,0,1,5-1.7l20.8,4.2,4.9-5a4.23,4.23,0,0,1,3-1.2,4.17,4.17,0,0,1,4,4.1h0a4,4,0,0,1-1.3,3l-1.2,1.1,11.4,2.3,4.8-4.9a4.1,4.1,0,0,1,7,2.9h0a4,4,0,0,1-1.3,3l-1,.9,20.7,4.2,8.2-7.9c15.2-14.8,19.5-8.7,19.5-8.7s5.9,4.5-9.3,19.2l-8.3,8,3.5,20.5Z"/><path class="cls-4" d="M523.8,583.4c-.1,0-.1.1-.2.1C523.7,583.4,523.7,583.4,523.8,583.4Z"/><path class="cls-4" d="M523.5,583.7h0c-.1,0-.1-.1,0,0Z"/><path class="cls-4" d="M525.1,583.9h0c0-.2,0-.2.1-.2l-.1.2Z"/><path class="cls-4" d="M519.6,581.7c.1.1.2.2.2.3-.1-.1-.2-.2-.2-.3-.6-.8,0-1.6.4-2.3a6.89,6.89,0,0,1,.3-.8,6.89,6.89,0,0,1-.3.8C519.6,580.2,519,581,519.6,581.7Z"/><path class="cls-4" d="M520.6,582.5a2.66,2.66,0,0,0,1.2.3Z"/><path class="cls-4" d="M520.6,583.4v-.2h0l.1-.1a.1.1,0,0,0-.1.1c-.1,0-.1.1,0,.2Z"/><path class="cls-4" d="M524.3,583.2a11,11,0,0,0-1.8-.2l-.7-.1.7.1A11,11,0,0,1,524.3,583.2Z"/><path class="cls-4" d="M526,583.6c.1,0,.2.1.3.1l.1.1-.1-.1A.37.37,0,0,0,526,583.6Z"/><path class="cls-4" d="M526.5,584c.1-.1,0-.2-.1-.3C526.5,583.8,526.6,583.9,526.5,584Z"/><path class="cls-4" d="M520.1,577.7h0c.1.1.2.2.2.3C520.3,577.9,520.2,577.8,520.1,577.7Z"/><path class="cls-4" d="M520.6,582.5c-.2-.1-.3-.1-.5-.2s-.2-.1-.3-.2c.1.1.2.2.3.2A.76.76,0,0,1,520.6,582.5Z"/><path class="cls-4" d="M518.4,579.5h0c-.1,0-.1-.1,0,0C518.3,579.4,518.4,579.4,518.4,579.5Z"/><path class="cls-4" d="M519,579.1a.37.37,0,0,0-.3-.1A.37.37,0,0,0,519,579.1Z"/><path class="cls-4" d="M518.3,579.3c0-.1,0-.2.1-.2C518.3,579.2,518.3,579.2,518.3,579.3Z"/><path class="cls-4" d="M518.9,578.4h0c.1-.1.2-.2.3-.2-.1,0-.1,0-.3.2Z"/><path class="cls-4" d="M511.1,580.8c-.1,0-.1-.1-.1-.2S511,580.8,511.1,580.8Z"/><path class="cls-4" d="M519.1,578.6c.1,0,.1.1.2.1h0C519.2,578.7,519.1,578.7,519.1,578.6Z"/><path class="cls-4" d="M525.3,583.6l-.2.1.2-.1a.35.35,0,0,0,.2-.1A.31.31,0,0,0,525.3,583.6Z"/><path class="cls-4" d="M518.7,579.5h.3A.19.19,0,0,1,518.7,579.5Z"/><path class="cls-4" d="M491.8,606.2v-.4C491.9,605.9,491.9,606,491.8,606.2Z"/><path class="cls-4" d="M460.9,580.5h0l-3.1,1.3h0l-.1.1c-.1,0-.2,0-.2-.1-.1.1-.2.2-.3.2l-6.9,1.4-.8.2,6.9,4.2a2.68,2.68,0,0,0,2.6-.1l5.9-4.1a1.05,1.05,0,0,0,.5-.9,1.56,1.56,0,0,0-.6-.8l-2.7-1.5-.5-.3Z"/><path class="cls-4" d="M447.7,574.2a19.26,19.26,0,0,0,8.1,4.3,15.26,15.26,0,0,0,3,.3l-1.1-.6-9.9-5.4h0l-.1,1.4Z"/><polygon class="cls-4" points="440.8 584.8 447.7 583.4 445.5 582 440.8 584.8"/><polygon class="cls-4" points="444.9 581.6 439.7 578.5 439 585 444.9 581.6"/><path class="cls-4" d="M449.9,582.4l-1.3-.3a17.23,17.23,0,0,1-2.1-.7l-.3.2,2.1,1.4.3.2,1-.2,1.8-.4A7.72,7.72,0,0,1,449.9,582.4Z"/><path class="cls-4" d="M445.8,581.1a26,26,0,0,1-5.9-4.1h0v.1l-.1.6,5.7,3.5.3-.1Z"/><path class="cls-4" d="M439.4,576.8h.2c-1.2-1.2-2.4-2.4-3.5-3.7a.35.35,0,0,1-.1-.2h0a1.59,1.59,0,0,0-1.2.9.88.88,0,0,0,.5,1l3.6,2.2h0C438.9,576.9,439.2,576.8,439.4,576.8Z"/><path class="cls-4" d="M446.7,573.3l.1-1.1h0l-1.5-.8a2.92,2.92,0,0,0-.9-.2c.6.6,1.4,1.3,2.3,2.1Z"/><path class="cls-4" d="M491.7,607.3V607C491.8,607.1,491.7,607.2,491.7,607.3Z"/><path class="cls-4" d="M466.6,516.9h0v.7c0,.2-.1.3-.1.5s-.1.3-.2.4v.1c.7-.9.4-1.9.1-3,0-.1-.1-.3-.1-.4v.2h0v.3a6.89,6.89,0,0,1,.3.8Z"/><path class="cls-4" d="M491.4,608.5c0-.1,0-.1.1-.2C491.5,608.4,491.5,608.5,491.4,608.5Z"/><path class="cls-4" d="M509.8,580.3c0,.1,0,.1.1.2A.31.31,0,0,1,509.8,580.3Z"/><path class="cls-4" d="M491.6,607.7v-.3C491.7,607.5,491.7,607.7,491.6,607.7Z"/><path class="cls-4" d="M491,609.2a.1.1,0,0,0,.1-.1h0A.1.1,0,0,1,491,609.2Z"/><path class="cls-4" d="M491.4,608.7l-.1.2Z"/><path class="cls-4" d="M491.1,609.1c.1-.1.1-.1.1-.2C491.2,609,491.2,609.1,491.1,609.1Z"/><path class="cls-4" d="M517.3,587c-.1,0-.2,0-.2-.1a.1.1,0,0,1-.1-.1.1.1,0,0,0,.1.1C517.1,587,517.2,587,517.3,587Z"/><path class="cls-4" d="M511,584.9c.1,0,.1.1,0,0,.1.1.1,0,0,0Z"/><path class="cls-4" d="M510.5,585.1h0c-.1,0-.1-.1-.1-.2C510.4,585,510.4,585.1,510.5,585.1Z"/><path class="cls-4" d="M516.7,581.3a2.65,2.65,0,0,1-.6.5A2.65,2.65,0,0,0,516.7,581.3Z"/><path class="cls-4" d="M518.5,588.9c.1,0,.1-.1.1-.2C518.6,588.8,518.6,588.9,518.5,588.9Z"/><path class="cls-4" d="M518.1,588.5h-.3l-.2.1.2-.1C517.9,588.6,518,588.5,518.1,588.5Z"/><path class="cls-4" d="M516.2,584.4c.1.1.1.2.2.3-.1-.1-.2-.2-.2-.3s-.3-.3-.4-.4C515.9,584.1,516.1,584.2,516.2,584.4Z"/><path class="cls-4" d="M514,583.4l-.3.1-.4.2.4-.2Z"/><path class="cls-4" d="M517.1,581.1c-.1.1-.3.2-.4.3C516.8,581.2,516.9,581.1,517.1,581.1Z"/><path class="cls-4" d="M517.2,580.9Z"/><path class="cls-4" d="M518.8,584.8h0a1.61,1.61,0,0,0-.5,1.1A1.61,1.61,0,0,1,518.8,584.8Z"/><path class="cls-4" d="M511,585.6c-.5.2-1,.3-1.5.5A8.8,8.8,0,0,0,511,585.6Z"/><path class="cls-4" d="M507.7,586.3h0c-.2,0-.2-.1-.3-.2.1.1.2.2.3.2Z"/><path class="cls-4" d="M518.3,586a1.7,1.7,0,0,0,.1.7c.1.7.3,1.3.4,2v0c-.1-.7-.3-1.3-.4-2A1.7,1.7,0,0,1,518.3,586Z"/><path class="cls-4" d="M514.3,583c-.1.1-.2.3-.4.3C514.1,583.3,514.2,583.1,514.3,583Z"/><path class="cls-4" d="M508,586.4h.2c.1,0,.1-.1.2-.1s-.1.1-.2.1Z"/><path class="cls-4" d="M519.6,577.7l-.2.1a6.1,6.1,0,0,0-1.6,1.2,6.1,6.1,0,0,1,1.6-1.2Z"/><path class="cls-4" d="M507.8,579.4h0c.1-.1,0-.1,0,0Z"/><path class="cls-4" d="M510.8,583.9a2.19,2.19,0,0,1-.5.3A2.19,2.19,0,0,0,510.8,583.9Z"/><path class="cls-4" d="M517.8,579.1l-.5.4a1.76,1.76,0,0,1-.5.4,2.18,2.18,0,0,0,.5-.4Z"/><path class="cls-4" d="M509,585.5h0c.1.1.2.2.3.2-.1,0-.1,0-.3-.2Z"/><path class="cls-4" d="M510,584.4l-.2.1c-.5.2-1,.5-1.5.7.5-.2,1-.5,1.5-.7Z"/><path class="cls-4" d="M514,582.3a1,1,0,0,1,.4.5c0,.1,0,.1-.1.2,0-.1.1-.1.1-.2S514.2,582.5,514,582.3Z"/><path class="cls-4" d="M517.7,586.8c0,.1-.1.1-.2.1C517.6,586.9,517.7,586.9,517.7,586.8Z"/><path class="cls-4" d="M513,581.6h0a.35.35,0,0,1,.2-.1C513.1,581.5,513,581.5,513,581.6Z"/><path class="cls-4" d="M513.4,581.5h0c.1,0,.2.1.3.1h0C513.6,581.6,513.5,581.5,513.4,581.5Z"/><path class="cls-4" d="M516.8,584.8h.3A.19.19,0,0,0,516.8,584.8Z"/><path class="cls-4" d="M509.4,579.5h0c.1.1.1.1.1.2s.1,0-.1-.2Z"/><path class="cls-4" d="M508.6,579.7c0,.1,0,.1.1.2C508.6,579.9,508.6,579.8,508.6,579.7Z"/><path class="cls-4" d="M510.1,580.1c-.1,0-.3.1-.3.2S509.9,580.1,510.1,580.1Z"/><path class="cls-4" d="M508.5,579.2h.3a2.35,2.35,0,0,1,.8.2c-.2-.1-.5-.1-.8-.2Z"/><path class="cls-4" d="M511.6,580.2a13.06,13.06,0,0,0-2.1-.8A18,18,0,0,1,511.6,580.2Z"/><path class="cls-4" d="M514.6,580.8a8.6,8.6,0,0,1-1.6-.1A9.15,9.15,0,0,0,514.6,580.8Z"/><path class="cls-4" d="M512.5,581.1h-.2l-.1.1a.1.1,0,0,1,.1-.1Z"/><path class="cls-4" d="M511.8,584.6c.1,0,.1.1.2.1s-.1-.1-.2-.1h0c-.1-.1-.1-.2,0-.2C511.7,584.4,511.7,584.5,511.8,584.6Z"/><path class="cls-4" d="M515.1,583.3c-.1,0-.2-.1-.3-.1h0A.37.37,0,0,1,515.1,583.3Z"/><path class="cls-4" d="M513.1,581.8h0c.1.1.2.2.3.2C513.3,581.9,513.2,581.8,513.1,581.8Z"/><path class="cls-4" d="M513.8,582.2l-.2-.1-.2-.1.2.1Z"/><path class="cls-4" d="M510.2,580.5a.37.37,0,0,1-.3-.1h0A.37.37,0,0,0,510.2,580.5Z"/><path class="cls-4" d="M539.8,580.8c-.3-.2-3.5-2.1-3.5-2.1a23.12,23.12,0,0,1-2.1-1.8c-.3-.3-2.2-1.9-2.3-2l3.7,1.9a7.34,7.34,0,0,0,1.4,1l2.8,1.1.9.4V573l-.1-.1-7-6.1-8.7-4.2-.1-.1s-2.4-1.8-4.8-3.7c-4.8-3.8-5.2-4.4-5.3-4.8-.4-.6-2.9-3.4-5.2-5.8l7.2,12.9-6-3.7,6,7.5,7.2,5.7-8.2-2.2L501.6,559a11.08,11.08,0,0,0-2.9-1.4l-3.5-1a24.83,24.83,0,0,1-10.6-6.5l-7.8-8.1-9.5-11.9-5.4,5.2a1.38,1.38,0,0,0-.2,1.8l2,2.7-2.7-.5,1.8,4.8s6.9,3.5,7.6,3.7c-.3,0-2.2-.1-4-.1a1.84,1.84,0,0,0-1.4,3l5.5,6.6,8.7,3.2c8.4,2.8,20.6,4.2,20.6,4.2l9.3,2.8L491,565.6l-6.5-.2,4.6,4.3-9.5-5.2a12.28,12.28,0,0,0-7.5-1.5l-5.5.6-8-4.5-4.1-2.4,2.7.5-3.2-4.4-9-6.7-.3-.2-.4-.3-.7-.5,2.4,6.8,2,1.8-1.9-.6,1.5,1.1,3,2.4-3.1-1.3h-1.7l-2.5.4,2.8,5.7-.8,4.3,6.7,2,5,6.5,7.3,2.7-8.5-.7-7.5-4-5.8.5-7.3-1.8-8.7-3.8-5.3-1.4s2.5,2.8,2.6,2.8a25.32,25.32,0,0,1,2.3,1.2,1,1,0,0,0,.4.1h0a7.25,7.25,0,0,1,2.5,1.7l-4.5-1-4.4-.9,2.2,3.7s2,3.1,2.6,3.2l6.7.9,4.6,3.5-4.9-.6-4.8-.9H411.4s4.6,1.1,5.6,1.5a43.16,43.16,0,0,0,5,1h1.8l.9,1c.7.6,3.6.6,4.5,1.4H394.6v7.1A38.41,38.41,0,0,0,433,629.8h69.4a38.41,38.41,0,0,0,38.4-38.4v-9.5A6,6,0,0,0,539.8,580.8Zm-69.3-33.2Zm-20.1,36.3-3.1-1.7-5.1-.6,6.1-1.1,7.3,3.3-5.2.1Zm6.7-15.4,17.1,4.3-8.8.3Zm17,15.4,3.9-1-.4-1.3-5.8-3.2s5.8,1,6.1,1.3,8.8,4.3,8.8,4.3l-12.6-.1Zm36,0-5.5-4.2s-1.8-1.9-2.4-2.5-6.6-3.6-6.6-3.6l-5.9-3.2,9,2.7,7.5,3.5,7,3.4-3-3.6,10.4,4.1h0a.58.58,0,0,0,.4.1h0c1.5.5,6.6,2.3,9,3.3Z"/><path class="cls-4" d="M502.4,481.5H432.9a38.41,38.41,0,0,0-38.4,38.4V577l7-6.6,13.3-2.7,6.2-5.5,9-9.6s2.6-2.5,2.7-2.7l2-2.2,1.3-1.4.3-.5L440,539l5.1,3.9,5.8-3.2.3-.4a40.46,40.46,0,0,1,15.9-11.8l.8-.3,10.5,13.1,10.9,8.6,9.2-5.8,12.1,3,.3.3c4.8,4.9,5.7,6.3,6,6.8.7.8,5.2,4.4,9.3,7.5L535,565l5.7,5V520.2A38.33,38.33,0,0,0,502.4,481.5Zm-7.6,43.7a14.3,14.3,0,1,1,14.3-14.3A14.3,14.3,0,0,1,494.8,525.2Z"/><path d="M686.3,561.6c2,4.3,1.8,9,2,13.6a7,7,0,0,1,.4,5.5c-1.1,3.6-.7,7.2-.7,10.8-.1,9.7,0,19.5,0,29.2-.2.9-.8,1.1-1.6,1.1-2.2-.6-2.3-2.5-2.4-4.3-.1-4.9,0-9.8,0-14.7a1.14,1.14,0,0,1,.3-.8c.7-2.4-.9-4.8-.4-7.2.1-.2.3-.5.4-.7a2,2,0,0,0,.3-2.2c-.1-.2-.3-.4-.4-.6-.2-.4,0-1-.4-1.4L683,576a16.43,16.43,0,0,0,.4-7.3c-.3-2.7-1.3-5.5.7-8.1a1.73,1.73,0,0,1,1-.1A1.68,1.68,0,0,1,686.3,561.6Z"/><path d="M687.7,621.4a6.28,6.28,0,0,1-.6-3.3c0-11.2-.2-22.3.1-33.5.1-3.1,1.5-6.1,1.2-9.4l.6.3c.8,2.7-.2,5.4.6,8.1,1.2,2.2,1,4.6,1.1,6.9,0,1.3-.1,2.7.8,3.8-1,3.5-.7,7.2-.8,10.8-.2,5.3,0,10.6-.1,15.9-.2.7-.7.8-1.3.9A1.75,1.75,0,0,1,687.7,621.4Z"/><path d="M587.4,579.8l.2-.6a5.85,5.85,0,0,0,0-3.7c.6-3-.7-6.2.5-9.2-.6-1.7.2-3.5-.5-5.3v-1.9c.2-.3.4-.3.7,0l.6.6c.7,1.2-.1,2.6.5,3.8l.2,2.9c.5,1.3,0,2.7.4,4l.1.7a6.16,6.16,0,0,0,0,3.8l-.1,1.9a3.73,3.73,0,0,0,.1,3.1c-.4,5.2-.8,10.5-1.2,15.7-1.8,3.9-1.7,8.1-1.6,12.2,0,1.2.4,2.5-.3,3.7a2.44,2.44,0,0,1-2.6,0,29.92,29.92,0,0,1-.5-13.3c2.1-4.8,2.4-10,3.4-15.1l.3-.9a1.19,1.19,0,0,1,.4,1.1c0,.3.1.7-.2.8C588.2,582.7,587.7,581.2,587.4,579.8Z"/><path d="M667.6,505c.1-1.8-1-3.8,1-5.2.9-.7.4-1.5.1-2.4-.4-1.5,1.4-1.7,1.8-2.7a2.4,2.4,0,0,1,.9,1.7c-.4,1.8,1.2,3.1,1.2,4.9l.5,2.4c-1.7,2.4-1.3,7.2.7,9.2a.61.61,0,0,1,0,.8c-1.2,0-2.5,0-1.2,1.8a8.22,8.22,0,0,1,1.8,5.2c-.3.8-.7,1.6-1.8,1.2-1-2.3-2.1-4.6-3.1-6.9-1.8.4-3-.5-2.8-2.2C667,510.2,666.4,507.5,667.6,505Z"/><path d="M653.6,533.3a11.47,11.47,0,0,1-3-8.8c.1-1.2-1.3-2.4.1-3.7.2-.2-2.3,0-1.3-1.8a4.47,4.47,0,0,1,3.3-2c.5-1.9-1.6-.2-1.8-1.2,0-1.5,1.3-1.3,2.1-1.8,2.2,0,3.3,1.6,4.5,3.1-1.3,2-1,4.4-1.9,6.5-1,1.9-.2,3.9-.4,5.8C654.6,530.6,655.8,532.6,653.6,533.3Z"/><path d="M666.8,526.3v3.2c-.6,1.6-.1,3.1-.2,4.7.2.4.7-.1.3,0-.2.1-.2,0-.3-.2a2.67,2.67,0,0,1,.3-2.3c1,4.8,1.4,9.7,3.3,14.5-4.3-1.3-4.2-5.3-5.6-8.1-1.3-2.5-2.7-5.4-.8-8.6.9-1.5-2,.8-1.6-1.3a22.26,22.26,0,0,1,1.3-4.4c0-.5-.4-.9-.6-1.3a3.89,3.89,0,0,1,1.3-3.2c1.3.5,1.7,1.7,2.2,2.8C666.7,523.6,666.2,525,666.8,526.3Z"/><path d="M685.2,561c-2.6,2.2-1.2,4.9-.9,7.4a13.61,13.61,0,0,1-1.1,7.7c.5-2.7-.1-5.3-.7-7.9-.2-.9-1.1-1.9,0-2.8s.3-1.9.5-2.5a1.4,1.4,0,0,1-.3,1.5c-1.8-4.1-1.2-8.5-1.8-12.7-.2-2.1-1.5-4.6,1.8-5.7l.7,1.7c.8,1.4-.3,3.1.7,4.5a9,9,0,0,1,1.8,4.4C684.8,557.9,686.5,559.7,685.2,561Z"/><path d="M691.4,528.9c-.1,2.2-1.2,3.3-3.5,3.8,1.2-4.8-1.1-8.3-3.2-12,.4-1.5-.7-4,2.4-3.9,2.6.5,2.6.4,2,3-.1.3,0,.8.2.8,2.4,1,1.4,3.4,2.1,5.1A4.41,4.41,0,0,0,691.4,528.9Z"/><path d="M690.2,621.4a5.25,5.25,0,0,1-.6-3c0-7.4-.2-14.8.6-22.2.1-.9.1-1.7,1.2-1.9v.6c-.5,1-.1,2.2-.2,3.2a2.16,2.16,0,0,0,1.1,2.5,2.22,2.22,0,0,1,.8,1.3c-.1,6.5.3,13-.2,19.4A1.91,1.91,0,0,1,690.2,621.4Z"/><path d="M666.3,522c-1.7-.1-1.2-1.8-1.9-2.6l.2-.6a1.26,1.26,0,0,0-.1-1.2c-.3-2,1.7-3.1,1.8-4.9-.4-.6-1.1-.4-1.7-.7a5.9,5.9,0,0,1-.8-7c1-1.5,2-.3,3,0q.45.9.9,0c0,2.1.4,4.3-.1,6.2-.6,2.3,0,3.3,2,3.9-1.1,2.2-1.1,4.8-2.7,6.9Q666.45,522.45,666.3,522Z"/><path d="M699,597.4a3.81,3.81,0,0,1,2.6-1.1v24.8c0,1.3-.5,1.6-1.7,1.6-2-.1-4-.1-6-.2a.91.91,0,0,1,0-1.2,2,2,0,0,1,.8-.4,16.35,16.35,0,0,1,2.2-.2,8.6,8.6,0,0,0,1.6-.1,1.1,1.1,0,0,0,.6-1c-.4-6.8.6-13.6-.5-20.3A2.47,2.47,0,0,1,699,597.4Z"/><path d="M678.8,603.1a1.3,1.3,0,0,1,1.3-.5c1.3.2,2.8-.5,4,.8-.2,5.9-.2,11.8.1,17.7a1.09,1.09,0,0,1-.8.8,2.87,2.87,0,0,1-2.2-.3c-1.4-1.2-1.3-2.8-1.3-4.3-.1-3.5.2-7.1-.3-10.7a3.4,3.4,0,0,0,.2-1.4C679.5,604.5,678.8,603.9,678.8,603.1Z"/><path d="M697.1,621.4h-2.5c-1.5-1-1-2.6-1.1-4-.2-5.8.2-11.6-.2-17.4l2.5-1.1a1.44,1.44,0,0,1,1.5,1.6C697.3,607.5,697.8,614.4,697.1,621.4Z"/><path d="M632.2,611.5h3.6c.6.3.5.7,0,1.1H566.2a18.75,18.75,0,0,1-4.1-.1c-1.3-.3-.5-.7.1-.9a37.7,37.7,0,0,1,5.8-.4h14.4c2.5,1.1,4.9,0,7.4-.1,2.9.1,5.8,0,8.7,0h17.2C621.4,610.8,626.8,611.5,632.2,611.5Z"/><path d="M586.9,545.2c2.5-5,8-6.5,11.5-2.7-4,.3-8,.3-9.6,4.9.2.9,1.8,1,1.3,2.3h0c-.7.6-.7,1.9-1.9,2.1a4.2,4.2,0,0,0-2.6,1.2c.1.2,0,.3-.2.4-1,.1-1.4-.3-1.2-1.3h0A49.19,49.19,0,0,1,586.9,545.2Z"/><path d="M693.3,600a3.31,3.31,0,0,1,1,2.6c0,6.2-.5,12.5.2,18.8h-.6a.82.82,0,0,1-1.2,0h0c-1.3-2.9-.5-5.9-.6-8.9-.1-3.4,0-6.8.2-10.2,0-.8-.5-1-.8-1.5.2-.6,1-.3,1.3-.7C692.9,599.9,693.1,599.9,693.3,600Z"/><path d="M591.9,598.7c.7.2,1.6.2,1.9,1.2.5.6,1.6.5,1.5,1.7-.3,3.3.4,6.6-.3,9.9a10.23,10.23,0,0,1-3.9,0C588.7,608.2,589.2,601.1,591.9,598.7Z"/><path d="M698.9,520.9l-4.1-6.5c0-1.5-.9-2.9-.4-4.5.8-2.8,1.2-3,3.5-1.2a5.33,5.33,0,0,1,2.3,4.5c-.5,1.7-.2,3.4-.3,5.1C699.9,519.3,700.1,520.4,698.9,520.9Z"/><path d="M697.1,621.4c-1.1-2.2-.6-4.5-.6-6.7,0-4.8,0-9.5.2-14.3,0-.8-.5-1-.8-1.5l1.9-.8c1.4.7,1.3,2.1,1.3,3.3,0,6.7.2,13.3-.1,20Z"/><path d="M605.8,596.2c.3,2.7-.6,5.5.8,8.1.6,1.1,1.9-.1,2.5.9-2.2,2-1.3,4.2-.4,6.5h-3.4a3.55,3.55,0,0,1-1-.2c-2.8-1.5-2.4-4.6-1.6-6.3,1-2,.5-4,1.2-5.9.2-1.5-.3-3,.6-4.4C605,595.2,605.1,596,605.8,596.2Z"/><path d="M598.4,548.5c3.5,2.1,4.1,4.5,2.5,11.8-1.3-4.5-2.8-8-6.5-9.9-.3-1.1-1.8-1.3-2-2.5.3-.6.8-.7,1.4-.8s1.6-.5,2,.6C596.5,548.5,597.7,547.6,598.4,548.5Z"/><path d="M576.8,601.4l3.1-1.9c1.8.3,2.3,1.5,2.3,3.1a61.2,61.2,0,0,0,.4,8.6.91.91,0,0,1-.8.4c-1.1-.1-2.3.2-3.4-.3a3.28,3.28,0,0,1-1.2-3.1C577.2,606,577,603.7,576.8,601.4Z"/><path d="M677,527.4c1.6,3.7,3.2,7.4,3.6,11.5-.9,1.4-.1,3.3-1.3,4.6-.3-.1-.8-.1-.9-.3-1.4-5.4-2.7-10.9-4-16.3C675.6,526,676.1,528.1,677,527.4Z"/><path d="M666.8,505c-.6,1.4-2-1.4-2.5.5-.6,2.2-1.4,4.5.7,6.4-.6.5-1.5.3-1.9,1.2-.7.4-1.8-.1-2.3.8-1.6-1.2-1.6-1.2-1.5-4.5,1.4-.2,2.2-1,1.8-2.5a4,4,0,0,1-.6-3c.2-1,.4-2.2,2-1.5C664.9,501.7,665.9,503.3,666.8,505Z"/><path d="M608.9,572.2c.2-1.9-1.5-2.7-2.5-3.8-.2-.1-.3-.2-.2-.3s.1-.1.2-.2a2.51,2.51,0,0,1,1.9-.1c.3.9,1.5,1,1.8,1.9.1,3.9,2.4,1.3,3.9,1.3,1,1.1,2.7.1,3.7,1.2-1.1,1.4-2.9-.3-4.2,1.1.6,1.4,3.2,1.2,3.1,3.2a1.34,1.34,0,0,1-2,0h0c-1.1-1.2-2.2-1.7-3.7-.7l-.1.1c-1.2.5-2.5-1.5-3.7,0-1,.3-1.3-.2-1.3-1.1l1.3-.8a14.63,14.63,0,0,0,.9-1.3C608.3,572.2,608.6,572.5,608.9,572.2Z"/><path d="M673.2,611.3c1-.4,1.3-1.8,2.5-1.9,1.8,4.1,1.6,8.2.3,12.4a3.58,3.58,0,0,1-2.5,0c-2.8-1.9-1.9-4.7-1.6-7.3Z"/><path d="M699,621.4c-.8-1.3-.6-2.8-.6-4.3V601.7a7.81,7.81,0,0,0-.6-3.7l1.2-.7c1.9,6.7.8,13.6.9,20.4C699.9,619,701.2,620.7,699,621.4Z"/><path d="M582.5,611.3c-1.7-2.7-.9-5.7-.9-8.5a3.7,3.7,0,0,0-1.6-3.3c1.3-.4,2.3-1.5,3.8-1.3.8,4.4.6,8.8.6,13.2A1.5,1.5,0,0,1,582.5,611.3Z"/><path d="M595.1,611.3c-1.2-2.9-.5-6-.5-8.9a3.67,3.67,0,0,0-.7-2.5,4.88,4.88,0,0,1,4.5,1.9,56,56,0,0,1,.1,8.2C598.5,612.8,596.5,611.6,595.1,611.3Z"/><path d="M586.9,611.3c-.7-5.4-2.1-10.9,1.9-15.7l.2,2.4c1.5,4,.7,8.1.5,12.2C589.3,611.7,588.2,612,586.9,611.3Z"/><path d="M586.9,545.2c-.5,2.4-.6,5-2.6,6.9-.7-1.5-1.2-1.6-3.5-.5-1.5.3-1.3-1.4-1.3-1.7-.1-1.1,1.3-.2,1.8-1,.8-.6,2.4-1.1.2-2l-2.7-1.2c0-1.7,2.2-1.1,2.5-2.5,1.2,1.4,3.1,1.7,4.4,3C586.7,547.4,586,545.2,586.9,545.2Z"/><path d="M692.7,622.5l-37.1.1H643.3c1.7-1.9,3.6-1.1,5.3-1.2,4,0,7.9,0,11.9-.3,1.7.1,3.4-.1,5.2,0,2.5.2,5-.2,7.5.4,1.9.8,3.8-.2,5.6-.3,1.5-.1,2.9.8,4.5.5,1.8-.5,3.7.2,5.6,0C690.1,622.1,691.7,620.9,692.7,622.5Z"/><path d="M588.1,551.5c.8-.4.5-2.1,2-1.8a7.89,7.89,0,0,0,3.1,2.9,5.15,5.15,0,0,1,2.6,5,9.91,9.91,0,0,1,0,4.2c-1.6.8-1.8.8-1.8-.4.1-4.5-2.3-7.2-5.9-9.3-.2-.2-.3-.3-.2-.4Z"/><path d="M581.2,549c-1.3.7-1.7,1.5-.4,2.7-3,2.8-2.9,6.5-2.7,10.3-2.8-1.8-3.5-5.3-1.9-9.7.2.1.4.3.5.3s.2-.3,0-.4C577.2,549.6,579.1,549.2,581.2,549Z"/><path d="M687.1,516.8c-.9.7-2.3,1-1.6,2.7.3.8-.1,1.1-.8,1.2l-3.9-3.9a4.17,4.17,0,0,1-.1-2.7c.4-1.8,1.3-2.2,2.8-1,1.1,0,2.3-.2,3.2.7.6.6,2.7,1.5-.2,1.9Z"/><path d="M683.4,513.1c-1,0-2.4-.5-2.1,1.4a3.22,3.22,0,0,1-.6,2.3l-4.5-2.3c.1-1.9.3-3.9-2.3-4.3q-1-2.1,1.2-1.5h0c1.3.6,3,.2,3.8,1.8a11.42,11.42,0,0,1,4.4,1.1C684.5,512,683.8,512.6,683.4,513.1Z"/><path d="M576.8,601.4c1.3.7,1.2,2,1.2,3.2.1,2.2-.5,4.5.6,6.7a1.14,1.14,0,0,1-.8.3H575a1.34,1.34,0,0,1-.7-.6c-.2-2.6-1.3-5.1-.2-7.7Z"/><path d="M586.9,611.3c1.9.2,1.9-1,1.9-2.4,0-3.6.1-7.3.2-10.9l3,.7c-2.1,4.1-1.5,8.3-.6,12.6-.3.4-.9.2-1.2.6h-7.6c-.2-.1-.3-.3-.2-.4s.1-.2.2-.2Z"/><path d="M691.8,511.4l-2.9-2c-1-3.5-.7-4.4,1.9-5.6,2-.1,4.2-1.9,5.9.8-.4.8-1.8,0-2.2,1-1.8,1-1.3,2.7-1.1,4.2C693.5,511.1,693.3,511.9,691.8,511.4Z"/><path d="M659.3,509.4c1.1,1.3.1,3.3,1.5,4.5l-3.3,3.1c-2.3.2-2.4-2.9-4.5-3.1a.44.44,0,0,1,.5-.1c.6-.5,1.7-.7,1.3-1.9Z"/><path d="M590,612a1.22,1.22,0,0,1,1.2-.6H595c2.1.4,2.8-.2,2.6-2.6s-.6-4.7.7-6.9l1.1.8c1,.9,1.9,1.9,1.5,3.5-.4,1.8.2,3.5.5,5.2-.7.8-1.9,0-2.7.7Z"/><path d="M601.4,611.3c-1.9-1.3-1.3-3.3-1.2-5a6.65,6.65,0,0,0-.7-3.7l3.5,1.2c.3-1.6.6-3.1.8-4.5.7,3.1-1,6.1-.6,9.2a4.34,4.34,0,0,0,1.3,3A4.15,4.15,0,0,1,601.4,611.3Z"/><path d="M610.8,604.5H612c.9,1,2.9-.8,3.5,1.3-.6,2.1.4,3.8,1,5.7a2.92,2.92,0,0,1-.9.2c-1,0-2,0-3-.1-3.5-.8-4-2.1-2.6-6.3A5.93,5.93,0,0,1,610.8,604.5Z"/><path d="M679.4,543.6c.3-1.6-1.2-3.7,1.3-4.6,2,1.9,1.5,4.5,1.9,6.9-2,1.4-1.3,3.7-1.8,5.7C678.9,549.1,679.1,546.4,679.4,543.6Z"/><path d="M691.8,511.4c2.6-.4.2-2,.6-3.1.5-1.3-.5-3.2,2.1-2.7.1.1.1.2.2.2,2.8.6,2.8.6,3.2,2.9-.9.5-1.7-1.6-2.3-.3s-1.2,2.8-.5,4.3c.4.8,1,1.4-.4,1.7Z"/><path d="M574.3,603.2l.6,8.1c-1,.6-2.1.2-3.2.3-2.5-.9-1.7-2.8-1.2-4.5.2-.7,1-1.2,1.2-2Z"/><path d="M675.1,508.7c-.8.1-1.6.2-.7,1.3a5.33,5.33,0,0,1,.6,2.4c.2,1-.3,1.4-1.3.8-1.8.2-2.7-.5-2.5-2.4.1-1.6-.1-3.3.1-5,.1-.9-.3-2.6,1.7-2.1a.76.76,0,0,1,.2.5c1.5.9,1.4,2.5,1.9,3.9A.64.64,0,0,0,675.1,508.7Z"/><path d="M616.5,611.3c-2.6-1.3-2.1-3.5-1.4-5.7.5.1,1-.4,1.5,0,1.3.5,3,.3,3.8,1.8,0,1.2-.6,2.5,1.1,3.2.6.3.2.8-.5,1C619.4,611.5,617.9,612,616.5,611.3Z"/><path d="M690.8,503.8c-2.4,1.3-1.3,3.7-1.9,5.6l-3.1-1.3c-.3-1.7.3-3.4.5-5.1.1-.9.6-1.1,1.4-1.1l2.5-.6c.5.4,1.2.5,1.3,1.2S690.1,502.9,690.8,503.8Z"/><path d="M662.5,502.4c-2.9.8-.2,3.2-1.4,4.5l-4.4-1.4c-.2-1.2-.1-2.4-.3-3.6-.1-.9-.1-2,1.5-1.3S661.9,499.6,662.5,502.4Z"/><path d="M621.5,611.3a2.18,2.18,0,0,0-.5-.4c-.8-.6-2.3.4-2.5-1.1-.2-1.3,1.3-1.4,1.8-2.3,3,.1,5.3,1.7,7.7,3.2C626,612.5,623.7,611.5,621.5,611.3Z"/><path d="M616.5,605.7c-.5.2-1,.8-1.5,0-.5-1.6-2.5.4-3-1.2,2.8.1,5.5-1,8.3-.6,1.6.5,3.3.1,5,.2h3.5c1.3-.1,2.7.3,3.9-.2,1-.3,2.3.3,3.1-.8a2.58,2.58,0,0,1,1,1.9,1.14,1.14,0,0,1-.3.8.83.83,0,0,1-1.2-.2c-3.6-1.3-7.3-.4-11-.5C621.8,605,619.1,604.4,616.5,605.7Z"/><path d="M571.8,605.1c0,2.1-1.8,4-.7,6.2-.9.7-2.2-.1-3.1.6-1.9-.2-3.8.5-5.7-.4.5-.5.9-1,1.7-.9,1.6,0,2.9-.6,3.3-2.3Z"/><path d="M658,500.6c-1.3.2-.8.9-.7,1.8.2,1.1.9,2.3-.5,3.2H656c-1.6-.6-3.5.3-5.1-.6a6.91,6.91,0,0,0,2.2-4.2l.4-.2c.6-.5,1.2,1.3,1.9-.2C656.3,498.7,656.7,498.7,658,500.6Z"/><path d="M676.9,501.7c1.3-1.2,2.6-.6,3.8.2a4.68,4.68,0,0,1,1.8,4.5c-.9.5-1.9,0-2.8.1-1.1-.2-2.3-.3-3.1-1.3C675.5,504,676,502.8,676.9,501.7Z"/><path d="M651.1,504.3c1.4,1.5,3.5-.2,5,1.1-2.7.1-5.5-.2-8.2.7-.9-.9-1.9-1.6-1.9-3,1.7-1.1,3.3-2.3,5.4-2.4a.65.65,0,0,1,.9-.2c.2.3.3.8.2.8C650.7,501.7,652,503.5,651.1,504.3Z"/><path d="M646.1,503.1a4.63,4.63,0,0,1,1.9,3,20.31,20.31,0,0,0-5.3,3.5C642.1,506.6,643.5,504.6,646.1,503.1Z"/><path d="M671.9,614.5a5.66,5.66,0,0,1,.6,3.6,3.56,3.56,0,0,0,1.3,3.3,1.22,1.22,0,0,1-.9.3,19.27,19.27,0,0,1-2.4-.1c-2.8-1.2-1.9-3.3-1.2-5.4Z"/><path d="M680.7,489.4l1.3-.7c1.2.5,2.5-.2,3.8,0a2.72,2.72,0,0,1,2,1.1c0,.8.2,1.7-1.1,1.6a3.54,3.54,0,0,0-2.8.9c-.8.1-1.8-.1-2.4.8C679.5,491.5,679.5,491.3,680.7,489.4Z"/><path d="M672.6,501.3a4.18,4.18,0,0,1-1.9-4.6c.2-.2.3-.4.5-.6.3-1.1.8-1.8,2.1-1.6a3,3,0,0,1,2,1.6c.2.7-.5,1-.8,1.5C674.6,499.2,673.4,500.2,672.6,501.3Z"/><path d="M677,527.4c-.1.6-.1,1.4-.8,1.5s-.5-.7-.6-1.1a1.1,1.1,0,0,0-1.2-.8c-.1-1.9-2.4-2.9-1.9-5l1.8-1.2C676.3,522.5,676.1,525.2,677,527.4Z"/><path d="M653.6,533.3c1.3-1-.7-3,1.3-3.8a.38.38,0,0,1,.7,0l3,8.7A13.82,13.82,0,0,1,653.6,533.3Z"/><path d="M676.9,501.7c0,1.1-.9,2.2,0,3.3,0,.6.6.9.9,1.3a.91.91,0,0,1-.2,1.1l-2.5.8c-2.3-.5-.8-2.8-1.9-3.9C674.8,503.9,675,501.5,676.9,501.7Z"/><path d="M682.6,506.2c-1.7-1-.9-3.1-1.9-4.4l3.1-.7c.6.5,1.5-.1,2,.6a1.31,1.31,0,0,1-.3,1.2,2.42,2.42,0,0,0-.5,2.9c.5,1.2-.4,1.4-1.2,1.6a5,5,0,0,1-2.7-.5C681.4,506.2,682.4,506.9,682.6,506.2Z"/><path d="M669.3,616.2c.8,1.6-.9,3.9,1.3,5.2-1.1.6-2.2.2-3.4.3a3.33,3.33,0,0,1-2.3-3.3Z"/><path d="M584.3,552.1l1.2,1.3-2.4,6.3a.85.85,0,0,1-1.3,0C580.7,556.6,582.7,554.4,584.3,552.1Z"/><path d="M581.2,543.4c.2,1.8-1.7,1.6-2.5,2.5a25.73,25.73,0,0,0-5.5.6C575.2,543.4,578,542.8,581.2,543.4Z"/><path d="M656.1,605c-3.6,0-7.3.1-10.9-.2-2.2-.1-3.8,0-4.2,2.6a9.29,9.29,0,0,0-1-.5c-.7-.2-1.5,0-2.2-.2a2.51,2.51,0,0,1-.7-.4,1.1,1.1,0,0,1,0-.8,1.61,1.61,0,0,1,.7-.4c.2-.1.5-.1.8-.2l.7-.2c.5-.2.7-.7,1.2-.9,1.3.9,2.6.3,3.9,0,2.1.6,4.1-.3,6.1-.2a23.58,23.58,0,0,1,4.6.1,1.74,1.74,0,0,1,1.2.8A1.69,1.69,0,0,0,656.1,605Z"/><path d="M595.9,523.3a11.05,11.05,0,0,1-5.1.6,9.35,9.35,0,0,1-4.7,0l-1.8-.2c1.1-1,2.1-.6,3-.6,1.3-.8,2.6,0,3.9-.2-.8-.4-2.1.8-2.5-.9a21.72,21.72,0,0,1,5.7-.7c.5.6,1.5-.1,2,.7a.67.67,0,0,1-.4.7c-.3.2-.8-.1-1,.4A.57.57,0,0,1,595.9,523.3Z"/><path d="M675.1,496.2l-1.9-1.3a.91.91,0,0,1-.1-1.2l.1-.1c.4-1.6-.3-4.5,3.1-3C676.7,492.7,678.5,495,675.1,496.2Z"/><path d="M675.1,496.2c1.5-.7,1.5-2,1.1-3.2a2.88,2.88,0,0,1,.1-2.4c1.1-.2,1.4-3.1,3.2-.8-.1,1.5-1.1,3-.4,4.6-1.5,1-2.6,2.8-4.6,3.2Z"/><path d="M680.1,604.4v1.1q-.3.45-.6,0c-4.4-1.1-8.9-.3-13.3-.5a.88.88,0,0,1-1-.5c-.2-.5-.5-1-.1-1.5,1.2.3,2.6-.2,3.8.6a1.09,1.09,0,0,1-1.3.4c.6-.1,1.5.3,2.4-.3,1.9-.5,3.8.7,5.8,0C677.1,604.7,678.8,603.1,680.1,604.4Z"/><path d="M620.5,615.8h22.3v.3H620.4Z"/><path d="M660.6,622c-4-.3-8,.7-12-.5l1.7-.1c2.1-.7,4.3.2,6.4-.5l5.1-1.2c.6.3,1.6.2,1.4,1.2C663,622.5,661.3,621.2,660.6,622Z"/><path d="M596.3,522c-.7,0-1.4.1-1.9-.6l1.6-.1c1.2-.5,2.5.1,3.7-.5a1.14,1.14,0,0,1,.8-.3c1,.3,2.1.3,3.1.7a2.6,2.6,0,0,1,1.6.9c-.5,2.7-2.8,1.5-4.3,2a.75.75,0,0,1-.9,0l-1.3-.8C598,522.7,596.9,522.8,596.3,522Z"/><path d="M651.7,613.9a24.81,24.81,0,0,1,7.7.5c.2.2.3.3.2.4l-.2.2-17-.1c.2-1.3,1.3-.8,2-.8C646.7,614,649.2,614.4,651.7,613.9Z"/><path d="M600.2,574.8c.9-2.9,2.8-4,5.7-3.2,0,.4.2.8.2,1.2a.91.91,0,0,1-.3.7c-1.8.3-3,1.6-4.4,2.5A1.8,1.8,0,0,1,600.2,574.8Z"/><path d="M643.5,618.2H630.9c-1.1-.6-2.5.2-3.6-.5,4-1.1,8-.3,12.1-.2,1.4.1,2.7.1,4.1.2.2.1.3.2.2.3S643.6,618.2,643.5,618.2Z"/><path d="M617.1,514.5a6.7,6.7,0,0,1,3.8,4.4c-.4,1-1.4,1.3-2.1,1.9a1.14,1.14,0,0,1-.8.3,1.22,1.22,0,0,1-1.2-.5c-.9-1.9-.1-3.8,0-5.8Z"/><path d="M651.7,613.9c-2,1.1-4.1.3-6.1.5-1.1.1-2.3-.3-3.3.5l-6.3-.1.1-.3C641.2,613.1,646.4,614,651.7,613.9Z"/><path d="M607,530.7a3.39,3.39,0,0,1-2-1.7c-.3-1.3-.5-2.6-1.9-3.3l-.4-.6a2.89,2.89,0,0,1,2-1.4,2.83,2.83,0,0,1,2.5.6C607.9,526.5,608.8,528.7,607,530.7Z"/><path d="M683.9,507.4c.3-.5,1-.7.3-1.7a2.2,2.2,0,0,1,.4-3c.2-.1.4-.3.6-.3.3.4.9.1,1.1.6.2,1.7.7,3.5-.5,5A1.76,1.76,0,0,1,683.9,507.4Z"/><path d="M683.9,589.9a1.37,1.37,0,0,1,.6,1.3,2.55,2.55,0,0,1,0,3.1c-.5,2.7,1.8,5.5-.1,8.2-.6-.7-.2-1.5-.3-2.3,0-.2.2-.3-.1-.5a.85.85,0,0,1-.3.5C682,596.7,684.3,593.4,683.9,589.9Z"/><path d="M660.6,622c-.1-1.1,4,.1,1.3-2.4l3.2-1.3c1.2.7,1.3,2,1.9,3-.3.5-.9.2-1.2.6Z"/><path d="M607,530.7v-6.2a1.15,1.15,0,0,1,1.2-.4,2.52,2.52,0,0,1,1.5,1c.1,1.8,0,3.6,0,5.3-.2.7-1,.5-1.5.8Z"/><path d="M603.1,518.8a3.85,3.85,0,0,1,1.9-2.6c2.9-.4,2,1.7,2.1,3.2a3.69,3.69,0,0,1-.7,1.4,2.22,2.22,0,0,1-1.3.8C603.5,521.3,602.7,520.4,603.1,518.8Z"/><path d="M592.5,547.8c.5,1,3.1.5,1.8,2.6-1.5.1-2.8-1.1-4.3-.6-.4-.8-.8-1.5-1.3-2.3,1.5.6,2.2-1.8,3.7-.9C593,546.9,592.6,547.4,592.5,547.8Z"/><path d="M643.5,618.2a.9.9,0,0,0-.1-.5h4.5a4.75,4.75,0,0,0,3.7,0c1,.1,2-.5,3.3,1C650.8,618.7,647.2,619.7,643.5,618.2Z"/><path d="M611.4,513.1a5.36,5.36,0,0,1,4.1.5c-.6,2.3.1,4.6,0,6.9a1.23,1.23,0,0,1-.7,1.1,1.69,1.69,0,0,1-1.4-.1,1.79,1.79,0,0,1-.5-.7c-.5-2,.1-4.2-.8-6.1a3.82,3.82,0,0,1-.9-.9A.66.66,0,0,1,611.4,513.1Z"/><path d="M663.2,607.4c.2,0,.4,0,.5.2.7,1.4,2.9-.2,3.4,1.6,0,1.2-.7,1.3-1.6,1h-1.6c-.6.3-1.1-.1-1.7-.1a6.26,6.26,0,0,1-2.7-.3.89.89,0,0,1-.5-.8,1.85,1.85,0,0,1,1.3-2A3.37,3.37,0,0,1,663.2,607.4Z"/><path d="M679.1,494.4c-1.9-1.7-1.5-3.2.4-4.6a1.09,1.09,0,0,1,1.3-.4c-.7,1.4-.2,2.6.8,3.7Z"/><path d="M673.8,513.2c1.4-.8-.8-2.3.6-3.1,2.1.2,3,2.5,1.8,4.5a3.29,3.29,0,0,1-2.5-.8A1.76,1.76,0,0,0,673.8,513.2Z"/><path d="M621.5,611.3c2.2-.1,4.4.5,6.5-.7l4.2.8c-5.4,1-10.9.3-16.3.4-.2-.1-.3-.2-.2-.3s.1-.2.2-.2Z"/><path d="M581.8,559.7h1.3c0,2.3.1,4.6-.1,6.8-.1,1.1-.7,1.8-1.1,0,.6-1.2,0-2.4.2-3.1a1.44,1.44,0,0,1-.3,1.3C581.2,563.2,580.2,561.4,581.8,559.7Z"/><path d="M610.2,618.8h-7c-.6-.4-1.3-.1-1.9-.4a.48.48,0,0,1,0-.7h10.1a.52.52,0,0,1,.2.4c0,.2,0,.2-.1.2C611.2,618.7,610.6,618.5,610.2,618.8Z"/><path d="M575.5,617.7c4.4-.3,8.9-1.2,13.3-.1a7.17,7.17,0,0,1-5,.1,28.82,28.82,0,0,1-8.3.6c-.2-.1-.3-.2-.2-.4S575.5,617.7,575.5,617.7Z"/><path d="M615.3,520.8c-.9-2.4-1.7-4.8.2-7.1a2.09,2.09,0,0,1,1.6.8v.1c-1.2,2-.2,4.1-.4,6.2A1.2,1.2,0,0,1,615.3,520.8Z"/><path d="M611.4,513.1v.7c.8,1.8-.6,3.9.8,5.6.4.5,1,1,.2,1.7a7.36,7.36,0,0,1-3.6.5c-1.1,0-2.2.1-3.1-.8l.6-.6a2.75,2.75,0,0,1,1.5-.8l.8-.2a3,3,0,0,0,0-4.1,1,1,0,0,1-.3-1.1Z"/><path d="M658.7,606.9l-1.3-.5a2.29,2.29,0,0,1-.2-1.8c.1-1.8.8-3.5.8-5.3a1.37,1.37,0,0,1,.6-1.3c2.7,1.7,1.1,4.5,1.6,6.7a7.57,7.57,0,0,0,.1,1.5,1.61,1.61,0,0,1-.3.9A1.06,1.06,0,0,1,658.7,606.9Z"/><path d="M617.1,530.7a1.82,1.82,0,0,1-1.6.8c-2.6-.9-1.4-3-1.6-4.7a1.61,1.61,0,0,1,.3-.9,1.75,1.75,0,0,1,1.5-1,1.59,1.59,0,0,1,1,.8,7.41,7.41,0,0,0,.8,3.9A1.5,1.5,0,0,1,617.1,530.7Z"/><path d="M660.6,594.4c.5-.6.2-1.5.4-2.7a4.62,4.62,0,0,1,.9,3.2,41.77,41.77,0,0,1,.8,9.3c-.1,1.1.1,2.4-1.3,2.9-2.1-3.4-.7-7-.9-10.6C660.4,595.8,660.8,595.1,660.6,594.4Z"/><path d="M661.1,606.9c1.5-2.5.4-5.3.7-7.9a27.73,27.73,0,0,0,.1-4.1,7.6,7.6,0,0,1,1.1,3.3c-.1,3,.7,5.9.1,8.9v.4l-3.2.1a.25.25,0,0,1-.1-.4c.1-.1.1-.2.2-.2l-.1-.1A.75.75,0,0,1,661.1,606.9Z"/><path d="M650.6,604.3c-2.1,0-4.3.5-6.3-.4a45.53,45.53,0,0,1,8.1-1.3c.4.4,1.4.2,1.2,1-.1.6-.8.5-1.3.5A3.45,3.45,0,0,0,650.6,604.3Z"/><path d="M630,522.5l3.5.2a.49.49,0,0,1-.1.7.37.37,0,0,1-.3.1,20.13,20.13,0,0,1-4.9-.2l-5.4-.2a1.39,1.39,0,0,1,.1-1.4,2.65,2.65,0,0,1,.5-.6.88.88,0,0,1,.7.1l2.5.8C627.7,522.5,628.9,522.1,630,522.5Z"/><path d="M661.1,606.9h-1.2l-.6-1.2a2.18,2.18,0,0,0,.5-.8c.4-3.1-.2-6.2.1-9.3l.7-1.2C661.9,598.5,661,602.7,661.1,606.9Z"/><path d="M608.3,531.4a1.22,1.22,0,0,1,1.2-.6c.4-1.9-.8-4,1-5.7a1,1,0,0,1,.9-.1c1.5,1.9.4,4,.3,6.1-.1.5-.6.7-1,1A3.56,3.56,0,0,1,608.3,531.4Z"/><path d="M665.5,610.2c.7-.2,1.4-.4,1.2-1.4,0-.5.2-.7.7-.6.1,2.4,2,2.1,3.5,2.2.7,0,1.7-.3.8,1C669.6,611.3,667.4,611.8,665.5,610.2Z"/><path d="M608.3,520.1h-1.9c-.4-1.3,1-3.3-1.4-3.8a3.75,3.75,0,0,1,2.1-1.8C609.2,515.9,608.5,518,608.3,520.1Z"/><path d="M605.8,575l1.3,1.1A11.65,11.65,0,0,0,604,580c-.4-.1-.5-.5-.8-.8A4,4,0,0,1,605.8,575Z"/><path d="M657.5,610.6a19,19,0,0,1-7.5.7c-.2-.6-.1-.8.5-.6,1.7.5,2.8-1.5,4.5-1C655.9,609.8,657.2,609,657.5,610.6Z"/><path d="M663.2,607a13,13,0,0,1-.1-8.9l.6,1.9a21.57,21.57,0,0,0,.6,5.1,4.35,4.35,0,0,0,.7.4,2.22,2.22,0,0,1,1.3.8C665.4,607.3,664.2,606.8,663.2,607Z"/><path d="M650.6,604.3c.4-.6,1.1-.5,1.7-.5,1.8-.2,0-.8.1-1.2a4.75,4.75,0,0,1,3.7,0c.7.9.2,1.4-.6,1.8Z"/><path d="M617.1,530.7v-1.2a4.36,4.36,0,0,1,.8-3.8,1.08,1.08,0,0,1,.8-.2c.8.2,1,.9,1.4,1.5C620.2,529.1,618.6,529.9,617.1,530.7Z"/><path d="M698.9,520.9c1.7-2.4-.2-5.3,1.3-7.8.5,2.7,0,5.4.1,8.1,0,.6.2,1.4-.8,1.2C698.7,522.3,699.1,521.5,698.9,520.9Z"/><path d="M608.3,520.1c-1.2-1.7,0-3.9-1.2-5.6l1.3-.6.6.6a6.35,6.35,0,0,1,0,5.7Z"/><path d="M614.6,576.7h2a6.53,6.53,0,0,1,0,3.4c-.1.9-.3,1.8-1.4,1.6s-.4-1.1-.2-1.7C615.5,578.8,614.4,577.9,614.6,576.7Z"/><path d="M659.9,595.5a17.38,17.38,0,0,1,0,10.1c-.7-3,0-6-.7-9A1.51,1.51,0,0,1,659.9,595.5Z"/><path d="M623.4,522l-.6,1.2-.6.2h-.4a6.52,6.52,0,0,0-2.4.2,2.35,2.35,0,0,1-.8.2,3.4,3.4,0,0,1-2-.3.91.91,0,0,1-.3-.7c1.1-.3-.3-1.1.2-1.5.8-.4,1.8-.2,2.7-.4C620.6,521.3,622.1,521,623.4,522Z"/><path d="M633.5,523.2v-.6a21.6,21.6,0,0,1,6.7.8,18.81,18.81,0,0,1-6.7.3c-.2-.1-.3-.2-.2-.3S633.4,523.2,633.5,523.2Z"/><path d="M593.1,529h1.3c1.8.8,4-.8,5.6,1-3.2.1-6.4.5-9.6-.4C591.2,528.7,592.3,529.6,593.1,529Z"/><path d="M603.1,518.8c0,1.4,1.1,1.9,2,2.5.8-.2,1.8-.8,2,.7a1.42,1.42,0,0,1-2,.1l-1.4-.2a7.61,7.61,0,0,0-3-1H600c-.3.2-.5.1-.6-.2C600.4,519.6,602.5,520.7,603.1,518.8Z"/><path d="M618.3,614.5H614c-.2-.1-.3-.2-.2-.4s.1-.2.2-.2h8.8c.4.3.9.4.6,1.1h-1.3C620.9,614.4,619.5,615.2,618.3,614.5Z"/><path d="M610.8,532l.6-.6a6.89,6.89,0,0,1,1.3-1.1c1-1.2-.4-3.4,1.8-4,.2,1.8-.4,3.6.9,5.2A5.63,5.63,0,0,1,610.8,532Z"/><path d="M673.2,493.7v1.2c-1.4-.1-1.1,1.5-1.9,1.9-.7-.9.1-2.2-.6-3.1C671.5,490.5,672.4,493.2,673.2,493.7Z"/><path d="M683.9,492.3c.1-1.2,1-1.3,1.8-1.2,1.2.3,1.5-.7,2.1-1.4a2.38,2.38,0,0,1,1.7,1.9Z"/><path d="M567.4,608.3c.3,2.8-.6,3.8-3.3,2.3Z"/><path d="M657.5,610.6c-.6-.9-1.8-.3-2.5-1,.8-.4-.4-2.8,1.8-1.9.7.8,1.8,1,2.5,1.8h0a.48.48,0,0,1,.2.6c-.2.3-.6.4-.8.6Z"/><path d="M659.3,596.7c1.3,2.9.4,6,.7,9h-.6c-.3-2.6.6-5.2-.7-7.7A1.09,1.09,0,0,1,659.3,596.7Z"/><path d="M637.8,605.5a1.42,1.42,0,0,0-.6.2c-.2.2-.4.1-.5-.2a.75.75,0,0,0-.1-.5c-.1-1.1-.1-2.2-.2-3.3.3-.9.3-1.9,1.4-2.3C638.7,601.5,639.4,603.5,637.8,605.5Z"/><path d="M659.3,609.4c-1.3,0-2.7.2-2.5-1.8.6-.3,1.5.2,1.9-.7l1.3.1v.6A13.36,13.36,0,0,0,659.3,609.4Z"/><path d="M610.9,576c2.3,1,1.8,2.8,1.5,4.6a.57.57,0,0,1-.7.2c-.1-.1-.2-.1-.2-.2l-.7-4.4Z"/><path d="M636.8,605.5c.2,0,.3.1.5.2v.4c-.2,1-1.4.7-1.8,1.5-.9,1.1-2.1.4-3.2.5a10.76,10.76,0,0,0,3.2-2.4Z"/><path d="M605.2,591.2a3.84,3.84,0,0,1,.5-3.3c.6.3.2,1.1.8,1.5,0,1.5.2,3.1-.5,4.6C604.4,593.3,604.9,592.2,605.2,591.2Z"/><path d="M664.4,606.2h-.7c-.2-1.5-1.1-3.2.6-4.4l.7,1.2.4,1.4A1.57,1.57,0,0,1,664.4,606.2Z"/><path d="M605.2,591.2l.7,2.7c.3.8-1,1.5-.1,2.3-.9,0-1.3-.6-1.4-1.4C604.3,593.5,604.1,592.2,605.2,591.2Z"/><path d="M655.6,529.5h-.7V522h.5c.1.5.2.9.3,1.4C655.6,525.4,655.6,527.5,655.6,529.5Z"/><path d="M689.5,583.7c-1.2-2.6-.3-5.4-.6-8.1C689.6,578.2,689.3,580.9,689.5,583.7Z"/><path d="M588.2,559.1h-.7a.66.66,0,0,1-.1-.6c-.6-1,.1-2.2-.5-3.2l-.3-2.5a.57.57,0,0,1,.7-.2l.1.1C588.6,554.8,588,557,588.2,559.1Z"/><path d="M678.9,510.5c-1.5-.1-2.5-1.3-3.8-1.8,1.1,0,2.3,0,3.4.1C680.2,508.9,679,509.9,678.9,510.5Z"/><path d="M603.1,525.8c2.7-.1,2.5,1.5,1.9,3.3A5.3,5.3,0,0,1,603.1,525.8Z"/><path d="M635.4,607.6c-.3-1.5,1-1.3,1.8-1.5.1.1.1.2.2.3.9.5,2.1-.2,3,.5l.7.5A18.2,18.2,0,0,1,635.4,607.6Z"/><path d="M600.1,530c-1.7-1.3-3.9.3-5.6-1a54.29,54.29,0,0,1,5.7.2C601.4,529.4,601.4,529.9,600.1,530Z"/><path d="M664.4,601.9c-1.2,1.3-.4,2.9-.6,4.4a7.32,7.32,0,0,1-.1-6.3Z"/><path d="M624.1,521.3l-.7.2a12.92,12.92,0,0,1-3.4.1,9.5,9.5,0,0,1-1.7-1,.37.37,0,0,0,.1-.3c.9-1,2-.6,3-.3C621.9,521.1,623.4,520.4,624.1,521.3Z"/><path d="M589.4,529.5a14,14,0,0,1-5,0c-.2-.1-.3-.3-.2-.4s.1-.2.2-.2c2.3.4,4.7-.9,7.1,0C590.9,529.5,590,528.9,589.4,529.5Z"/><path d="M618.4,617.7a33.07,33.07,0,0,1,8.3.2,32.83,32.83,0,0,1-8.3.3c-.2-.1-.3-.2-.2-.3A.22.22,0,0,1,618.4,617.7Z"/><path d="M620.2,527a1.11,1.11,0,0,1-1.2-1v-.2a2.1,2.1,0,0,1,.5-1.5,2.51,2.51,0,0,1,.7-.4c.6-.1,1.5-.6,1.4.7C621.7,525.7,620.8,526.2,620.2,527Z"/><path d="M682.6,506.2c0,1.2-1,.3-1.5.7l-3.6.4v-1.2a1.65,1.65,0,0,1,1.9,0h3.2v.1Z"/><path d="M575,529.7a5.75,5.75,0,0,1-5.4-.3,2.49,2.49,0,0,1,2.2-.4C572.7,529.7,574.1,528.7,575,529.7Z"/><path d="M575,529.7c-1-.5-2.3.4-3.2-.7l2.9-.1a12,12,0,0,1,3.8-.2.52.52,0,0,1,.3.7c0,.1-.1.1-.1.2Z"/><path d="M612.2,582.5c-.2,1.3-.2,2.6-1.9,3.8.4-1.8.8-3.2,1.1-4.6C611.8,581.7,612.1,582,612.2,582.5Z"/><path d="M658,599.3c.9,1.9-.2,3.9,0,5.8-2.3-1-.6-2.6-.7-4A2.27,2.27,0,0,1,658,599.3Z"/><path d="M623.4,615c-.2-.4-.4-.7-.6-1.1,1.8,0,3.6-.4,5.3.4v.3l-.4.4a7.31,7.31,0,0,0-3.6,0Z"/><path d="M610.2,618.8l1.3-.5c1.2-.6,2.5-.2,3.7-.3.7.1,1.5-.2,2,.4C614.9,619.1,612.6,618.8,610.2,618.8Z"/><path d="M605.8,573c-.7-.5-.6-.9.1-1.4a5.25,5.25,0,0,1,3,.6l-.7.8A2.3,2.3,0,0,1,605.8,573Z"/><path d="M657.3,601c.4,1.3-.5,2.8.7,4-.2.5-.4.9-.6,1.3-1.1.2-1.5-.3-1.3-1.3h.1c.3-.8,0-1.8.5-2.6Z"/><path d="M637.8,605.5c0-2,0-4.1.1-6.2.5-.2.6.2.7.5.2,1.9,1.4,3.8-.1,5.7Z"/><path d="M606.4,589.3l-.8-1.5c.2-1-.5-2.8,1.7-2.2h-.1Z"/><path d="M588.8,522c.8,1.1,2.2.1,3.3,1.1h-4.8C587.7,522.6,587.8,521.8,588.8,522Z"/><path d="M601.4,618.2c.7,0,1.4-.1,1.9.5-2.1,0-4.3.4-6.4-.4.4-.5.9-.4,1.4-.4C599.3,618.1,600.4,617.7,601.4,618.2Z"/><path d="M692.7,622.5c-1.2-.8-2.5-.2-3.8-.5-.2-.2-.3-.3-.2-.5s.1-.2.2-.2h5v1.1Z"/><path d="M638.5,605.7l.1-5.7,1.1,2.6c-.2,1,.4,2.1-.5,3Z"/><path d="M587.4,579.8c1.4,1.3.5,2.8.8,4.4-1-.6-.5-1.5-.8-2.1S586.8,580.6,587.4,579.8Z"/><path d="M683.9,603.1c-1.3-.2-2.6.5-3.8-.5,1.1-1,2.6,0,3.7-.8a.91.91,0,0,1,.3.7A.48.48,0,0,1,683.9,603.1Z"/><path d="M652.4,500.6l-.9.1c-.5-.1-1.2-.5-.6-.9,1-.6,2.3-1.1,2.8.7l-.1.1a.91.91,0,0,1-1.2,0Z"/><path d="M680.1,604.4c-1.4-.3-3,.7-4.3-.6l3-.7A2.1,2.1,0,0,1,680.1,604.4Z"/><path d="M636,614.6a.37.37,0,0,0-.1.3h-5.8A11.89,11.89,0,0,1,636,614.6Z"/><path d="M598.1,618.1l-1.3.2-4.9-.2c-.2-.1-.3-.2-.2-.3s.1-.1.2-.2h6.3Z"/><path d="M656.8,620.8c-2.1,1.2-4.3.5-6.4.5A19.6,19.6,0,0,1,656.8,620.8Z"/><path d="M658.7,610.7l.6-.5c.9-.8,2.2.1,3.1-.6l1.5.7A9.21,9.21,0,0,1,658.7,610.7Z"/><path d="M607.4,585.7c-2-1.2-.6-2.6-.2-3.9,1.2,0,.7.8.6,1.3a23.36,23.36,0,0,0-.4,2.6Z"/><path d="M607.8,583.2l-.6-1.3a3.66,3.66,0,0,1,1.6-3A11.22,11.22,0,0,1,607.8,583.2Z"/><path d="M667,531.9l-.3,2.7c-.3-1.7-1-3.4.1-5Z"/><path d="M578.7,529.5v-.6a1.06,1.06,0,0,1,1.4,0h4.3v.7A27.16,27.16,0,0,1,578.7,529.5Z"/><path d="M604.5,524.5l-1.8.7c-.6-1-2-.3-2.7-1.3l.7-.2a10.92,10.92,0,0,1,3.6-.2.8.8,0,0,1,.2,1Z"/><path d="M575.5,617.7v.6c-1.7,0-3.4.3-5.1-.6Z"/><path d="M639.2,605.7c0-1-.5-2.2.5-3l.7,1.3C640.4,604.7,640.5,605.6,639.2,605.7Z"/><path d="M596.3,522a3.34,3.34,0,0,1,2.5,1.2l-2.9.2c-.1-.3-1.5.3-.5-.7A2.76,2.76,0,0,1,596.3,522Z"/><path d="M685.8,488.7a3,3,0,0,1-3.8,0A4.24,4.24,0,0,1,685.8,488.7Z"/><path d="M654.9,511.8c.1.5,1.3.7.7,1.4s-1.3.5-2,.5C653.8,513,653.8,512,654.9,511.8Z"/><path d="M598.4,548.5c-.8-.5-2.1.7-2.6-.8a4.21,4.21,0,0,1,3.1.3c.4.2.3.6,0,.3C598.9,548.2,598.6,548.4,598.4,548.5Z"/><path d="M685.8,501.8c-.7,0-1.4.1-1.9-.6a3.74,3.74,0,0,1,3.1-.5C687.1,501.6,686.8,502.1,685.8,501.8Z"/><path d="M583.8,617.7l5-.1-.1.1c.2.1.3.2.2.3s-.1.2-.2.2C587.1,618,585.4,618.9,583.8,617.7Z"/><path d="M610.8,604.5v.6a1.39,1.39,0,0,1-1.9,0c-.8-.3-2,.7-2.3-.8A10,10,0,0,1,610.8,604.5Z"/><path d="M633.5,523.2v.5a15.68,15.68,0,0,1-5.3-.5Z"/><path d="M636.5,601.7a2.71,2.71,0,0,1,.2,3.3c-.9-.4-.5-1.3-.7-2C636,602.5,636,602,636.5,601.7Z"/><path d="M606.4,568v.5h-2.8C604.6,566.7,605.5,567.2,606.4,568Z"/><path d="M587.6,561c1.1,1.7.4,3.5.5,5.3C587.2,564.6,587.7,562.7,587.6,561Z"/><path d="M580,528.8h-1.4l-4-.1C576.5,528.4,578.3,527.8,580,528.8Z"/><path d="M625.3,604.3c-1.7-.1-3.4.6-4.9-.4h5Z"/><path d="M685.8,501.8a1.89,1.89,0,0,0,1.2-1.1c1.2-.1.6.8.7,1.2l-1.3,1.2a1,1,0,0,1-1.1-.6Z"/><path d="M635.9,612.5v-1.1c.8.1,2.2-.7,2.2.7C638,612.9,636.7,612.6,635.9,612.5Z"/><path d="M666.3,522h.5a10.86,10.86,0,0,1,0,4.4C665.7,525,666.5,523.4,666.3,522Z"/><path d="M621.6,524.5c-.4-.7-.9-.3-1.4-.2-.4-.1-.9,0-1.2-.3a.38.38,0,0,1,.1-.6.1.1,0,0,0,.1-.1H619c1-.7,2.1-.3,3.1-.2v.3Z"/><path d="M586.1,523.9h4.7A6.36,6.36,0,0,1,586.1,523.9Z"/><path d="M684,552.2c-1.3-1.3-.5-3-.7-4.5C685.1,548.9,683.5,550.7,684,552.2Z"/><path d="M685.2,561c.2-1.5-.6-3.1.6-4.4l.1,1.6a3.42,3.42,0,0,1-.1,2.8Z"/><path d="M614,613.9v.5h-3.7v-.5Z"/><path d="M581.8,564.9c.2-.7-.2-1.5.5-2.2.1,1.5.6,2.8-.4,4Z"/><path d="M614.6,571c1.1-.3,2.2-.5,3,.7C616.4,571.8,615.2,572.8,614.6,571Z"/><path d="M614.6,571c.8,1.2,2,.6,3,.7l.1.6c-1.2-.4-3,.9-3.7-1.2Z"/><path d="M605.8,573l2.4.1c.8,1.4-.3,1.1-1,1.2-.2-.8-.9-.6-1.4-.8Z"/><path d="M691.5,502.5l-1.3-1.2c.8-.1,1.8-.3,2.2.4S692,502.4,691.5,502.5Z"/><path d="M650.5,610.7l-.5.6c-.6,0-1.3.3-1.7-.4,0-.2,0-.4.2-.5A1.53,1.53,0,0,1,650.5,610.7Z"/><path d="M683.9,602.5a1.27,1.27,0,0,0-.1-.6c0-.5-.1-1.1-.1-1.6l.3-1.4h.5v3.7h0C684.3,602.8,684.1,602.8,683.9,602.5Z"/><path d="M595.8,561.9v-4.2A4,4,0,0,1,595.8,561.9Z"/><path d="M621.4,520l-3,.3c.4-1.2,1.7-.8,2.5-1.5Z"/><path d="M616.6,580.1c0-1.1-.7-2.2,0-3.4C617.6,577.8,616.8,578.9,616.6,580.1Z"/><path d="M663,522.6c.8.2,1.8.3.6,1.3C662.4,523.9,662.3,523.4,663,522.6Z"/><path d="M659.3,615.1v-.6h3.1v.6Z"/><path d="M618.3,614.5c1.3.1,2.7-.5,3.9.5C620.8,615,619.5,615.4,618.3,614.5Z"/><path d="M624.1,615a3,3,0,0,1,3.6,0Z"/><path d="M599.4,520.6l.6.2c-1.2,1-2.7.4-4,.5C597.1,520.6,598.3,520.9,599.4,520.6Z"/><path d="M625.3,604.3v-.4h3.8c.2.1.3.2.2.3l-.2.2Z"/><path d="M670,603.8c-1,1.1-2.2.5-3.4.2l2.2-.3Z"/><path d="M651,515.7c.5.5,2.4-1,1.8,1.2-.2-1.3-1.3-.4-1.8-.8-.1,0-.1-.1-.1-.2S650.9,515.7,651,515.7Z"/><path d="M589.4,529.5c.5-.7,1.3-.5,2-.6l1.7.2c-.7.8-1.8.2-2.6.7Z"/><path d="M663.1,513.1c.1-1.2,1-1.1,1.9-1.2a1.3,1.3,0,0,1,1.2.8Z"/><path d="M615.3,618.1l-3.9.1v-.5h3.8Z"/><path d="M629.1,604.4v-.5h3.7C631.7,604.9,630.3,604.2,629.1,604.4Z"/><path d="M627.4,617.7c1.2.2,2.5-.4,3.6.5C629.7,618.1,628.4,618.9,627.4,617.7Z"/><path d="M651.7,617.7a2.66,2.66,0,0,1-3.7,0Z"/><path d="M589.9,570.4c-.9-1.3-.4-2.7-.4-4C590.3,567.7,589.7,569,589.9,570.4Z"/><path d="M590,574.8a3,3,0,0,1,0-3.8Z"/><path d="M682.6,564.3l.2-2c.4,1.1,1,2.3-.4,3.1C682.5,565,682.5,564.7,682.6,564.3Z"/><path d="M692.7,600l-1.3.7c-.8-.7-.4-1.6-.5-2.4,0-.3.2-.4.5-.2C691.7,598.8,691.1,600.2,692.7,600Z"/><path d="M600.2,574.8l1.2,1.2-1,1.9A3.12,3.12,0,0,1,600.2,574.8Z"/><path d="M589.3,563.5c-1-1.2-.4-2.5-.5-3.8C589.6,560.8,589.1,562.2,589.3,563.5Z"/><path d="M587.6,575.5a3.15,3.15,0,0,1,0,3.7Z"/><path d="M587,555.3c1,1,.5,2.1.5,3.2C586.7,557.6,587,556.4,587,555.3Z"/><path d="M691.4,598.1c-.2.1-.3.1-.5.2,0-1.1-.5-2.3.5-3.3Z"/><path d="M664.4,517.6c.3-.1.8-.6,1-.1.2.7-.4,1-.9,1.3C664.6,518.4,663.5,518.1,664.4,517.6Z"/><path d="M590,579.9a2.3,2.3,0,0,1-.1-3.1Z"/><path d="M576.6,552.1c.4.2,1.1,0,1,.8,0,.3-.3.5-.4.7l-1-1.4C576.3,552.1,576.5,552,576.6,552.1Z"/><path d="M588.8,618.2v-.5l3.2.1v.5Z"/><path d="M603.2,579.2l.8.8-.3,1.4a1.47,1.47,0,0,1-.7-1.9A1.44,1.44,0,0,1,603.2,579.2Z"/><path d="M598.1,618.1v-.4h3.2v.5Z"/><path d="M592.5,547.8c-.7-.4-.1-.8,0-1.3a1,1,0,0,1,1.3.6A1.27,1.27,0,0,1,592.5,547.8Z"/><path d="M612.2,582.5l-.8-.8.1-1.1.8.1C612.4,581.2,613,581.9,612.2,582.5Z"/><path d="M615.3,618.1a.6.6,0,0,1-.1-.4h3.1v.5l-1.1.1Z"/><path d="M691.4,528.9a2.2,2.2,0,0,1-.1-3.1h0A3.73,3.73,0,0,1,691.4,528.9Z"/><path d="M587.5,552.8l-.8.1-1,.1c.5-1.1,1.5-1.3,2.5-1.5v.7Z"/><path d="M670.7,493.7c1,.9.4,2.1.6,3.1h-.5l-.2-2C670.6,494.4,670.7,494,670.7,493.7Z"/><path d="M656.7,602.4c0,.9.3,1.9-.5,2.6l-.7-.6.6-1.8A1.42,1.42,0,0,1,656.7,602.4Z"/><path d="M668.8,497.4c.5.8,1.3,1.6-.1,2.4C668.7,499,668.8,498.2,668.8,497.4Z"/><path d="M630,522.5c-1.2.1-2.3.5-3.4-.4A8,8,0,0,1,630,522.5Z"/><path d="M685.7,561c0-.9.1-1.8.1-2.8a8,8,0,0,1,.5,3.4Z"/><path d="M610.1,569.8c-.8-.5-1.8-.7-1.8-1.9C609.1,568.3,610.1,568.6,610.1,569.8Z"/><path d="M683.9,602.5c.2,0,.4.1.6.1.8,4.8.1,9.6.3,14.5a16.4,16.4,0,0,0,.9,4.4,1.65,1.65,0,0,1-1.9,0,55.58,55.58,0,0,1,0-18.2Z"/><path d="M683.9,621.4h5v.7h-5.7c-.2-.1-.3-.3-.2-.4s.1-.2.2-.2Z"/><path d="M684.6,594.3v-3.1h.6a3.6,3.6,0,0,1,0,3.2C685,594.4,684.8,594.3,684.6,594.3Z"/><path d="M685.2,594.3v-3.2a2.08,2.08,0,0,1,.1,3C685.3,594.2,685.3,594.3,685.2,594.3Z"/><path d="M587.1,585.7a3.89,3.89,0,0,1,.2,3C586.5,587.9,587,587,587.1,585.7Z"/><path d="M665.1,538.2v-3.5h.3v3.6Z"/><path d="M676.3,621.4c-.2-4-.4-8-.7-12l2.3-2.5c2.3-.7,1.8,1.2,1.8,2.2.1,4,.1,8,0,11.9a.84.84,0,0,1-.7.7A5,5,0,0,1,676.3,621.4Z"/><path d="M679.5,621.4c-1.3-4.2-.4-8.6-.6-12.8,0-.8.3-1.7-1-1.7l1.5-1.3h.6c1,3.9.6,8,.7,12a7.47,7.47,0,0,0,.6,3.9A1.51,1.51,0,0,1,679.5,621.4Z"/><path d="M667.4,608.1l-.7.6a16.05,16.05,0,0,1-3.1,0c-1.3-.3.2-.7.1-1.1C665,607.8,666.4,606.8,667.4,608.1Z"/><path d="M664.4,606.2l1.1-1.8.6.6.1,1.3Z"/><path d="M679.5,621.4h3.8v.6h-4.4c-.2-.2-.3-.3-.2-.4s.1-.2.2-.2Z"/><path d="M568,611.9c.9-1,2.1-.4,3.1-.6h3.8c.2.1.3.3.2.4s-.1.2-.2.2Z"/><path d="M601.4,611.3h3.8c.2.1.3.2.2.4s-.1.2-.2.2h-6.3C599.5,611,600.5,611.4,601.4,611.3Z"/><path d="M605.1,611.9v-.6h3.8c.5-.6,1.1-.4,1.7-.2a.55.55,0,0,1,.3.5c0,.2,0,.3-.1.3Z"/><path d="M610.8,611.9v-.5a1.65,1.65,0,0,1,1.9,0h3.2v.5Z"/><path d="M582.5,611.3v.6H578c-.2-.1-.3-.3-.2-.4s.1-.2.2-.2Z"/><path d="M578,611.3v.6h-3.1v-.6Z"/><path d="M612.7,611.3h-3.8c-.8-.8-2.3-.6-2.3-2.5a3.93,3.93,0,0,1,2.3-3.8h1.9C609.5,608.9,609.8,610,612.7,611.3Z"/><path d="M678.9,621.4v.6h-5.7c-.2-.1-.3-.3-.2-.4s.1-.2.2-.2Z"/><path d="M673.2,621.4v.6h-7.5a1.22,1.22,0,0,1,1.2-.6Z"/><path d="M652.4,500.6h1.2c-.7,1.2.4,2.3.1,3.7h-2.6C650.3,502.7,651.9,501.8,652.4,500.6Z"/><path d="M679.5,506.2h-1.9c-.8-.1-1.6-.3-.6-1.2Z"/><path d="M640.4,606.9c-1-.1-2.1.4-3-.5C638.4,606.5,639.5,605.8,640.4,606.9Z"/><path d="M604.5,523.9l-3.8-.2c1.2-1.3,3.5.3,4.4-1.7l1.8-.2a4.68,4.68,0,0,1,2.6-.5c1.4,0,2.8-.8,4.1,0h.9a1.61,1.61,0,0,0,.7.4,3.81,3.81,0,0,1,1.3.9v.6c-1,1.1-2.5.6-3.7,1l-.4.1a2.77,2.77,0,0,1-.9.1,2,2,0,0,1-.8-.1,10.07,10.07,0,0,0-3-.1C606.6,524.1,605.5,524.4,604.5,523.9Z"/><path d="M600.8,520.8c1.1,0,2.5-.7,3,1A6,6,0,0,1,600.8,520.8Z"/><path d="M616.5,520.6c-.3-2.1-2-4.2.6-6,.6,2-.2,4,.1,6C616.9,520.9,616.7,520.9,616.5,520.6Z"/><path d="M616.5,520.6h.6l1.2.1,1.3.6c-.1.3-.3.4-.6.2a3.36,3.36,0,0,0-2.6.5,1.27,1.27,0,0,1-1.8,0v-.6l.8-.6Z"/><path d="M604.5,523.9l3.8-.1.2.3-.1.4h-1.3l-2.5-.1A.75.75,0,0,1,604.5,523.9Z"/><path d="M610.8,525.1c-1.3,1.7.2,4-1.3,5.6a6.35,6.35,0,0,1,0-5.7A1.21,1.21,0,0,1,610.8,525.1Z"/><path d="M610.8,525.1h-1.3a1.22,1.22,0,0,1-1.2-.6l-.1-.2a3.44,3.44,0,0,1,2.6-.5h.6a.82.82,0,0,1,0,1.2h0Z"/><path d="M609.6,521.8h-2.7l-1.8-.6c.2-.2.5-.4.7-.6l3.2.1C609.4,521,609.7,521.3,609.6,521.8Z"/><path d="M612.7,520.6l-1.2-.5c.3-2.1-1-4.5,1.2-6.3,1.2,2.2.6,4.6.6,6.9C613,521,612.8,521,612.7,520.6Z"/><path d="M612.7,513.8c-1.3,1.9,0,4.3-1.2,6.3a7.32,7.32,0,0,1,0-6.3Z"/><path d="M612.7,520.6l.6.1a4.88,4.88,0,0,1,.3.7l-4,.4-.6-1Z"/><path d="M662.4,609.5c-.9,1-2.1.4-3.1.6v-.7Z"/><path d="M608.9,520.1v-5.6a3.55,3.55,0,0,1,.5,5.1Z"/><path d="M615.9,525.2l-1.3.7a2.25,2.25,0,0,1-1.8-.2c-.7-.5-1.4-.9-.6-1.8h-.1c1.3-.6,2.7-.2,4.1-.3.8.3,1.8.2,2.3,1C618,526.1,616.9,525.6,615.9,525.2Z"/><path d="M613.3,525.2l1.3.6v.5c-1.5,1.4.3,3.6-1.3,5C611.6,529.3,611.6,527.7,613.3,525.2Z"/><path d="M618.4,525.7c-1,1.1-.1,2.8-1.3,3.8-1.8-1-1.3-2.4-.6-3.8A1.65,1.65,0,0,1,618.4,525.7Z"/><path d="M618.4,525.7h-1.9l-.6-.5c.8-.2,1.8,0,2.5-.7.4-.4.8-.4,1.2.1a1.15,1.15,0,0,1-.6,1.1Z"/><path d="M619,521.4l.6-.2,3.8.2v.5C622,521.8,620.4,522.5,619,521.4Z"/><path d="M613.3,525.2c-.7,2-1.1,4.1,0,6.2h-1.9c-.8-2.1.4-4.2,0-6.3v-1.2h.7C612,524.8,612.6,525.1,613.3,525.2Z"/><path d="M616.5,524l-4.5-.1c1.3-1.2,3-.4,4.4-.7l2.6.1a.76.76,0,0,1-.2.5A2.33,2.33,0,0,1,616.5,524Z"/><path d="M622.1,523.1l-3.1.2C620,522.2,621,522.4,622.1,523.1Z"/><path d="M614.6,521.9h1.8l.8.4-.7.3C615.8,522.6,615,522.7,614.6,521.9Z"/><path d="M616.5,524l2.3-.2,1.3.5-.6.3-1.2-.1C617.8,524.4,617,524.6,616.5,524Z"/><path d="M610.8,523.9c-.7.8-1.7.6-2.6.5v-.5a1.58,1.58,0,0,1,2.2-.3C610.6,523.6,610.7,523.7,610.8,523.9Z"/><circle class="cls-4" cx="611.3" cy="522.5" r="12.1"/></svg>