<?xml version="1.0" encoding="utf-8"?>
<!-- Generator: Adobe Illustrator 26.0.1, SVG Export Plug-In . SVG Version: 6.00 Build 0)  -->
<svg version="1.1" id="Layer_1" xmlns="http://www.w3.org/2000/svg" xmlns:xlink="http://www.w3.org/1999/xlink" x="0px" y="0px"
	 viewBox="0 0 1080 1080" style="enable-background:new 0 0 1080 1080;" xml:space="preserve">
<style type="text/css">
	.st0{fill:#006650;}
	.st1{font-family:'Poppins-Medium';}
	.st2{font-size:24.97px;}
	.st3{letter-spacing:4;}
	.st4{fill:#F0C507;}
	.st5{fill:#D91A5D;}
	.st6{fill:#0099D2;}
	.st7{fill-rule:evenodd;clip-rule:evenodd;fill:#F5AB35;}
	.st8{fill-rule:evenodd;clip-rule:evenodd;}
	.st9{fill:#332C2B;}
	.st10{fill-rule:evenodd;clip-rule:evenodd;fill:#F1892D;}
	.st11{fill-rule:evenodd;clip-rule:evenodd;fill:#FDE3A7;}
	.st12{fill-rule:evenodd;clip-rule:evenodd;fill:#CF5019;}
	.st13{fill-rule:evenodd;clip-rule:evenodd;fill:#C86400;}
</style>
<g>
	<text transform="matrix(1 0 0 1 341.577 742.95)" class="st0 st1 st2 st3">DEDICATED </text>
	<text transform="matrix(1 0 0 1 534.707 742.95)" class="st1 st2 st3">TO</text>
	<text transform="matrix(1 0 0 1 578.357 742.95)" class="st4 st1 st2 st3"> </text>
	<text transform="matrix(1 0 0 1 589.847 742.95)" class="st5 st1 st2 st3">HAPPINESS</text>
	<path class="st6" d="M320.6,657.9l-0.5,45.1h23.4v5.4l-22.9,0.1h-8.1v-25.2l-6.6,17.3h-4.7l-6.6-17.3v25.2h-8.1v-50.5h4.7l12.4,28
		l12.4-28H320.6z M381.1,657.9l-0.5,45.1h23.4v5.4l-22.9,0.1h-8.1v-25.2l-6.6,17.3h-4.7l-6.6-17.3v25.2h-8.1v-50.6h4.7l12.4,28
		l12.4-28H381.1z"/>
	<path class="st6" d="M332.2,664.2v10.1h7.3v6.3h-7.3v11.2h10.6v6.3h-17.1v-40.2h17.1v6.3L332.2,664.2z"/>
	<path class="st6" d="M513.6,664.2v10.1h7.3v6.3h-7.3v11.2h10.6v6.3h-17.1v-40.2h17.1v6.3L513.6,664.2z"/>
	<path class="st6" d="M395.4,698.7c-5,0.4-9.3-3.3-9.7-8.3c0-0.5,0-1,0-1.5v-21.2c-0.3-5.3,3.8-9.9,9.1-10.2
		c5.3-0.3,9.9,3.8,10.2,9.1c0,0.4,0,0.7,0,1.1v21.2c0.5,4.9-3.2,9.3-8.1,9.8C396.4,698.7,395.9,698.7,395.4,698.7z M395.4,664.2
		c-0.9-0.1-1.7,0.2-2.4,0.7c-0.7,0.8-1,1.8-0.9,2.8v21.2c-0.1,1,0.2,2.1,0.9,2.8c0.7,0.5,1.5,0.8,2.4,0.7c0.9,0.1,1.7-0.2,2.4-0.7
		c0.7-0.8,1-1.8,0.9-2.8v-21.2c0.1-1-0.2-2.1-0.9-2.8C397.1,664.3,396.3,664.1,395.4,664.2z"/>
	<path class="st6" d="M434.3,708.5h-2.9c-3.1,0-5.8-2.1-6.5-5.2l-3.1-15.1h-3.7v20.3h-8.1v-50.5h12.3c3.1-0.1,6.2,0.9,8.6,3
		c2.5,2.2,3.7,5.4,3.7,9.4v5.4c0,4.1-1.2,7.2-3.7,9.5c-0.4,0.4-0.8,0.7-1.2,0.9l2.8,13.3c0.5,2.1,2.4,3.7,4.6,3.6l26-0.1v5.4
		L434.3,708.5z M426.4,670.3c0.1-1.3-0.3-2.6-1.1-3.6c-0.9-0.6-1.9-1-3-0.9h-4.1v14.4h4.1c1.1,0.1,2.1-0.2,3-0.9
		c0.7-0.7,1.1-1.9,1.1-3.6V670.3z"/>
	<path class="st6" d="M451.6,692.7H444l-1.2,6.5H436l8.5-41.3h6.6l8.4,41.3h-6.8L451.6,692.7z M450.5,686.2l-2.7-14.8l-2.7,14.8
		H450.5z"/>
	<path class="st6" d="M479.9,708.5h-12.3v-50.5h11.2c3.1-0.1,6.1,0.9,8.5,2.8c1.3,1.1,2.2,2.4,2.8,4c0.7,1.7,1,3.5,1,5.3v4.7
		c0,3.4-1,6-3,7.8c2.7,1.9,4.1,4.9,4.1,9.1v4.6c0,1.8-0.3,3.6-1,5.3c-0.6,1.6-1.6,2.9-2.8,4C486,707.5,483,708.6,479.9,708.5z
		 M475.7,679.3h3c1.1,0.1,2.1-0.2,3-0.9c0.8-1,1.2-2.3,1.1-3.6v-4.7c0.5-1.9-0.6-3.8-2.5-4.2c-0.5-0.1-1.1-0.2-1.7,0h-3L475.7,679.3
		z M475.7,700.5h4.1c1.1,0.1,2.2-0.2,3.1-0.8c0.8-0.9,1.1-2.2,1-3.4v-4.6c0-1.7-0.4-2.9-1.1-3.6c-0.9-0.6-1.9-1-3-0.9h-4.1
		L475.7,700.5z"/>
	<path class="st6" d="M527.6,708.5h-31.9v-50.5h7V703h25L527.6,708.5z"/>
	<path d="M558.1,708.4h-11.6v-50.5h11.6c3-0.1,5.9,1,8.1,3c2.3,2.2,3.5,5.3,3.5,9.4v26c0,1.8-0.3,3.6-0.8,5.3
		c-0.6,1.5-1.5,2.9-2.7,4C564,707.5,561.1,708.6,558.1,708.4z M554.2,700.5h3.9c1,0.1,2.1-0.2,2.9-0.8c0.7-0.6,1-1.7,1-3.4v-26
		c0.1-1.3-0.2-2.6-1-3.6c-0.8-0.6-1.8-1-2.9-0.9h-3.9L554.2,700.5z"/>
	<path d="M582.4,665.9v12.7h8.7v7.9h-8.7v14H595v7.9h-20.3v-50.5H595v7.9H582.4z"/>
	<path d="M610.2,709c-3,0.1-5.9-1-8.1-3c-2.3-2.3-3.5-5.4-3.5-9.4V690h7.7v6.6c0,1.7,0.3,2.9,1,3.6c0.8,0.7,1.8,1,2.9,0.9
		c1,0.1,2.1-0.2,2.9-0.9c0.7-0.6,1-1.8,1-3.6v-3.2c0-2.2-0.9-4.3-2.6-5.8c-0.9-0.7-1.9-1.3-2.9-1.9c-1.7-0.9-3.3-1.9-4.8-3.2
		c-1.6-1.5-2.9-3.3-3.8-5.3c-0.9-2-1.3-4.2-1.3-6.3v-1.2c0-4,1.2-7.2,3.5-9.5c4.7-3.9,11.5-3.9,16.2,0c2.3,2.3,3.5,5.5,3.5,9.5v4.4
		h-7.7v-4.4c0-1.8-0.4-3-1-3.6c-0.8-0.7-1.8-1-2.9-0.9c-1-0.1-2.1,0.2-2.9,0.9c-0.8,1-1.2,2.3-1,3.6v1.3c0,2.2,0.9,4.3,2.6,5.7
		c0.9,0.6,1.8,1.2,2.7,1.7c1.8,0.9,3.5,2,5,3.3c3.4,2.9,5.2,7.2,5.2,11.7v3.2c0,4-1.2,7.1-3.5,9.4
		C616.1,708.1,613.2,709.1,610.2,709z"/>
	<path d="M647.5,665.9h-7.8v42.5H632v-42.5h-7.8v-7.9h23.4V665.9z"/>
	<path d="M658.7,708.4H651v-50.5h7.7V708.4z"/>
	<path d="M687.9,708.4h-4.5l-11.8-25.6v25.6H664v-50.5h4.5l11.8,25.5v-25.5h7.7V708.4z"/>
	<path d="M709.3,700.4h-8.8l-1.4,8h-7.8l9.8-50.5h7.7l9.8,50.5h-7.8L709.3,700.4z M708,692.5l-3.1-18.1l-3.1,18.1H708z"/>
	<path d="M740.8,665.9H733v42.5h-7.7v-42.5h-7.8v-7.9h23.3V665.9z"/>
	<path d="M751.9,708.4h-7.7v-50.5h7.7V708.4z"/>
	<path d="M768.5,709c-3,0.1-5.9-1-8.1-3c-2.3-2.3-3.5-5.4-3.5-9.4v-26.8c0-4,1.2-7.1,3.5-9.5c4.7-3.9,11.5-3.9,16.2,0
		c2.3,2.3,3.5,5.5,3.5,9.5v26.8c0,4-1.2,7.1-3.5,9.4C774.4,708.1,771.5,709.1,768.5,709z M768.5,665.3c-1-0.1-2.1,0.2-2.9,0.9
		c-0.8,1-1.2,2.3-1,3.6v26.8c0,1.7,0.4,2.9,1,3.6c0.8,0.7,1.8,1,2.9,0.9c1,0.1,2.1-0.2,2.9-0.9c0.7-0.6,1-1.8,1-3.6v-26.8
		c0-1.8-0.3-3-1-3.6C770.5,665.5,769.5,665.2,768.5,665.3z"/>
	<path d="M808.7,708.4h-4.5l-11.7-25.6v25.6h-7.7v-50.5h4.5l11.8,25.5v-25.5h7.7V708.4z"/>
</g>
<g>
	<path class="st7" d="M472,331.5c10.3,0,20.4,3.2,28.8,9.3l-24.6,3.6l29.5,0.5c19.7,18.6,20.7,49.7,2.1,69.4
		c-18.6,19.7-49.7,20.7-69.4,2.1c-14.1-13.3-19.1-33.7-12.7-52l21.8-4.3h-20.1c2.5-5.4,6-10.3,10.2-14.5l23.8-3.3l-19.8-0.3
		C450.3,335.2,461,331.5,472,331.5z"/>
	<path class="st8" d="M479.8,463.5c30.8,0,55.7,1.2,55.7,2.8s-24.9,2.8-55.7,2.8s-55.7-1.2-55.7-2.8S449.1,463.5,479.8,463.5z"/>
	<path class="st9" d="M510.6,377.1c14.5,1.8,16.1,11.4,17.9,22c0.9,5.4,1.8,11.2,5,15.9c0.3,0,0.5,0,0.8,0c4,0,7.4,2.8,8.1,6.7
		c-1.3,0.8-2.8,1.2-4.3,1.2c-1.7,0-3.3-0.5-4.7-1.5l-0.1,0.1c-0.3-0.3-0.6-0.6-0.9-0.9c-0.3-0.3-0.6-0.6-0.8-0.9
		c-11.3-13.1-5.1-30.3-20-32.4L510.6,377.1L510.6,377.1z"/>
	<path class="st10" d="M493.8,395.9c0,0,5,14.8,15.2,21c-2.5,0.3-5,0-7.3-1c4.1,6.7,9.7,11.3,19.9,20.4c-2.4-3.4-10.5-14.4-6.2-38.1
		c0-1.6,1.2-16.7-18.9-25.3l-0.4-0.2l-0.2-0.4c0,0-7.4-13.1-19.7-13.3c-8.8-0.2-17.5,5.6-20.5,14l-1.1-3.5
		c-9.6,2.6-16.4,15.3-17.5,22.1l-2-5.2c-6.2,0-19.4-3.4-18.2-32.7c-0.1-1.1-2-12.2-21.6-4.2l-0.3,0.1h-0.3c0,0-9.9,0-9.1,5.4
		c1.8,1.2,4.1,1.6,6.2,1.1l0.8-0.1l0.5,0.5c4.4,4.3,9.7,2.2,14.6,0.7l-3.4,5.5c0,0.1-7.5,36.5,32,41.8c-0.4-1.7-0.8-3.5-1.1-5.3
		c3.3,3.5,6.2,6.6,8.7,9.8c4.2,5.2,7.5,11,10,17.2c-2.9-7.4-5.4-21.5-0.2-27.9c-0.2,5.3,0.2,10.5,1,15.7c0-4.8,1-10.7,4-18.7l1,9.4
		c0.1,0,18,6.5,30.6,1.5l3.7-10.4L493.8,395.9z"/>
	<path d="M513.6,388.4c-2.1-5.1-6.9-11.2-17.1-15.6l-0.4-0.2l-0.2-0.4c0,0-7.4-13.1-19.7-13.3c-8.8-0.2-17.5,5.6-20.5,14l-1.1-3.5
		c-9.6,2.6-16.4,15.3-17.5,22.1l-2-5.2c-6.2,0-19.4-3.4-18.2-32.7c-0.1-1.1-2-12.2-21.6-4.2l-0.3,0.1h-0.3c0,0-9.9,0-9.1,5.4
		c1.8,1.2,4.1,1.6,6.2,1.1l0.8-0.1l0.5,0.5c4.4,4.3,9.7,2.2,14.6,0.7l-2.7,4.4l0,0c0,0-9,33.6,30.3,37.7c1.9,2,3.6,3.8,5.2,5.7
		l8.8,9.5c0,0-2.6-9.6,4.4-15.8l0.1-0.2v0c1.5-1.3,3.2-2.3,5-3l3.8,4.9c0,0,8.7,3.1,24.7,1.9l6.9-6.3c0,0,6.2,13.4,17.7,18.5
		C511.6,414.5,516.3,395.5,513.6,388.4L513.6,388.4z M501.4,465l0.1,0.5H490c0.9-2.3,3-4,5.5-4.2c0-8.5,4-15-2.4-23.5
		c-10.6-9.3-15.6-16.9-17.9-21.5c-4.9-0.4-9.8-1.1-14.6-2.2c-1.1,1.5-1.8,3.4-1.9,5.3c4.1,13.4,3.6,31.6,2,46.1h-12.6
		c0.9-2.4,3.3-4,5.9-3.8c0.3,0,0.5,0.1,0.8,0.1v-0.2c1.9-13.5-2.3-28.4-8.9-40.1c3.2,15.8-0.3,37.5-1.4,44h-12.3
		c0.9-2.4,3.3-4,5.9-3.8c0.3,0,0.5,0.1,0.8,0.1c3.8-17.8-3.8-41.8-14.1-54.7l0,0c-27.5-8.9-25.4-37.1-24.2-45.1
		c-3.3,0.1-6.6-0.9-9.2-3c-3,0.4-6-0.4-8.4-2.2l-0.4-0.3l-0.1-0.5c-2.2-8.9,9.6-9.6,11.7-9.7c24.2-9.7,25.6,6.9,25.6,7v0.2
		c-1.2,29.9,12.7,28.8,16,28.1c4.7-11.3,17.4-15.5,19.7-16.2c24.1-23.1,41.1-0.4,43.4,2.9c22.6,9.9,22,29.4,22,29.5v0.1v0.1
		c-2.5,13.3-0.2,32.1,8.4,43.2c-2,7.3-3.6,16.2-2.4,23.7l0.1,0.5h-11.5c0.7-2.3,2.6-3.9,5-4.2c0-8.5,1.6-17.3-4.9-24.2
		c-5.5-3.8-10.6-8.2-15.2-13.2c0.7,7.1,2.5,14,5.8,19.5C504.4,448.1,500.6,460.1,501.4,465L501.4,465z M457.1,436.3
		c0.1,0.2,0.1,0.4,0.2,0.6c0-0.1,0-0.2,0-0.4L457.1,436.3z"/>
	<path class="st8" d="M417.8,340c-3,0-5.8,1.6-7.3,4.1c2.4,0.5,4.5,1.9,6,3.8c2-1.6,3.1-4,3.1-6.6c0-0.4,0-0.7-0.1-1.1
		C419,340.1,418.4,340,417.8,340L417.8,340z"/>
	<path class="st11" d="M476,358.9c-8.8-0.2-17.5,5.6-20.5,14l-1.1-3.5c-9.6,2.6-16.4,15.3-17.5,22.1c0,0,5.8-13.5,16.2-17.3l2.7,2.4
		c0,0,2.4-8.1,10.5-9.8c5.5,8.6,21.6,1.7,28.4,6.1c0,0,6.8,4.6,15.4,9.6c-2.8-3.5-7.1-6.9-13.6-9.7l-0.7-0.6
		C495.8,372.2,488.4,359.2,476,358.9L476,358.9z"/>
	<path class="st11" d="M434.9,386.3c-6.2,0-19.4-3.4-18.2-32.7c-0.1-1.1-2-12.2-21.6-4.2c0,0,4.8,1.8,13.5-0.1c0,0,5.6,0,6,4.5
		s-5.3,30.7,19.5,34l2.9,3.7L434.9,386.3z"/>
	<path class="st12" d="M392.9,356.4c4.4,4.3,9.7,2.2,14.6,0.7c-12.2,3-14.8-4-14.8-4c-2,3.6-7.4,1.8-7.4,1.8
		c1.8,1.2,4.1,1.6,6.2,1.1l0.8-0.1L392.9,356.4z"/>
	<path class="st13" d="M437.6,394.9c-39.5-5.3-30.1-37.9-30.1-37.9l-2.7,4.4c0,0-9,33.6,30.3,37.7c1.9,2,3.6,3.8,5.2,5.7l0,0
		l8.8,9.5c0,0-2.6-9.6,4.3-15.8l0.1-0.2v0c1.5-1.3,3.2-2.3,5-3l3.8,4.9c0,0,8.7,3.1,24.7,1.9l6.9-6.3l-5.9,1.8h-22.3
		c-1.1-1.8-1.8-3.8-1.9-5.9c-15.1,0.7-18.7,11-18.7,11L437.6,394.9L437.6,394.9z"/>
	<path class="st13" d="M493.8,395.9c0,0,6.2,13.4,17.7,18.5c1.4-5.7,2.3-11.5,2.8-17.3C508,409.4,493.8,395.9,493.8,395.9z"/>
	<path class="st6" d="M673,322.5h-67.7c-22,0-39.9,17.9-39.9,39.9v67.7c0,22,17.9,39.9,39.9,39.9H673c22,0,39.9-17.9,39.9-39.9
		v-67.7C712.9,340.4,695,322.5,673,322.5L673,322.5z M680.4,389c0.8-0.8,1.9-1.2,3-1.2c2.2,0.1,4,1.9,4,4.1c0,1.1-0.4,2.2-1.3,3
		l-5,4.6l2,11.5l1.1-1.1c0.8-0.8,1.9-1.2,3-1.2c2.2,0.1,3.9,1.9,3.9,4.1c0,1.1-0.4,2.2-1.3,3l-5.2,4.8l3.6,21c0.2,1.9-0.4,3.7-1.8,5
		l-5.3,5.1l-18.6-43.9l-11.3-14.4c-6.9,6.2-19.7,17.5-29.3,24.1l3.4,18.3c0.2,1.3-0.3,2.5-1.2,3.4l-4.4,4.3c-0.2,0.3-0.7,0.4-1,0.2
		c-0.1,0-0.1-0.1-0.2-0.2l-8.7-16.3c-0.2-0.4-0.1-0.8,0.2-1.1l0.8-1.1c0.2-0.3,0.3-0.7,0.2-1l-0.1-0.2c-1.8,1.6-3.7,3.2-5.7,4.6
		c1.5-1.9,3.1-3.8,4.8-5.6l-0.2-0.1c-0.4-0.1-0.8-0.1-1,0.2l-1.1,0.8c-0.3,0.3-0.8,0.3-1.1,0.1l-16.1-9.1c-0.3-0.2-0.4-0.7-0.2-1
		c0-0.1,0.1-0.1,0.2-0.2l4.4-4.3c0.9-0.9,2.2-1.4,3.4-1.1l18.2,4c6.9-9.5,18.5-22,24.9-28.7L627,371l-43.3-19.8l5.3-5.2
		c1.3-1.3,3.2-2,5-1.7l20.8,4.2l4.9-5c0.8-0.8,1.9-1.2,3-1.2c2.2,0.1,4,1.9,4,4.1l0,0c0,1.1-0.4,2.2-1.3,3l-1.2,1.1l11.4,2.3
		l4.8-4.9c0.8-0.8,1.9-1.2,3-1.2c2.2,0.1,3.9,1.9,4,4.1l0,0c0,1.1-0.4,2.2-1.3,3l-1,0.9l20.7,4.2l8.2-7.9
		c15.2-14.8,19.5-8.7,19.5-8.7s5.9,4.5-9.3,19.2l-8.3,8l3.5,20.5L680.4,389z"/>
	<g>
		<path class="st5" d="M531.2,583.8L531.2,583.8c0.2,0,0.2,0,0.3,0C531.4,583.8,531.4,583.8,531.2,583.8L531.2,583.8z"/>
		<path class="st5" d="M531.4,583.4c0.1,0,0.1,0,0.2,0C531.5,583.4,531.5,583.4,531.4,583.4z"/>
		<path class="st5" d="M531.4,583.4c-0.1,0-0.1,0.1-0.2,0.1C531.3,583.4,531.3,583.4,531.4,583.4z"/>
		<path class="st5" d="M528.3,583.1c0.1,0,0.1,0,0.2,0c0,0,0.1,0,0.2,0c0,0-0.1,0-0.2,0C528.4,583.1,528.3,583.1,528.3,583.1z"/>
		<path class="st5" d="M531.1,583.7C531.1,583.7,531.1,583.7,531.1,583.7C531,583.7,531,583.6,531.1,583.7
			C531.1,583.6,531.1,583.6,531.1,583.7z"/>
		<path class="st5" d="M532.7,583.9c0,0,0-0.1,0-0.1c0-0.1,0-0.1,0.1-0.1c0,0-0.1,0.1-0.1,0.1C532.7,583.9,532.7,583.9,532.7,583.9z
			"/>
		<path class="st5" d="M529.8,583.2c0.1,0,0.2,0,0.3,0l0,0C530,583.2,529.9,583.2,529.8,583.2z"/>
		<path class="st5" d="M527.2,581.7c0.1,0.1,0.2,0.2,0.2,0.3C527.3,581.9,527.2,581.8,527.2,581.7c-0.6-0.8,0-1.6,0.4-2.3
			c0.1-0.3,0.2-0.6,0.3-0.8c-0.1,0.3-0.2,0.6-0.3,0.8C527.2,580.2,526.6,581,527.2,581.7z"/>
		<path class="st5" d="M528.2,582.5c0.4,0.2,0.8,0.3,1.2,0.3C529,582.7,528.6,582.6,528.2,582.5z"/>
		<path class="st5" d="M528.2,583.4c0,0,0-0.1,0-0.2c0,0,0,0,0,0c0,0,0.1-0.1,0.1-0.1c0,0-0.1,0-0.1,0.1
			C528.1,583.2,528.1,583.3,528.2,583.4C528.2,583.4,528.2,583.4,528.2,583.4z"/>
		<path class="st5" d="M531.9,583.2c-0.6-0.1-1.2-0.2-1.8-0.2l-0.7-0.1l0.7,0.1C530.7,583,531.3,583.1,531.9,583.2z"/>
		<path class="st5" d="M533.6,583.6c0.1,0,0.2,0.1,0.3,0.1l0.1,0.1l-0.1-0.1C533.8,583.6,533.7,583.6,533.6,583.6z"/>
		<path class="st5" d="M534.1,584c0.1-0.1,0-0.2-0.1-0.3C534.1,583.8,534.2,583.9,534.1,584z"/>
		<path class="st5" d="M527.7,577.7L527.7,577.7c0.1,0.1,0.2,0.2,0.2,0.3C527.9,577.9,527.8,577.8,527.7,577.7z"/>
		<path class="st5" d="M528.2,582.5c-0.2-0.1-0.3-0.1-0.5-0.2c-0.1-0.1-0.2-0.1-0.3-0.2c0.1,0.1,0.2,0.2,0.3,0.2
			C527.9,582.3,528.1,582.4,528.2,582.5z"/>
		<path class="st5" d="M526,579.5L526,579.5h0.1H526L526,579.5c-0.1,0-0.1-0.1-0.1-0.1C525.9,579.4,526,579.4,526,579.5z"/>
		<path class="st5" d="M526.6,579.1c-0.1-0.1-0.2-0.1-0.3-0.1C526.4,579.1,526.5,579.1,526.6,579.1z"/>
		<path class="st5" d="M525.9,579.3c0-0.1,0-0.2,0.1-0.2C525.9,579.2,525.9,579.2,525.9,579.3z"/>
		<path class="st5" d="M526.5,578.4c0-0.1,0-0.1,0.1-0.1c0,0,0.1-0.1,0.2-0.1c-0.1,0-0.1,0-0.2,0.1
			C526.5,578.3,526.5,578.3,526.5,578.4z"/>
		<path class="st5" d="M518.2,580.2C518.2,580.2,518.2,580.2,518.2,580.2C518.2,580.2,518.2,580.2,518.2,580.2z"/>
		<path class="st5" d="M518.7,580.8c-0.1,0-0.1-0.1-0.1-0.2S518.6,580.8,518.7,580.8z"/>
		<path class="st5" d="M526.7,578.6c0.1,0,0.1,0.1,0.2,0.1l0,0C526.8,578.7,526.7,578.7,526.7,578.6z"/>
		<path class="st5" d="M527.1,583L527.1,583C527.1,583,527.1,583,527.1,583C527.1,583,527.1,583,527.1,583z"/>
		<path class="st5" d="M526.9,582.9c0.1,0,0.1,0,0.2,0C527.1,582.9,527,582.9,526.9,582.9L526.9,582.9z"/>
		<path class="st5" d="M532.8,584L532.8,584h0.1c0.1,0,0.2,0,0.3,0c-0.1,0-0.2,0-0.3,0H532.8z"/>
		<path class="st5" d="M532.9,583.6l-0.2,0.1L532.9,583.6c0.1,0,0.2-0.1,0.2-0.1C533.1,583.5,533,583.5,532.9,583.6z"/>
		<path class="st5" d="M526.3,579.5c0.1,0,0.2,0,0.3,0C526.5,579.6,526.4,579.6,526.3,579.5z"/>
		<path class="st5" d="M527.5,583.2L527.5,583.2l0.1,0.1L527.5,583.2L527.5,583.2z"/>
		<path class="st5" d="M499.2,608.2c0-0.1,0-0.2,0-0.2C499.2,608,499.2,608.1,499.2,608.2z"/>
		<path class="st5" d="M499.6,604.3c0-0.1,0-0.1,0-0.2S499.6,604.3,499.6,604.3z"/>
		<path class="st5" d="M499.4,606.2c0-0.1,0-0.3,0-0.4C499.5,605.9,499.5,606,499.4,606.2z"/>
		<path class="st5" d="M499.6,604.8c0-0.1,0-0.1,0-0.2S499.6,604.7,499.6,604.8z"/>
		<path class="st5" d="M468.5,580.5L468.5,580.5l-3.1,1.3l0,0l-0.1,0.1c-0.1,0-0.2,0-0.2-0.1c-0.1,0.1-0.2,0.2-0.3,0.2l-6.9,1.4
			l-0.8,0.2l6.9,4.2c0.8,0.4,1.8,0.4,2.6-0.1l5.9-4.1c0.3-0.2,0.5-0.5,0.5-0.9c-0.1-0.3-0.3-0.6-0.6-0.8l-2.7-1.5l-0.5-0.3
			L468.5,580.5z"/>
		<path class="st5" d="M455.3,574.2c2.3,2.1,5.1,3.5,8.1,4.3c1,0.2,2,0.3,3,0.3l-1.1-0.6l-9.9-5.4l0,0L455.3,574.2L455.3,574.2z"/>
		<polygon class="st5" points="448.4,584.8 455.3,583.4 453.1,582 		"/>
		<polygon class="st5" points="452.5,581.6 447.3,578.5 446.6,585 452.5,581.6 		"/>
		<path class="st5" d="M457.5,582.4c-0.4-0.1-0.9-0.2-1.3-0.3c-0.7-0.2-1.4-0.4-2.1-0.7l-0.3,0.2l2.1,1.4l0.3,0.2l1-0.2l1.8-0.4
			C458.5,582.6,458,582.5,457.5,582.4z"/>
		<path class="st5" d="M453.4,581.1c-2.1-1.1-4.1-2.4-5.9-4.1l0,0c0,0,0,0.1,0,0.1l-0.1,0.6l5.7,3.5L453.4,581.1L453.4,581.1z"/>
		<path class="st5" d="M447,576.8c0.1,0,0.2,0,0.2,0l0,0c-1.2-1.2-2.4-2.4-3.5-3.7c0,0-0.1-0.1-0.1-0.2l0,0c-0.5,0.1-1,0.4-1.2,0.9
			c-0.1,0.4,0.1,0.8,0.5,1l3.6,2.2l0,0l0,0C446.5,576.9,446.8,576.8,447,576.8z"/>
		<path class="st5" d="M454.3,573.3l0.1-1.1l0,0l-1.5-0.8c-0.3-0.1-0.6-0.2-0.9-0.2C452.6,571.8,453.4,572.5,454.3,573.3
			L454.3,573.3z"/>
		<path class="st5" d="M499.4,606.8c0-0.2,0-0.3,0-0.5C499.4,606.5,499.4,606.6,499.4,606.8z"/>
		<path class="st5" d="M527.9,578c0,0.2,0,0.4,0,0.5C527.9,578.4,527.9,578.2,527.9,578z"/>
		<polygon class="st5" points="498.9,518.8 498.9,518.8 498.9,518.8 		"/>
		<path class="st5" d="M499.3,607.3c0-0.1,0-0.2,0-0.3C499.4,607.1,499.3,607.2,499.3,607.3z"/>
		<polygon class="st5" points="526.6,589.3 526.6,589.3 526.6,589.3 		"/>
		<path class="st5" d="M474.2,516.9C474.3,516.9,474.3,516.9,474.2,516.9c0,0.1,0,0.1,0,0.1c0,0,0,0.1,0,0.1c0,0.2,0,0.3,0,0.5
			c0,0.2-0.1,0.3-0.1,0.5c-0.1,0.2-0.1,0.3-0.2,0.4v0.1c0.7-0.9,0.4-1.9,0.1-3c0-0.1-0.1-0.3-0.1-0.4v0.2c0,0,0,0,0,0l0,0
			c0,0.1,0,0.2,0,0.3c0.1,0.2,0.2,0.5,0.3,0.8L474.2,516.9z"/>
		<path class="st5" d="M499,608.5c0-0.1,0-0.1,0.1-0.2C499.1,608.4,499.1,608.5,499,608.5z"/>
		<path class="st5" d="M517.4,580.3c0,0.1,0,0.1,0.1,0.2C517.4,580.4,517.4,580.3,517.4,580.3z"/>
		<path class="st5" d="M499.2,607.7c0-0.1,0-0.2,0-0.3C499.3,607.5,499.3,607.7,499.2,607.7z"/>
		<path class="st5" d="M498.6,609.2c0,0,0.1,0,0.1-0.1l0,0C498.7,609.2,498.6,609.2,498.6,609.2z"/>
		<path class="st5" d="M499,608.7l-0.1,0.2L499,608.7z"/>
		<path class="st5" d="M498.7,609.1c0.1-0.1,0.1-0.1,0.1-0.2C498.8,609,498.8,609.1,498.7,609.1z"/>
		<path class="st5" d="M499.8,603.4c0,0,0,0.1,0,0.1C499.8,603.5,499.8,603.4,499.8,603.4z"/>
		<path class="st5" d="M524.9,587c-0.1,0-0.2,0-0.2-0.1c0,0-0.1,0-0.1-0.1c0,0,0,0.1,0.1,0.1C524.7,587,524.8,587,524.9,587z"/>
		<path class="st5" d="M518.6,584.9C518.7,584.9,518.7,585,518.6,584.9C518.7,585,518.7,584.9,518.6,584.9L518.6,584.9z"/>
		<path class="st5" d="M516.1,579.2c-0.2,0-0.3,0-0.5,0C515.8,579.2,515.9,579.2,516.1,579.2z"/>
		<path class="st5" d="M518.1,585.1L518.1,585.1c0.1,0,0.2,0,0.2,0C518.3,585.1,518.2,585.1,518.1,585.1L518.1,585.1
			c-0.1,0-0.1-0.1-0.1-0.2C518,585,518,585.1,518.1,585.1z"/>
		<path class="st5" d="M524.3,581.3c-0.2,0.2-0.4,0.4-0.6,0.5C523.9,581.7,524.1,581.5,524.3,581.3z"/>
		<path class="st5" d="M526.1,588.9c0.1,0,0.1-0.1,0.1-0.2C526.2,588.8,526.2,588.9,526.1,588.9z"/>
		<path class="st5" d="M525.2,589L525.2,589L525.2,589c0.1,0,0.1,0,0.2,0C525.3,589,525.3,589,525.2,589z"/>
		<path class="st5" d="M525.2,588.8C525.2,588.8,525.2,588.8,525.2,588.8c0,0.1,0,0.1,0,0.2C525.2,588.9,525.2,588.9,525.2,588.8
			C525.2,588.8,525.2,588.8,525.2,588.8z"/>
		<path class="st5" d="M525.7,588.5c-0.1,0-0.2,0-0.3,0l-0.2,0.1l0.2-0.1C525.5,588.6,525.6,588.5,525.7,588.5z"/>
		<path class="st5" d="M523.8,584.4c0.1,0.1,0.1,0.2,0.2,0.3C523.9,584.6,523.8,584.5,523.8,584.4c-0.1-0.2-0.3-0.3-0.4-0.4
			C523.5,584.1,523.7,584.2,523.8,584.4z"/>
		<path class="st5" d="M521.6,583.4l-0.3,0.1l-0.4,0.2l0.4-0.2L521.6,583.4z"/>
		<path class="st5" d="M524.7,581.1c-0.1,0.1-0.3,0.2-0.4,0.3C524.4,581.2,524.5,581.1,524.7,581.1z"/>
		<path class="st5" d="M524.8,580.9C524.8,580.9,524.8,581,524.8,580.9C524.8,581,524.8,580.9,524.8,580.9
			C524.8,580.9,524.9,580.8,524.8,580.9C524.9,580.8,524.8,580.9,524.8,580.9z"/>
		<path class="st5" d="M525,580.8c0.1,0,0.2,0,0.2,0C525.2,580.8,525.1,580.8,525,580.8z"/>
		<path class="st5" d="M526.4,584.8l0.1-0.1L526.4,584.8c-0.3,0.3-0.5,0.7-0.5,1.1C525.9,585.5,526.1,585.1,526.4,584.8z"/>
		<path class="st5" d="M518.6,585.6c-0.5,0.2-1,0.3-1.5,0.5C517.6,586,518.1,585.8,518.6,585.6z"/>
		<path class="st5" d="M515.3,586.3L515.3,586.3c-0.2,0-0.2-0.1-0.3-0.2C515.1,586.2,515.2,586.3,515.3,586.3L515.3,586.3z"/>
		<path class="st5" d="M525.9,586c0,0.2,0,0.5,0.1,0.7c0.1,0.7,0.3,1.3,0.4,2c0,0.1,0,0.1,0,0.2c0-0.1,0-0.1,0-0.2
			c-0.1-0.7-0.3-1.3-0.4-2C525.9,586.5,525.9,586.2,525.9,586z"/>
		<path class="st5" d="M521.9,583c-0.1,0.1-0.2,0.3-0.4,0.3C521.7,583.3,521.8,583.1,521.9,583z"/>
		<path class="st5" d="M515.6,586.4c0.1,0,0.2,0,0.2,0c0.1,0,0.1-0.1,0.2-0.1c0,0.1-0.1,0.1-0.2,0.1
			C515.8,586.4,515.7,586.4,515.6,586.4z"/>
		<path class="st5" d="M527.2,577.7l-0.2,0.1c-0.6,0.3-1.1,0.7-1.6,1.2c0.5-0.5,1-0.9,1.6-1.2L527.2,577.7z"/>
		<path class="st5" d="M515.4,579.4C515.4,579.4,515.5,579.4,515.4,579.4C515.5,579.3,515.4,579.3,515.4,579.4
			S515.4,579.4,515.4,579.4S515.4,579.4,515.4,579.4z"/>
		<path class="st5" d="M518.4,583.9c-0.1,0.1-0.3,0.2-0.5,0.3C518.1,584.1,518.3,584,518.4,583.9z"/>
		<path class="st5" d="M525.4,579.1l-0.5,0.4c-0.2,0.2-0.3,0.3-0.5,0.4c0.2-0.1,0.4-0.3,0.5-0.4L525.4,579.1z"/>
		<path class="st5" d="M516.6,585.5c0,0,0.1,0.1,0.1,0.1c0,0,0.1,0.1,0.2,0.1c-0.1,0-0.1,0-0.2-0.1
			C516.7,585.6,516.7,585.6,516.6,585.5z"/>
		<path class="st5" d="M517.5,585.4C517.5,585.5,517.5,585.5,517.5,585.4L517.5,585.4C517.5,585.5,517.5,585.5,517.5,585.4z"/>
		<path class="st5" d="M517.6,584.4l-0.2,0.1c-0.5,0.2-1,0.5-1.5,0.7c0.5-0.2,1-0.5,1.5-0.7L517.6,584.4z"/>
		<path class="st5" d="M522,582.3C522,582.3,522,582.2,522,582.3C522,582.2,522,582.3,522,582.3z"/>
		<path class="st5" d="M521.6,582.3c0.2,0.1,0.3,0.3,0.4,0.5c0,0.1,0,0.1-0.1,0.2c0-0.1,0.1-0.1,0.1-0.2
			C522,582.6,521.8,582.5,521.6,582.3z"/>
		<path class="st5" d="M525,586.6c0.1,0,0.2,0,0.2,0l0,0C525.2,586.6,525.1,586.6,525,586.6z"/>
		<path class="st5" d="M525.3,586.8c0,0.1-0.1,0.1-0.2,0.1C525.2,586.9,525.3,586.9,525.3,586.8z"/>
		<path class="st5" d="M520.6,581.6L520.6,581.6L520.6,581.6c0,0,0.1-0.1,0.2-0.1C520.7,581.5,520.6,581.5,520.6,581.6z"/>
		<path class="st5" d="M521,581.5L521,581.5c0.1,0,0.2,0.1,0.3,0.1l0,0C521.2,581.6,521.1,581.5,521,581.5z"/>
		<path class="st5" d="M524.4,584.8c0.1,0,0.2,0,0.3,0C524.6,584.7,524.5,584.7,524.4,584.8z"/>
		<path class="st5" d="M521,581.6c0.1,0,0.2,0,0.3,0l0,0C521.2,581.6,521.1,581.6,521,581.6z"/>
		<path class="st5" d="M524.8,585.1L524.8,585.1c0-0.1,0-0.1,0-0.2C524.8,585,524.8,585.1,524.8,585.1z"/>
		<path class="st5" d="M517,579.5C517.1,579.6,517.1,579.6,517,579.5c0.1,0.1,0.1,0.1,0.1,0.2C517.2,579.7,517.2,579.7,517,579.5
			C517.1,579.6,517.1,579.6,517,579.5z"/>
		<path class="st5" d="M516.2,579.7c0,0.1,0,0.1,0.1,0.2C516.2,579.9,516.2,579.8,516.2,579.7z"/>
		<path class="st5" d="M517.7,580.1c-0.1,0-0.3,0.1-0.3,0.2S517.5,580.1,517.7,580.1z"/>
		<path class="st5" d="M519.2,580.6L519.2,580.6C519.2,580.6,519.3,580.6,519.2,580.6C519.3,580.6,519.2,580.6,519.2,580.6z"/>
		<path class="st5" d="M516.1,579.2h0.3c0.3,0,0.5,0.1,0.8,0.2c-0.2-0.1-0.5-0.1-0.8-0.2H516.1z"/>
		<path class="st5" d="M519.2,580.2c-0.7-0.3-1.3-0.6-2.1-0.8C517.8,579.6,518.5,579.9,519.2,580.2z"/>
		<path class="st5" d="M522.2,580.8c-0.5,0-1.1,0-1.6-0.1C521.2,580.8,521.7,580.8,522.2,580.8z"/>
		<path class="st5" d="M524.8,585.1L524.8,585.1c0,0,0,0.1,0,0.1C524.8,585.2,524.8,585.2,524.8,585.1z"/>
		<path class="st5" d="M520.1,581.1c0.1,0,0.1,0,0.2,0l0,0C520.3,581.1,520.2,581.1,520.1,581.1z"/>
		<path class="st5" d="M520.1,581.1h-0.2c0,0-0.1,0.1-0.1,0.1c0,0,0-0.1,0.1-0.1H520.1z"/>
		<path class="st5" d="M519.4,584.6c0.1,0,0.1,0.1,0.2,0.1C519.6,584.6,519.5,584.6,519.4,584.6L519.4,584.6c-0.1-0.1-0.1-0.2,0-0.2
			C519.3,584.4,519.3,584.5,519.4,584.6z"/>
		<path class="st5" d="M519.6,584.3c-0.1,0-0.1,0-0.2,0C519.5,584.3,519.5,584.3,519.6,584.3z"/>
		<path class="st5" d="M520.3,584.3C520.3,584.3,520.3,584.3,520.3,584.3L520.3,584.3C520.3,584.3,520.3,584.3,520.3,584.3z"/>
		<path class="st5" d="M520,584.5L520,584.5L520,584.5L520,584.5L520,584.5z"/>
		<path class="st5" d="M521.4,581.6l0.2,0L521.4,581.6z"/>
		<path class="st5" d="M522.7,583.3c-0.1,0-0.2-0.1-0.3-0.1c-0.1,0-0.1,0-0.2,0c0.1,0,0.1,0,0.2,0
			C522.5,583.2,522.6,583.2,522.7,583.3z"/>
		<path class="st5" d="M520.4,581.2L520.4,581.2C520.4,581.2,520.4,581.2,520.4,581.2C520.4,581.2,520.4,581.2,520.4,581.2z"/>
		<path class="st5" d="M520.7,581.8L520.7,581.8L520.7,581.8c0.1,0.1,0.2,0.2,0.3,0.2C520.9,581.9,520.8,581.8,520.7,581.8z"/>
		<path class="st5" d="M521.4,582.2l-0.2-0.1L521,582l0.2,0.1L521.4,582.2z"/>
		<path class="st5" d="M517.8,580.5c-0.1,0-0.2,0-0.3-0.1l0,0C517.6,580.5,517.7,580.5,517.8,580.5z"/>
		<path class="st5" d="M547.4,580.8c-0.3-0.2-3.5-2.1-3.5-2.1s-1.8-1.4-2.1-1.8c-0.3-0.3-2.2-1.9-2.3-2l3.7,1.9c0,0,0.9,0.8,1.4,1
			c0.5,0.2,2.8,1.1,2.8,1.1l0.9,0.4v-6.3l-0.1-0.1l-7-6.1l-8.7-4.2l-0.1-0.1c0,0-2.4-1.8-4.8-3.7c-4.8-3.8-5.2-4.4-5.3-4.8
			c-0.4-0.6-2.9-3.4-5.2-5.8l7.2,12.9l-6-3.7l6,7.5l7.2,5.7l-8.2-2.2l-14.1-9.4c-0.9-0.6-1.9-1.1-2.9-1.4l-3.5-1
			c-4-1.2-7.7-3.5-10.6-6.5l-7.8-8.1l-9.5-11.9l-5.4,5.2c-0.5,0.5-0.6,1.2-0.2,1.8l2,2.7l-2.7-0.5l1.8,4.8c0,0,6.9,3.5,7.6,3.7
			c-0.3,0-2.2-0.1-4-0.1c-1.5,0-2.4,1.8-1.4,3l5.5,6.6l8.7,3.2c8.4,2.8,20.6,4.2,20.6,4.2l9.3,2.8l-18.1-1.9l-6.5-0.2l4.6,4.3
			l-9.5-5.2c-2.3-1.3-4.9-1.8-7.5-1.5l-5.5,0.6l-8-4.5l-4.1-2.4l2.7,0.5l-3.2-4.4l-9-6.7l-0.3-0.2l-0.4-0.3l-0.7-0.5l2.4,6.8l2,1.8
			l-1.9-0.6l1.5,1.1l3,2.4l-3.1-1.3h-1.7l-2.5,0.4l2.8,5.7l-0.8,4.3l6.7,2l5,6.5l7.3,2.7l-8.5-0.7l-7.5-4l-5.8,0.5l-7.3-1.8
			l-8.7-3.8l-5.3-1.4c0,0,2.5,2.8,2.6,2.8c0.1,0,2.2,1.1,2.3,1.2c0,0,0.2,0.1,0.4,0.1l0,0c0.8,0.3,2.3,1.3,2.5,1.7l-4.5-1l-4.4-0.9
			l2.2,3.7c0,0,2,3.1,2.6,3.2c0.7,0.1,6.7,0.9,6.7,0.9l4.6,3.5l-4.9-0.6l-4.8-0.9c0,0-2.3,0-2.6,0c-0.3,0-4.7,0-4.7,0H419
			c0,0,4.6,1.1,5.6,1.5c1,0.4,5,1,5,1h1.8l0.9,1c0.7,0.6,3.6,0.6,4.5,1.4h-34.6v7.1c0,21.2,17.2,38.4,38.4,38.4H510
			c21.2,0,38.4-17.2,38.4-38.4v-9.5C547.9,581.2,547.5,580.9,547.4,580.8z M478.1,547.6C478.1,547.6,478.1,547.6,478.1,547.6
			C478.1,547.6,478.1,547.6,478.1,547.6z M458,583.9l-3.1-1.7l-5.1-0.6l6.1-1.1l7.3,3.3H458z M464.7,568.5l17.1,4.3l-8.8,0.3
			L464.7,568.5z M481.7,583.9l3.9-1l-0.4-1.3l-5.8-3.2c0,0,5.8,1,6.1,1.3c0.3,0.3,8.8,4.3,8.8,4.3H481.7z M517.7,583.9l-5.5-4.2
			c0,0-1.8-1.9-2.4-2.5c-0.6-0.6-6.6-3.6-6.6-3.6l-5.9-3.2l9,2.7l7.5,3.5l7,3.4l-3-3.6l10.4,4.1l0,0c0,0,0.1,0.1,0.4,0.1l0,0
			c1.5,0.5,6.6,2.3,9,3.3H517.7z"/>
		<path class="st5" d="M510,481.5h-69.5c-21.2,0-38.4,17.2-38.4,38.4v57.1l7-6.6l13.3-2.7l6.2-5.5l9-9.6c0,0,2.6-2.5,2.7-2.7
			c0.1-0.1,2-2.2,2-2.2l1.3-1.4l0.3-0.5l3.7-6.8l5.1,3.9l5.8-3.2l0.3-0.4c4.2-5.2,9.7-9.2,15.9-11.8l0.8-0.3l10.5,13.1l10.9,8.6
			l9.2-5.8l12.1,3l0.3,0.3c4.8,4.9,5.7,6.3,6,6.8c0.7,0.8,5.2,4.4,9.3,7.5l8.8,4.3l5.7,5v-49.8C548.3,498.6,531.2,481.5,510,481.5z
			 M502.4,525.2c-7.9,0-14.3-6.4-14.3-14.3c0-7.9,6.4-14.3,14.3-14.3c7.9,0,14.3,6.4,14.3,14.3C516.7,518.8,510.3,525.2,502.4,525.2
			z"/>
	</g>
	<g>
		<path class="st0" d="M693.9,561.6c2,4.3,1.8,9,2,13.6c0.9,1.7,1,3.7,0.4,5.5c-1.1,3.6-0.7,7.2-0.7,10.8c-0.1,9.7,0,19.5,0,29.2
			c-0.2,0.9-0.8,1.1-1.6,1.1c-2.2-0.6-2.3-2.5-2.4-4.3c-0.1-4.9,0-9.8,0-14.7c0-0.3,0.1-0.6,0.3-0.8c0.7-2.4-0.9-4.8-0.4-7.2
			c0.1-0.2,0.3-0.5,0.4-0.7c0.5-0.6,0.7-1.4,0.3-2.2c-0.1-0.2-0.3-0.4-0.4-0.6c-0.2-0.4,0-1-0.4-1.4l-0.8-13.9
			c0.7-2.4,0.8-4.9,0.4-7.3c-0.3-2.7-1.3-5.5,0.7-8.1c0.3-0.1,0.7-0.2,1-0.1C693.4,560.7,693.7,561.1,693.9,561.6z"/>
		<path class="st0" d="M695.3,621.4c-0.5-1-0.7-2.2-0.6-3.3c0-11.2-0.2-22.3,0.1-33.5c0.1-3.1,1.5-6.1,1.2-9.4l0.6,0.3
			c0.8,2.7-0.2,5.4,0.6,8.1c1.2,2.2,1,4.6,1.1,6.9c0,1.3-0.1,2.7,0.8,3.8c-1,3.5-0.7,7.2-0.8,10.8c-0.2,5.3,0,10.6-0.1,15.9
			c-0.2,0.7-0.7,0.8-1.3,0.9C696.2,622,695.7,621.8,695.3,621.4z"/>
		<path class="st0" d="M595,579.8l0.2-0.6c0.4-1.2,0.4-2.5,0-3.7c0.6-3-0.7-6.2,0.5-9.2c-0.6-1.7,0.2-3.5-0.5-5.3v-1.9
			c0.2-0.3,0.4-0.3,0.7,0l0.6,0.6c0.7,1.2-0.1,2.6,0.5,3.8l0.2,2.9c0.5,1.3,0,2.7,0.4,4l0.1,0.7c-0.4,1.2-0.4,2.5,0,3.8l-0.1,1.9
			c-0.4,1-0.4,2.1,0.1,3.1c-0.4,5.2-0.8,10.5-1.2,15.7c-1.8,3.9-1.7,8.1-1.6,12.2c0,1.2,0.4,2.5-0.3,3.7c-0.8,0.5-1.8,0.5-2.6,0
			c-1.2-4.4-1.3-8.9-0.5-13.3c2.1-4.8,2.4-10,3.4-15.1c0.1-0.3,0.2-0.6,0.3-0.9c0.3,0.3,0.5,0.7,0.4,1.1c0,0.3,0.1,0.7-0.2,0.8
			C595.8,582.7,595.3,581.2,595,579.8z"/>
		<path class="st0" d="M675.2,505c0.1-1.8-1-3.8,1-5.2c0.9-0.7,0.4-1.5,0.1-2.4c-0.4-1.5,1.4-1.7,1.8-2.7c0.5,0.4,0.9,1.1,0.9,1.7
			c-0.4,1.8,1.2,3.1,1.2,4.9l0.5,2.4c-1.7,2.4-1.3,7.2,0.7,9.2c0.2,0.2,0.2,0.6,0,0.8c-1.2,0-2.5,0-1.2,1.8c1.2,1.5,1.8,3.3,1.8,5.2
			c-0.3,0.8-0.7,1.6-1.8,1.2c-1-2.3-2.1-4.6-3.1-6.9c-1.8,0.4-3-0.5-2.8-2.2C674.6,510.2,674,507.5,675.2,505z"/>
		<path class="st0" d="M661.2,533.3c-2.2-2.4-3.3-5.6-3-8.8c0.1-1.2-1.3-2.4,0.1-3.7c0.2-0.2-2.3,0-1.3-1.8c0.7-1.1,2-1.9,3.3-2
			c0.5-1.9-1.6-0.2-1.8-1.2c0-1.5,1.3-1.3,2.1-1.8c2.2,0,3.3,1.6,4.5,3.1c-1.3,2-1,4.4-1.9,6.5c-1,1.9-0.2,3.9-0.4,5.8
			C662.2,530.6,663.4,532.6,661.2,533.3z"/>
		<path class="st0" d="M674.4,526.3c0,1.1,0,2.1,0,3.2c-0.6,1.6-0.1,3.1-0.2,4.7c0.2,0.4,0.7-0.1,0.3,0c-0.2,0.1-0.2,0-0.3-0.2
			c-0.1-0.8-0.3-1.6,0.3-2.3c1,4.8,1.4,9.7,3.3,14.5c-4.3-1.3-4.2-5.3-5.6-8.1c-1.3-2.5-2.7-5.4-0.8-8.6c0.9-1.5-2,0.8-1.6-1.3
			c0.3-1.5,0.7-3,1.3-4.4c0-0.5-0.4-0.9-0.6-1.3c-0.1-1.2,0.4-2.4,1.3-3.2c1.3,0.5,1.7,1.7,2.2,2.8
			C674.3,523.6,673.8,525,674.4,526.3z"/>
		<path class="st0" d="M692.8,561c-2.6,2.2-1.2,4.9-0.9,7.4c0.4,2.6,0,5.3-1.1,7.7c0.5-2.7-0.1-5.3-0.7-7.9c-0.2-0.9-1.1-1.9,0-2.8
			c1.1-0.8,0.3-1.9,0.5-2.5c0.2,0.5,0.1,1.1-0.3,1.5c-1.8-4.1-1.2-8.5-1.8-12.7c-0.2-2.1-1.5-4.6,1.8-5.7l0.7,1.7
			c0.8,1.4-0.3,3.1,0.7,4.5c1,1.3,1.6,2.8,1.8,4.4C692.4,557.9,694.1,559.7,692.8,561z"/>
		<path class="st0" d="M699,528.9c-0.1,2.2-1.2,3.3-3.5,3.8c1.2-4.8-1.1-8.3-3.2-12c0.4-1.5-0.7-4,2.4-3.9c2.6,0.5,2.6,0.4,2,3
			c-0.1,0.3,0,0.8,0.2,0.8c2.4,1,1.4,3.4,2.1,5.1C698.6,526.8,698.6,527.9,699,528.9z"/>
		<path class="st0" d="M697.8,621.4c-0.5-0.9-0.7-2-0.6-3c0-7.4-0.2-14.8,0.6-22.2c0.1-0.9,0.1-1.7,1.2-1.9v0.6
			c-0.5,1-0.1,2.2-0.2,3.2s0,2,1.1,2.5c0.4,0.3,0.7,0.8,0.8,1.3c-0.1,6.5,0.3,13-0.2,19.4C699.7,622.1,698.5,622.1,697.8,621.4z"/>
		<path class="st0" d="M673.9,522c-1.7-0.1-1.2-1.8-1.9-2.6l0.2-0.6c0.2-0.4,0.1-0.9-0.1-1.2c-0.3-2,1.7-3.1,1.8-4.9
			c-0.4-0.6-1.1-0.4-1.7-0.7c-1.8-1.9-2.1-4.8-0.8-7c1-1.5,2-0.3,3,0c0.3,0.6,0.6,0.6,0.9,0c0,2.1,0.4,4.3-0.1,6.2
			c-0.6,2.3,0,3.3,2,3.9c-1.1,2.2-1.1,4.8-2.7,6.9C674.2,522.3,674,522.3,673.9,522z"/>
		<path class="st0" d="M706.6,597.4c0.7-0.7,1.7-1.1,2.6-1.1c0,8.3,0,16.6,0,24.8c0,1.3-0.5,1.6-1.7,1.6c-2-0.1-4-0.1-6-0.2
			c-0.3-0.4-0.3-0.9,0-1.2c0.2-0.2,0.5-0.3,0.8-0.4c0.7-0.1,1.5-0.2,2.2-0.2c0.5,0,1.1,0,1.6-0.1c0.4-0.2,0.6-0.6,0.6-1
			c-0.4-6.8,0.6-13.6-0.5-20.3C706.1,598.6,706.2,597.9,706.6,597.4z"/>
		<path class="st0" d="M686.4,603.1c0.3-0.4,0.8-0.6,1.3-0.5c1.3,0.2,2.8-0.5,4,0.8c-0.2,5.9-0.2,11.8,0.1,17.7
			c-0.1,0.4-0.4,0.7-0.8,0.8c-0.7,0.2-1.5,0.1-2.2-0.3c-1.4-1.2-1.3-2.8-1.3-4.3c-0.1-3.5,0.2-7.1-0.3-10.7c0.2-0.5,0.2-0.9,0.2-1.4
			C687.1,604.5,686.4,603.9,686.4,603.1z"/>
		<path class="st0" d="M704.7,621.4h-2.5c-1.5-1-1-2.6-1.1-4c-0.2-5.8,0.2-11.6-0.2-17.4l2.5-1.1c1,0.1,1.5,0.6,1.5,1.6
			C704.9,607.5,705.4,614.4,704.7,621.4z"/>
		<path class="st0" d="M639.8,611.5h3.6c0.6,0.3,0.5,0.7,0,1.1h-69.6c-1.4,0.1-2.7,0.1-4.1-0.1c-1.3-0.3-0.5-0.7,0.1-0.9
			c1.9-0.3,3.9-0.4,5.8-0.4c2.2,0,4.4,0,6.6,0h3.3c1.5,0,3,0,4.5,0c2.5,1.1,4.9,0,7.4-0.1c2.9,0.1,5.8,0,8.7,0c2.1,0,4.2,0,6.3,0
			h10.9C629,610.8,634.4,611.5,639.8,611.5z"/>
		<path class="st0" d="M594.5,545.2c2.5-5,8-6.5,11.5-2.7c-4,0.3-8,0.3-9.6,4.9c0.2,0.9,1.8,1,1.3,2.3l0,0c-0.7,0.6-0.7,1.9-1.9,2.1
			c-1,0.1-1.9,0.5-2.6,1.2c0.1,0.2,0,0.3-0.2,0.4c-1,0.1-1.4-0.3-1.2-1.3v0C592.5,549.8,593.4,547.5,594.5,545.2z"/>
		<path class="st0" d="M700.9,600c0.7,0.7,1.1,1.7,1,2.6c0,6.2-0.5,12.5,0.2,18.8h-0.6c-0.3,0.3-0.9,0.4-1.2,0c0,0,0,0,0,0
			c-1.3-2.9-0.5-5.9-0.6-8.9c-0.1-3.4,0-6.8,0.2-10.2c0-0.8-0.5-1-0.8-1.5c0.2-0.6,1-0.3,1.3-0.7C700.5,599.9,700.7,599.9,700.9,600
			z"/>
		<path class="st0" d="M599.5,598.7c0.7,0.2,1.6,0.2,1.9,1.2c0.5,0.6,1.6,0.5,1.5,1.7c-0.3,3.3,0.4,6.6-0.3,9.9
			c-1.3,0.3-2.6,0.2-3.9,0C596.3,608.2,596.8,601.1,599.5,598.7z"/>
		<path class="st0" d="M706.5,520.9l-4.1-6.5c0-1.5-0.9-2.9-0.4-4.5c0.8-2.8,1.2-3,3.5-1.2c1.5,1,2.3,2.7,2.3,4.5
			c-0.5,1.7-0.2,3.4-0.3,5.1C707.5,519.3,707.7,520.4,706.5,520.9z"/>
		<path class="st0" d="M704.7,621.4c-1.1-2.2-0.6-4.5-0.6-6.7c0-4.8,0-9.5,0.2-14.3c0-0.8-0.5-1-0.8-1.5l1.9-0.8
			c1.4,0.7,1.3,2.1,1.3,3.3c0,6.7,0.2,13.3-0.1,20L704.7,621.4z"/>
		<path class="st0" d="M613.4,596.2c0.3,2.7-0.6,5.5,0.8,8.1c0.6,1.1,1.9-0.1,2.5,0.9c-2.2,2-1.3,4.2-0.4,6.5c-1.1,0-2.3,0-3.4,0
			c-0.3,0-0.7-0.1-1-0.2c-2.8-1.5-2.4-4.6-1.6-6.3c1-2,0.5-4,1.2-5.9c0.2-1.5-0.3-3,0.6-4.4C612.6,595.2,612.7,596,613.4,596.2z"/>
		<path class="st0" d="M606,548.5c3.5,2.1,4.1,4.5,2.5,11.8c-1.3-4.5-2.8-8-6.5-9.9c-0.3-1.1-1.8-1.3-2-2.5c0.3-0.6,0.8-0.7,1.4-0.8
			s1.6-0.5,2,0.6C604.1,548.5,605.3,547.6,606,548.5z"/>
		<path class="st0" d="M584.4,601.4l3.1-1.9c1.8,0.3,2.3,1.5,2.3,3.1c-0.1,2.9,0.1,5.8,0.4,8.6c-0.2,0.3-0.5,0.4-0.8,0.4
			c-1.1-0.1-2.3,0.2-3.4-0.3c-0.9-0.7-1.4-1.9-1.2-3.1C584.8,606,584.6,603.7,584.4,601.4z"/>
		<path class="st0" d="M684.6,527.4c1.6,3.7,3.2,7.4,3.6,11.5c-0.9,1.4-0.1,3.3-1.3,4.6c-0.3-0.1-0.8-0.1-0.9-0.3
			c-1.4-5.4-2.7-10.9-4-16.3C683.2,526,683.7,528.1,684.6,527.4z"/>
		<path class="st0" d="M674.4,505c-0.6,1.4-2-1.4-2.5,0.5c-0.6,2.2-1.4,4.5,0.7,6.4c-0.6,0.5-1.5,0.3-1.9,1.2
			c-0.7,0.4-1.8-0.1-2.3,0.8c-1.6-1.2-1.6-1.2-1.5-4.5c1.4-0.2,2.2-1,1.8-2.5c-0.6-0.9-0.8-2-0.6-3c0.2-1,0.4-2.2,2-1.5
			C672.5,501.7,673.5,503.3,674.4,505z"/>
		<path class="st0" d="M616.5,572.2c0.2-1.9-1.5-2.7-2.5-3.8c-0.2-0.1-0.3-0.2-0.2-0.3c0-0.1,0.1-0.1,0.2-0.2
			c0.6-0.3,1.3-0.3,1.9-0.1c0.3,0.9,1.5,1,1.8,1.9c0.1,3.9,2.4,1.3,3.9,1.3c1,1.1,2.7,0.1,3.7,1.2c-1.1,1.4-2.9-0.3-4.2,1.1
			c0.6,1.4,3.2,1.2,3.1,3.2c-0.5,0.6-1.4,0.6-2,0c0,0,0,0,0,0c-1.1-1.2-2.2-1.7-3.7-0.7l-0.1,0.1c-1.2,0.5-2.5-1.5-3.7,0
			c-1,0.3-1.3-0.2-1.3-1.1l1.3-0.8c0.3-0.4,0.6-0.8,0.9-1.3S616.2,572.5,616.5,572.2z"/>
		<path class="st0" d="M680.8,611.3c1-0.4,1.3-1.8,2.5-1.9c1.8,4.1,1.6,8.2,0.3,12.4c-0.8,0.3-1.7,0.3-2.5,0
			c-2.8-1.9-1.9-4.7-1.6-7.3L680.8,611.3z"/>
		<path class="st0" d="M706.6,621.4c-0.8-1.3-0.6-2.8-0.6-4.3c0-5.1,0-10.2,0-15.4c0.1-1.3-0.1-2.5-0.6-3.7l1.2-0.7
			c1.9,6.7,0.8,13.6,0.9,20.4C707.5,619,708.8,620.7,706.6,621.4z"/>
		<path class="st0" d="M590.1,611.3c-1.7-2.7-0.9-5.7-0.9-8.5c0.1-1.3-0.5-2.5-1.6-3.3c1.3-0.4,2.3-1.5,3.8-1.3
			c0.8,4.4,0.6,8.8,0.6,13.2C591.4,611.8,590.6,611.8,590.1,611.3z"/>
		<path class="st0" d="M602.7,611.3c-1.2-2.9-0.5-6-0.5-8.9c0.1-0.9-0.2-1.8-0.7-2.5c1.7-0.2,3.5,0.5,4.5,1.9
			c0.4,2.7,0.1,5.4,0.1,8.2S604.1,611.6,602.7,611.3z"/>
		<path class="st0" d="M594.5,611.3c-0.7-5.4-2.1-10.9,1.9-15.7l0.2,2.4c1.5,4,0.7,8.1,0.5,12.2C596.9,611.7,595.8,612,594.5,611.3z
			"/>
		<path class="st0" d="M594.5,545.2c-0.5,2.4-0.6,5-2.6,6.9c-0.7-1.5-1.2-1.6-3.5-0.5c-1.5,0.3-1.3-1.4-1.3-1.7
			c-0.1-1.1,1.3-0.2,1.8-1c0.8-0.6,2.4-1.1,0.2-2c-0.9-0.4-1.8-0.8-2.7-1.2c0-1.7,2.2-1.1,2.5-2.5c1.2,1.4,3.1,1.7,4.4,3
			C594.3,547.4,593.6,545.2,594.5,545.2z"/>
		<path class="st0" d="M700.3,622.5l-37.1,0.1h-12.3c1.7-1.9,3.6-1.1,5.3-1.2c4,0,7.9,0,11.9-0.3c1.7,0.1,3.4-0.1,5.2,0
			c2.5,0.2,5-0.2,7.5,0.4c1.9,0.8,3.8-0.2,5.6-0.3c1.5-0.1,2.9,0.8,4.5,0.5c1.8-0.5,3.7,0.2,5.6,0
			C697.7,622.1,699.3,620.9,700.3,622.5z"/>
		<path class="st0" d="M595.7,551.5c0.8-0.4,0.5-2.1,2-1.8c0.7,1.2,1.8,2.2,3.1,2.9c1.8,1,2.8,3,2.6,5c0.3,1.4,0.3,2.8,0,4.2
			c-1.6,0.8-1.8,0.8-1.8-0.4c0.1-4.5-2.3-7.2-5.9-9.3c-0.2-0.2-0.3-0.3-0.2-0.4S595.7,551.5,595.7,551.5z"/>
		<path class="st0" d="M588.8,549c-1.3,0.7-1.7,1.5-0.4,2.7c-3,2.8-2.9,6.5-2.7,10.3c-2.8-1.8-3.5-5.3-1.9-9.7
			c0.2,0.1,0.4,0.3,0.5,0.3s0.2-0.3,0-0.4C584.8,549.6,586.7,549.2,588.8,549z"/>
		<path class="st0" d="M694.7,516.8c-0.9,0.7-2.3,1-1.6,2.7c0.3,0.8-0.1,1.1-0.8,1.2l-3.9-3.9c-0.3-0.9-0.4-1.8-0.1-2.7
			c0.4-1.8,1.3-2.2,2.8-1c1.1,0,2.3-0.2,3.2,0.7c0.6,0.6,2.7,1.5-0.2,1.9L694.7,516.8z"/>
		<path class="st0" d="M691,513.1c-1,0-2.4-0.5-2.1,1.4c0.1,0.8-0.1,1.6-0.6,2.3l-4.5-2.3c0.1-1.9,0.3-3.9-2.3-4.3
			c-0.7-1.4-0.3-1.9,1.2-1.5l0,0c1.3,0.6,3,0.2,3.8,1.8c1.5,0.1,3,0.4,4.4,1.1C692.1,512,691.4,512.6,691,513.1z"/>
		<path class="st0" d="M584.4,601.4c1.3,0.7,1.2,2,1.2,3.2c0.1,2.2-0.5,4.5,0.6,6.7c-0.2,0.2-0.5,0.3-0.8,0.3c-0.9,0-1.8,0-2.8,0
			c-0.3-0.1-0.5-0.3-0.7-0.6c-0.2-2.6-1.3-5.1-0.2-7.7L584.4,601.4z"/>
		<path class="st0" d="M594.5,611.3c1.9,0.2,1.9-1,1.9-2.4c0-3.6,0.1-7.3,0.2-10.9l3,0.7c-2.1,4.1-1.5,8.3-0.6,12.6
			c-0.3,0.4-0.9,0.2-1.2,0.6h-7.6c-0.2-0.1-0.3-0.3-0.2-0.4s0.1-0.2,0.2-0.2L594.5,611.3L594.5,611.3z"/>
		<path class="st0" d="M699.4,511.4l-2.9-2c-1-3.5-0.7-4.4,1.9-5.6c2-0.1,4.2-1.9,5.9,0.8c-0.4,0.8-1.8,0-2.2,1
			c-1.8,1-1.3,2.7-1.1,4.2C701.1,511.1,700.9,511.9,699.4,511.4z"/>
		<path class="st0" d="M666.9,509.4c1.1,1.3,0.1,3.3,1.5,4.5l-3.3,3.1c-2.3,0.2-2.4-2.9-4.5-3.1c0.1-0.1,0.3-0.2,0.5-0.1
			c0.6-0.5,1.7-0.7,1.3-1.9L666.9,509.4z"/>
		<path class="st0" d="M597.6,612c0.3-0.4,0.7-0.7,1.2-0.6h3.8c2.1,0.4,2.8-0.2,2.6-2.6s-0.6-4.7,0.7-6.9l1.1,0.8
			c1,0.9,1.9,1.9,1.5,3.5c-0.4,1.8,0.2,3.5,0.5,5.2c-0.7,0.8-1.9,0-2.7,0.7L597.6,612z"/>
		<path class="st0" d="M609,611.3c-1.9-1.3-1.3-3.3-1.2-5c0.1-1.3-0.1-2.6-0.7-3.7l3.5,1.2c0.3-1.6,0.6-3.1,0.8-4.5
			c0.7,3.1-1,6.1-0.6,9.2c0,1.1,0.5,2.2,1.3,3C611.1,611.8,609.9,611.8,609,611.3z"/>
		<path class="st0" d="M618.4,604.5h1.2c0.9,1,2.9-0.8,3.5,1.3c-0.6,2.1,0.4,3.8,1,5.7c-0.3,0.1-0.6,0.2-0.9,0.2c-1,0-2,0-3-0.1
			c-3.5-0.8-4-2.1-2.6-6.3C617.9,604.9,618.2,604.7,618.4,604.5z"/>
		<path class="st0" d="M687,543.6c0.3-1.6-1.2-3.7,1.3-4.6c2,1.9,1.5,4.5,1.9,6.9c-2,1.4-1.3,3.7-1.8,5.7
			C686.5,549.1,686.7,546.4,687,543.6z"/>
		<path class="st0" d="M699.4,511.4c2.6-0.4,0.2-2,0.6-3.1c0.5-1.3-0.5-3.2,2.1-2.7c0.1,0.1,0.1,0.2,0.2,0.2
			c2.8,0.6,2.8,0.6,3.2,2.9c-0.9,0.5-1.7-1.6-2.3-0.3s-1.2,2.8-0.5,4.3c0.4,0.8,1,1.4-0.4,1.7L699.4,511.4z"/>
		<path class="st0" d="M581.9,603.2c0.2,2.7,0.4,5.4,0.6,8.1c-1,0.6-2.1,0.2-3.2,0.3c-2.5-0.9-1.7-2.8-1.2-4.5c0.2-0.7,1-1.2,1.2-2
			L581.9,603.2z"/>
		<path class="st0" d="M682.7,508.7c-0.8,0.1-1.6,0.2-0.7,1.3c0.4,0.8,0.6,1.6,0.6,2.4c0.2,1-0.3,1.4-1.3,0.8
			c-1.8,0.2-2.7-0.5-2.5-2.4c0.1-1.6-0.1-3.3,0.1-5c0.1-0.9-0.3-2.6,1.7-2.1c0.1,0.1,0.2,0.3,0.2,0.5c1.5,0.9,1.4,2.5,1.9,3.9
			C682.6,508.3,682.6,508.5,682.7,508.7z"/>
		<path class="st0" d="M624.1,611.3c-2.6-1.3-2.1-3.5-1.4-5.7c0.5,0.1,1-0.4,1.5,0c1.3,0.5,3,0.3,3.8,1.8c0,1.2-0.6,2.5,1.1,3.2
			c0.6,0.3,0.2,0.8-0.5,1C627,611.5,625.5,612,624.1,611.3z"/>
		<path class="st0" d="M698.4,503.8c-2.4,1.3-1.3,3.7-1.9,5.6l-3.1-1.3c-0.3-1.7,0.3-3.4,0.5-5.1c0.1-0.9,0.6-1.1,1.4-1.1l2.5-0.6
			c0.5,0.4,1.2,0.5,1.3,1.2S697.7,502.9,698.4,503.8z"/>
		<path class="st0" d="M670.1,502.4c-2.9,0.8-0.2,3.2-1.4,4.5l-4.4-1.4c-0.2-1.2-0.1-2.4-0.3-3.6c-0.1-0.9-0.1-2,1.5-1.3
			S669.5,499.6,670.1,502.4z"/>
		<path class="st0" d="M629.1,611.3c-0.1-0.1-0.3-0.3-0.5-0.4c-0.8-0.6-2.3,0.4-2.5-1.1c-0.2-1.3,1.3-1.4,1.8-2.3
			c3,0.1,5.3,1.7,7.7,3.2C633.6,612.5,631.3,611.5,629.1,611.3z"/>
		<path class="st0" d="M624.1,605.7c-0.5,0.2-1,0.8-1.5,0c-0.5-1.6-2.5,0.4-3-1.2c2.8,0.1,5.5-1,8.3-0.6c1.6,0.5,3.3,0.1,5,0.2h3.5
			c1.3-0.1,2.7,0.3,3.9-0.2c1-0.3,2.3,0.3,3.1-0.8c0.6,0.5,1,1.2,1,1.9c0,0.3-0.1,0.6-0.3,0.8c-0.4,0.3-0.9,0.2-1.2-0.2
			c-3.6-1.3-7.3-0.4-11-0.5C629.4,605,626.7,604.4,624.1,605.7z"/>
		<path class="st0" d="M579.4,605.1c0,2.1-1.8,4-0.7,6.2c-0.9,0.7-2.2-0.1-3.1,0.6c-1.9-0.2-3.8,0.5-5.7-0.4c0.5-0.5,0.9-1,1.7-0.9
			c1.6,0,2.9-0.6,3.3-2.3L579.4,605.1z"/>
		<path class="st0" d="M665.6,500.6c-1.3,0.2-0.8,0.9-0.7,1.8c0.2,1.1,0.9,2.3-0.5,3.2l-0.7,0c-1.6-0.6-3.5,0.3-5.1-0.6
			c1.2-1.1,2-2.6,2.2-4.2l0.4-0.2c0.6-0.5,1.2,1.3,1.9-0.2C663.9,498.7,664.3,498.7,665.6,500.6z"/>
		<path class="st0" d="M684.5,501.7c1.3-1.2,2.6-0.6,3.8,0.2c1.4,1.1,2.1,2.8,1.8,4.5c-0.9,0.5-1.9,0-2.8,0.1
			c-1.1-0.2-2.3-0.3-3.1-1.3C683.1,504,683.6,502.8,684.5,501.7z"/>
		<path class="st0" d="M658.7,504.3c1.4,1.5,3.5-0.2,5,1.1c-2.7,0.1-5.5-0.2-8.2,0.7c-0.9-0.9-1.9-1.6-1.9-3
			c1.7-1.1,3.3-2.3,5.4-2.4c0.2-0.3,0.6-0.4,0.9-0.2c0.2,0.3,0.3,0.8,0.2,0.8C658.3,501.7,659.6,503.5,658.7,504.3z"/>
		<path class="st0" d="M653.7,503.1c0.9,0.8,1.8,1.7,1.9,3c-1.9,0.9-3.7,2-5.3,3.5C649.7,506.6,651.1,504.6,653.7,503.1z"/>
		<path class="st0" d="M679.5,614.5c0.6,1.1,0.8,2.4,0.6,3.6c-0.2,1.2,0.3,2.5,1.3,3.3c-0.2,0.2-0.5,0.3-0.9,0.3
			c-0.8,0-1.6,0-2.4-0.1c-2.8-1.2-1.9-3.3-1.2-5.4L679.5,614.5z"/>
		<path class="st0" d="M688.3,489.4l1.3-0.7c1.2,0.5,2.5-0.2,3.8,0c0.8,0,1.5,0.5,2,1.1c0,0.8,0.2,1.7-1.1,1.6
			c-1-0.1-2.1,0.2-2.8,0.9c-0.8,0.1-1.8-0.1-2.4,0.8C687.1,491.5,687.1,491.3,688.3,489.4z"/>
		<path class="st0" d="M680.2,501.3c-1.6-0.9-2.3-2.8-1.9-4.6c0.2-0.2,0.3-0.4,0.5-0.6c0.3-1.1,0.8-1.8,2.1-1.6
			c0.9,0.2,1.6,0.8,2,1.6c0.2,0.7-0.5,1-0.8,1.5C682.2,499.2,681,500.2,680.2,501.3z"/>
		<path class="st0" d="M684.6,527.4c-0.1,0.6-0.1,1.4-0.8,1.5s-0.5-0.7-0.6-1.1c-0.2-0.6-0.6-0.8-1.2-0.8c-0.1-1.9-2.4-2.9-1.9-5
			l1.8-1.2C683.9,522.5,683.7,525.2,684.6,527.4z"/>
		<path class="st0" d="M661.2,533.3c1.3-1-0.7-3,1.3-3.8c0.2-0.3,0.5-0.3,0.7,0l3,8.7C664.1,537,662.4,535.3,661.2,533.3z"/>
		<path class="st0" d="M684.5,501.7c0,1.1-0.9,2.2,0,3.3c0,0.6,0.6,0.9,0.9,1.3c0.2,0.4,0.1,0.8-0.2,1.1l-2.5,0.8
			c-2.3-0.5-0.8-2.8-1.9-3.9C682.4,503.9,682.6,501.5,684.5,501.7z"/>
		<path class="st0" d="M690.2,506.2c-1.7-1-0.9-3.1-1.9-4.4l3.1-0.7c0.6,0.5,1.5-0.1,2,0.6c0.1,0.4,0,0.9-0.3,1.2
			c-0.8,0.7-1,1.9-0.5,2.9c0.5,1.2-0.4,1.4-1.2,1.6c-0.9,0.1-1.9-0.1-2.7-0.5C689,506.2,690,506.9,690.2,506.2z"/>
		<path class="st0" d="M676.9,616.2c0.8,1.6-0.9,3.9,1.3,5.2c-1.1,0.6-2.2,0.2-3.4,0.3c-1.4-0.5-2.4-1.8-2.3-3.3L676.9,616.2z"/>
		<path class="st0" d="M591.9,552.1l1.2,1.3l-2.4,6.3c-0.4,0.4-1,0.4-1.3,0C588.3,556.6,590.3,554.4,591.9,552.1z"/>
		<path class="st0" d="M588.8,543.4c0.2,1.8-1.7,1.6-2.5,2.5c-1.8,0-3.7,0.2-5.5,0.6C582.8,543.4,585.6,542.8,588.8,543.4z"/>
		<path class="st0" d="M663.7,605c-3.6,0-7.3,0.1-10.9-0.2c-2.2-0.1-3.8,0-4.2,2.6c-0.3-0.2-0.6-0.3-1-0.5c-0.7-0.2-1.5,0-2.2-0.2
			c-0.2-0.1-0.5-0.2-0.7-0.4c-0.1-0.2-0.1-0.5,0-0.8c0.2-0.2,0.4-0.3,0.7-0.4c0.2-0.1,0.5-0.1,0.8-0.2l0.7-0.2
			c0.5-0.2,0.7-0.7,1.2-0.9c1.3,0.9,2.6,0.3,3.9,0c2.1,0.6,4.1-0.3,6.1-0.2c1.5-0.1,3.1-0.1,4.6,0.1c0.5,0.1,1,0.4,1.2,0.8
			C663.8,604.7,663.7,604.9,663.7,605z"/>
		<path class="st0" d="M603.5,523.3c-1.6,0.6-3.4,0.8-5.1,0.6c-1.6,0.4-3.2,0.4-4.7,0l-1.8-0.2c1.1-1,2.1-0.6,3-0.6
			c1.3-0.8,2.6,0,3.9-0.2c-0.8-0.4-2.1,0.8-2.5-0.9c1.8-0.5,3.8-0.7,5.7-0.7c0.5,0.6,1.5-0.1,2,0.7c0,0.3-0.1,0.6-0.4,0.7
			c-0.3,0.2-0.8-0.1-1,0.4C603,522.8,603.3,523,603.5,523.3z"/>
		<path class="st0" d="M682.7,496.2l-1.9-1.3c-0.3-0.3-0.4-0.8-0.1-1.2c0,0,0.1-0.1,0.1-0.1c0.4-1.6-0.3-4.5,3.1-3
			C684.3,492.7,686.1,495,682.7,496.2z"/>
		<path class="st0" d="M682.7,496.2c1.5-0.7,1.5-2,1.1-3.2c-0.3-0.8-0.3-1.6,0.1-2.4c1.1-0.2,1.4-3.1,3.2-0.8
			c-0.1,1.5-1.1,3-0.4,4.6c-1.5,1-2.6,2.8-4.6,3.2L682.7,496.2z"/>
		<path class="st0" d="M687.7,604.4v1.1c-0.2,0.3-0.4,0.3-0.6,0c-4.4-1.1-8.9-0.3-13.3-0.5c-0.4,0.1-0.8-0.1-1-0.5
			c-0.2-0.5-0.5-1-0.1-1.5c1.2,0.3,2.6-0.2,3.8,0.6c-0.3,0.4-0.8,0.6-1.3,0.4c0.6-0.1,1.5,0.3,2.4-0.3c1.9-0.5,3.8,0.7,5.8,0
			C684.7,604.7,686.4,603.1,687.7,604.4z"/>
		<path class="st0" d="M628.1,615.8h22.3v0.3h-22.4L628.1,615.8z"/>
		<path class="st0" d="M668.2,622c-4-0.3-8,0.7-12-0.5l1.7-0.1c2.1-0.7,4.3,0.2,6.4-0.5l5.1-1.2c0.6,0.3,1.6,0.2,1.4,1.2
			C670.6,622.5,668.9,621.2,668.2,622z"/>
		<path class="st0" d="M603.9,522c-0.7,0-1.4,0.1-1.9-0.6l1.6-0.1c1.2-0.5,2.5,0.1,3.7-0.5c0.2-0.2,0.5-0.3,0.8-0.3
			c1,0.3,2.1,0.3,3.1,0.7c0.6,0.1,1.2,0.4,1.6,0.9c-0.5,2.7-2.8,1.5-4.3,2c-0.3,0.2-0.6,0.2-0.9,0l-1.3-0.8
			C605.6,522.7,604.5,522.8,603.9,522z"/>
		<path class="st0" d="M659.3,613.9c2.6-0.2,5.2-0.1,7.7,0.5c0.2,0.2,0.3,0.3,0.2,0.4c-0.1,0.1-0.2,0.2-0.2,0.2l-17-0.1
			c0.2-1.3,1.3-0.8,2-0.8C654.3,614,656.8,614.4,659.3,613.9z"/>
		<path class="st0" d="M607.8,574.8c0.9-2.9,2.8-4,5.7-3.2c0,0.4,0.2,0.8,0.2,1.2c0,0.3-0.1,0.5-0.3,0.7c-1.8,0.3-3,1.6-4.4,2.5
			C608.4,575.8,608,575.4,607.8,574.8z"/>
		<path class="st0" d="M651.1,618.2h-12.6c-1.1-0.6-2.5,0.2-3.6-0.5c4-1.1,8-0.3,12.1-0.2c1.4,0.1,2.7,0.1,4.1,0.2
			c0.2,0.1,0.3,0.2,0.2,0.3S651.2,618.2,651.1,618.2z"/>
		<path class="st0" d="M624.7,514.5c1.9,0.8,3.2,2.4,3.8,4.4c-0.4,1-1.4,1.3-2.1,1.9c-0.2,0.2-0.5,0.3-0.8,0.3
			c-0.4,0.1-0.9-0.1-1.2-0.5c-0.9-1.9-0.1-3.8,0-5.8L624.7,514.5z"/>
		<path class="st0" d="M659.3,613.9c-2,1.1-4.1,0.3-6.1,0.5c-1.1,0.1-2.3-0.3-3.3,0.5l-6.3-0.1l0.1-0.3
			C648.8,613.1,654,614,659.3,613.9z"/>
		<path class="st0" d="M614.6,530.7c-0.9-0.3-1.6-0.9-2-1.7c-0.3-1.3-0.5-2.6-1.9-3.3l-0.4-0.6c0.4-0.7,1.2-1.3,2-1.4
			c0.9-0.2,1.8,0,2.5,0.6C615.5,526.5,616.4,528.7,614.6,530.7z"/>
		<path class="st0" d="M691.5,507.4c0.3-0.5,1-0.7,0.3-1.7c-0.7-0.9-0.5-2.3,0.4-3c0.2-0.1,0.4-0.3,0.6-0.3c0.3,0.4,0.9,0.1,1.1,0.6
			c0.2,1.7,0.7,3.5-0.5,5C692.7,508.2,692,508,691.5,507.4z"/>
		<path class="st0" d="M691.5,589.9c0.4,0.3,0.7,0.8,0.6,1.3c0.7,0.9,0.7,2.2,0,3.1c-0.5,2.7,1.8,5.5-0.1,8.2
			c-0.6-0.7-0.2-1.5-0.3-2.3c0-0.2,0.2-0.3-0.1-0.5c0,0.2-0.2,0.4-0.3,0.5C689.6,596.7,691.9,593.4,691.5,589.9z"/>
		<path class="st0" d="M668.2,622c-0.1-1.1,4,0.1,1.3-2.4l3.2-1.3c1.2,0.7,1.3,2,1.9,3c-0.3,0.5-0.9,0.2-1.2,0.6L668.2,622z"/>
		<path class="st0" d="M614.6,530.7v-6.2c0.3-0.4,0.8-0.5,1.2-0.4c0.6,0.1,1.1,0.5,1.5,1c0.1,1.8,0,3.6,0,5.3
			c-0.2,0.7-1,0.5-1.5,0.8L614.6,530.7z"/>
		<path class="st0" d="M610.7,518.8c0.2-1.1,0.9-2,1.9-2.6c2.9-0.4,2,1.7,2.1,3.2c-0.1,0.5-0.4,1-0.7,1.4c-0.3,0.4-0.8,0.7-1.3,0.8
			C611.1,521.3,610.3,520.4,610.7,518.8z"/>
		<path class="st0" d="M600.1,547.8c0.5,1,3.1,0.5,1.8,2.6c-1.5,0.1-2.8-1.1-4.3-0.6c-0.4-0.8-0.8-1.5-1.3-2.3
			c1.5,0.6,2.2-1.8,3.7-0.9C600.6,546.9,600.2,547.4,600.1,547.8z"/>
		<path class="st0" d="M651.1,618.2c0-0.2,0-0.3-0.1-0.5h4.5c1.2,0.5,2.5,0.5,3.7,0c1,0.1,2-0.5,3.3,1
			C658.4,618.7,654.8,619.7,651.1,618.2z"/>
		<path class="st0" d="M619,513.1c1.4-0.4,2.8-0.2,4.1,0.5c-0.6,2.3,0.1,4.6,0,6.9c0,0.5-0.3,0.9-0.7,1.1c-0.5,0.2-1,0.1-1.4-0.1
			c-0.2-0.2-0.4-0.4-0.5-0.7c-0.5-2,0.1-4.2-0.8-6.1c-0.3-0.2-0.6-0.5-0.9-0.9C618.7,513.6,618.8,513.3,619,513.1z"/>
		<path class="st0" d="M670.8,607.4c0.2,0,0.4,0,0.5,0.2c0.7,1.4,2.9-0.2,3.4,1.6c0,1.2-0.7,1.3-1.6,1h-1.6
			c-0.6,0.3-1.1-0.1-1.7-0.1c-0.9,0.1-1.8,0-2.7-0.3c-0.3-0.2-0.5-0.4-0.5-0.8c-0.1-0.9,0.4-1.7,1.3-2
			C668.8,606.7,669.9,606.8,670.8,607.4z"/>
		<path class="st0" d="M686.7,494.4c-1.9-1.7-1.5-3.2,0.4-4.6c0.3-0.4,0.8-0.6,1.3-0.4c-0.7,1.4-0.2,2.6,0.8,3.7L686.7,494.4z"/>
		<path class="st0" d="M681.4,513.2c1.4-0.8-0.8-2.3,0.6-3.1c2.1,0.2,3,2.5,1.8,4.5c-0.9,0.1-1.8-0.2-2.5-0.8
			C681.4,513.5,681.4,513.3,681.4,513.2z"/>
		<path class="st0" d="M629.1,611.3c2.2-0.1,4.4,0.5,6.5-0.7l4.2,0.8c-5.4,1-10.9,0.3-16.3,0.4c-0.2-0.1-0.3-0.2-0.2-0.3
			s0.1-0.2,0.2-0.2L629.1,611.3L629.1,611.3z"/>
		<path class="st0" d="M589.4,559.7h1.3c0,2.3,0.1,4.6-0.1,6.8c-0.1,1.1-0.7,1.8-1.1,0c0.6-1.2,0-2.4,0.2-3.1c0.1,0.5,0,1-0.3,1.3
			C588.8,563.2,587.8,561.4,589.4,559.7z"/>
		<path class="st0" d="M617.8,618.8h-7c-0.6-0.4-1.3-0.1-1.9-0.4c-0.2-0.2-0.2-0.5,0-0.7H619c0.1,0.1,0.2,0.2,0.2,0.4
			c0,0.2,0,0.2-0.1,0.2C618.8,618.7,618.2,618.5,617.8,618.8z"/>
		<path class="st0" d="M583.1,617.7c4.4-0.3,8.9-1.2,13.3-0.1c-1.6,0.6-3.4,0.7-5,0.1c-2.7,0.6-5.5,0.8-8.3,0.6
			c-0.2-0.1-0.3-0.2-0.2-0.4S583.1,617.7,583.1,617.7z"/>
		<path class="st0" d="M622.9,520.8c-0.9-2.4-1.7-4.8,0.2-7.1c0.6,0,1.2,0.3,1.6,0.8v0.1c-1.2,2-0.2,4.1-0.4,6.2
			C623.9,521.1,623.3,521.1,622.9,520.8z"/>
		<path class="st0" d="M619,513.1v0.7c0.8,1.8-0.6,3.9,0.8,5.6c0.4,0.5,1,1,0.2,1.7c-1.1,0.5-2.4,0.6-3.6,0.5
			c-1.1,0-2.2,0.1-3.1-0.8l0.6-0.6c0.4-0.4,0.9-0.7,1.5-0.8l0.8-0.2c1.1-1.2,1.1-3,0-4.1c-0.3-0.3-0.5-0.7-0.3-1.1L619,513.1z"/>
		<path class="st0" d="M666.3,606.9l-1.3-0.5c-0.3-0.6-0.4-1.2-0.2-1.8c0.1-1.8,0.8-3.5,0.8-5.3c-0.1-0.5,0.2-1,0.6-1.3
			c2.7,1.7,1.1,4.5,1.6,6.7c0,0.5,0,1,0.1,1.5c0,0.3-0.1,0.6-0.3,0.9C667.2,607.3,666.6,607.3,666.3,606.9z"/>
		<path class="st0" d="M624.7,530.7c-0.3,0.5-0.9,0.8-1.6,0.8c-2.6-0.9-1.4-3-1.6-4.7c0-0.3,0.1-0.6,0.3-0.9c0.3-0.6,0.9-1,1.5-1
			c0.4,0.1,0.8,0.4,1,0.8c-0.1,1.4,0.2,2.7,0.8,3.9C625.1,530,625,530.4,624.7,530.7z"/>
		<path class="st0" d="M668.2,594.4c0.5-0.6,0.2-1.5,0.4-2.7c0.7,0.9,1,2.1,0.9,3.2c0.6,3.1,0.9,6.2,0.8,9.3
			c-0.1,1.1,0.1,2.4-1.3,2.9c-2.1-3.4-0.7-7-0.9-10.6C668,595.8,668.4,595.1,668.2,594.4z"/>
		<path class="st0" d="M668.7,606.9c1.5-2.5,0.4-5.3,0.7-7.9c0.2-1.3,0.1-2.7,0.1-4.1c0.6,1,1,2.1,1.1,3.3c-0.1,3,0.7,5.9,0.1,8.9
			c0,0.1,0,0.3,0,0.4l-3.2,0.1c-0.2-0.1-0.2-0.3-0.1-0.4s0.1-0.2,0.2-0.2l-0.1-0.1C667.9,606.5,668.4,606.5,668.7,606.9z"/>
		<path class="st0" d="M658.2,604.3c-2.1,0-4.3,0.5-6.3-0.4c2.7-0.7,5.4-1.1,8.1-1.3c0.4,0.4,1.4,0.2,1.2,1
			c-0.1,0.6-0.8,0.5-1.3,0.5C659.4,604,658.8,604.1,658.2,604.3z"/>
		<path class="st0" d="M637.6,522.5l3.5,0.2c0.2,0.2,0.1,0.5-0.1,0.7c-0.1,0.1-0.2,0.1-0.3,0.1c-1.6,0.1-3.3,0.1-4.9-0.2l-5.4-0.2
			c-0.3-0.5-0.1-1,0.1-1.4c0.1-0.2,0.3-0.4,0.5-0.6c0.2-0.1,0.5,0,0.7,0.1l2.5,0.8C635.3,522.5,636.5,522.1,637.6,522.5z"/>
		<path class="st0" d="M668.7,606.9h-1.2l-0.6-1.2c0.2-0.2,0.4-0.5,0.5-0.8c0.4-3.1-0.2-6.2,0.1-9.3l0.7-1.2
			C669.5,598.5,668.6,602.7,668.7,606.9z"/>
		<path class="st0" d="M615.9,531.4c0.3-0.4,0.7-0.7,1.2-0.6c0.4-1.9-0.8-4,1-5.7c0.3-0.2,0.6-0.2,0.9-0.1c1.5,1.9,0.4,4,0.3,6.1
			c-0.1,0.5-0.6,0.7-1,1C617.5,532.2,616.6,531.9,615.9,531.4z"/>
		<path class="st0" d="M673.1,610.2c0.7-0.2,1.4-0.4,1.2-1.4c0-0.5,0.2-0.7,0.7-0.6c0.1,2.4,2,2.1,3.5,2.2c0.7,0,1.7-0.3,0.8,1
			C677.2,611.3,675,611.8,673.1,610.2z"/>
		<path class="st0" d="M615.9,520.1H614c-0.4-1.3,1-3.3-1.4-3.8c0.4-0.8,1.2-1.5,2.1-1.8C616.8,515.9,616.1,518,615.9,520.1z"/>
		<path class="st0" d="M613.4,575l1.3,1.1c-1.3,1.1-2.4,2.4-3.1,3.9c-0.4-0.1-0.5-0.5-0.8-0.8C610.6,577.4,611.7,575.6,613.4,575z"
			/>
		<path class="st0" d="M665.1,610.6c-2.4,0.7-5,1-7.5,0.7c-0.2-0.6-0.1-0.8,0.5-0.6c1.7,0.5,2.8-1.5,4.5-1
			C663.5,609.8,664.8,609,665.1,610.6z"/>
		<path class="st0" d="M670.8,607c-1.1-2.8-1.1-6-0.1-8.9l0.6,1.9c0,1.7,0.2,3.5,0.6,5.1c0.2,0.1,0.4,0.3,0.7,0.4
			c0.5,0.1,1,0.4,1.3,0.8C673,607.3,671.8,606.8,670.8,607z"/>
		<path class="st0" d="M658.2,604.3c0.4-0.6,1.1-0.5,1.7-0.5c1.8-0.2,0-0.8,0.1-1.2c1.2-0.5,2.5-0.5,3.7,0c0.7,0.9,0.2,1.4-0.6,1.8
			L658.2,604.3z"/>
		<path class="st0" d="M624.7,530.7v-1.2c-0.2-1.3-0.2-2.7,0.8-3.8c0.2-0.2,0.5-0.2,0.8-0.2c0.8,0.2,1,0.9,1.4,1.5
			C627.8,529.1,626.2,529.9,624.7,530.7z"/>
		<path class="st0" d="M706.5,520.9c1.7-2.4-0.2-5.3,1.3-7.8c0.5,2.7,0,5.4,0.1,8.1c0,0.6,0.2,1.4-0.8,1.2
			C706.3,522.3,706.7,521.5,706.5,520.9z"/>
		<path class="st0" d="M615.9,520.1c-1.2-1.7,0-3.9-1.2-5.6l1.3-0.6l0.6,0.6c0.9,1.8,0.9,3.9,0,5.7L615.9,520.1z"/>
		<path class="st0" d="M622.2,576.7h2l0,0c0.3,1.1,0.3,2.3,0,3.4c-0.1,0.9-0.3,1.8-1.4,1.6c-1.2-0.2-0.4-1.1-0.2-1.7
			C623.1,578.8,622,577.9,622.2,576.7z"/>
		<path class="st0" d="M667.5,595.5c1,3.3,1,6.8,0,10.1c-0.7-3,0-6-0.7-9C666.8,596.2,667.1,595.8,667.5,595.5z"/>
		<path class="st0" d="M631,522l-0.6,1.2l-0.6,0.2h-0.4c-0.8-0.1-1.6,0-2.4,0.2c-0.3,0.1-0.5,0.2-0.8,0.2c-0.7,0.1-1.4,0-2-0.3
			c-0.2-0.2-0.3-0.4-0.3-0.7c1.1-0.3-0.3-1.1,0.2-1.5c0.8-0.4,1.8-0.2,2.7-0.4C628.2,521.3,629.7,521,631,522z"/>
		<path class="st0" d="M641.1,523.2c0-0.2,0-0.4,0-0.6c2.3-0.1,4.5,0.2,6.7,0.8c-2.2,0.5-4.4,0.6-6.7,0.3c-0.2-0.1-0.3-0.2-0.2-0.3
			S641,523.2,641.1,523.2z"/>
		<path class="st0" d="M600.7,529h1.3c1.8,0.8,4-0.8,5.6,1c-3.2,0.1-6.4,0.5-9.6-0.4C598.8,528.7,599.9,529.6,600.7,529z"/>
		<path class="st0" d="M610.7,518.8c0,1.4,1.1,1.9,2,2.5c0.8-0.2,1.8-0.8,2,0.7c-0.5,0.6-1.4,0.6-2,0.1l-1.4-0.2
			c-0.9-0.5-1.9-0.9-3-1h-0.7c-0.3,0.2-0.5,0.1-0.6-0.2C608,519.6,610.1,520.7,610.7,518.8z"/>
		<path class="st0" d="M625.9,614.5l-4.3,0c-0.2-0.1-0.3-0.2-0.2-0.4s0.1-0.2,0.2-0.2h8.8c0.4,0.3,0.9,0.4,0.6,1.1h-1.3
			C628.5,614.4,627.1,615.2,625.9,614.5z"/>
		<path class="st0" d="M618.4,532l0.6-0.6c0.4-0.4,0.8-0.8,1.3-1.1c1-1.2-0.4-3.4,1.8-4c0.2,1.8-0.4,3.6,0.9,5.2
			C621.7,532.3,620,532.5,618.4,532z"/>
		<path class="st0" d="M680.8,493.7v1.2c-1.4-0.1-1.1,1.5-1.9,1.9c-0.7-0.9,0.1-2.2-0.6-3.1C679.1,490.5,680,493.2,680.8,493.7z"/>
		<path class="st0" d="M691.5,492.3c0.1-1.2,1-1.3,1.8-1.2c1.2,0.3,1.5-0.7,2.1-1.4c0.9,0.2,1.5,1,1.7,1.9L691.5,492.3z"/>
		<path class="st0" d="M575,608.3c0.3,2.8-0.6,3.8-3.3,2.3L575,608.3z"/>
		<path class="st0" d="M665.1,610.6c-0.6-0.9-1.8-0.3-2.5-1c0.8-0.4-0.4-2.8,1.8-1.9c0.7,0.8,1.8,1,2.5,1.8l0,0
			c0.2,0.1,0.3,0.4,0.2,0.6c-0.2,0.3-0.6,0.4-0.8,0.6L665.1,610.6z"/>
		<path class="st0" d="M666.9,596.7c1.3,2.9,0.4,6,0.7,9h-0.6c-0.3-2.6,0.6-5.2-0.7-7.7C666.2,597.4,666.4,596.9,666.9,596.7z"/>
		<path class="st0" d="M645.4,605.5c-0.2,0-0.4,0.1-0.6,0.2c-0.2,0.2-0.4,0.1-0.5-0.2c0-0.2,0-0.4-0.1-0.5c-0.1-1.1-0.1-2.2-0.2-3.3
			c0.3-0.9,0.3-1.9,1.4-2.3C646.3,601.5,647,603.5,645.4,605.5z"/>
		<path class="st0" d="M666.9,609.4c-1.3,0-2.7,0.2-2.5-1.8c0.6-0.3,1.5,0.2,1.9-0.7l1.3,0.1c0,0.2,0,0.4,0,0.6
			C667.3,608.2,667.1,608.8,666.9,609.4z"/>
		<path class="st0" d="M618.5,576c2.3,1,1.8,2.8,1.5,4.6c-0.1,0.2-0.4,0.3-0.7,0.2c-0.1-0.1-0.2-0.1-0.2-0.2l-0.7-4.4L618.5,576z"/>
		<path class="st0" d="M644.4,605.5c0.2,0,0.3,0.1,0.5,0.2c0,0.1,0,0.3,0,0.4c-0.2,1-1.4,0.7-1.8,1.5c-0.9,1.1-2.1,0.4-3.2,0.5
			c1.2-0.6,2.3-1.4,3.2-2.4L644.4,605.5z"/>
		<path class="st0" d="M612.8,591.2c-0.3-1.1-0.2-2.4,0.5-3.3c0.6,0.3,0.2,1.1,0.8,1.5c0,1.5,0.2,3.1-0.5,4.6
			C612,593.3,612.5,592.2,612.8,591.2z"/>
		<path class="st0" d="M672,606.2h-0.7c-0.2-1.5-1.1-3.2,0.6-4.4l0.7,1.2l0.4,1.4C673.2,605.2,672.7,605.9,672,606.2z"/>
		<path class="st0" d="M612.8,591.2l0.7,2.7c0.3,0.8-1,1.5-0.1,2.3c-0.9,0-1.3-0.6-1.4-1.4C611.9,593.5,611.7,592.2,612.8,591.2z"/>
		<path class="st0" d="M663.2,529.5h-0.7V522h0.5c0.1,0.5,0.2,0.9,0.3,1.4C663.2,525.4,663.2,527.5,663.2,529.5z"/>
		<path class="st0" d="M697.1,583.7c-1.2-2.6-0.3-5.4-0.6-8.1C697.2,578.2,696.9,580.9,697.1,583.7z"/>
		<path class="st0" d="M595.8,559.1h-0.7c-0.1-0.2-0.2-0.4-0.1-0.6c-0.6-1,0.1-2.2-0.5-3.2l-0.3-2.5c0.1-0.2,0.4-0.3,0.7-0.2
			c0,0,0.1,0.1,0.1,0.1C596.2,554.8,595.6,557,595.8,559.1z"/>
		<path class="st0" d="M686.5,510.5c-1.5-0.1-2.5-1.3-3.8-1.8c1.1,0,2.3,0,3.4,0.1C687.8,508.9,686.6,509.9,686.5,510.5z"/>
		<path class="st0" d="M610.7,525.8c2.7-0.1,2.5,1.5,1.9,3.3C611.6,528.3,610.9,527.1,610.7,525.8z"/>
		<path class="st0" d="M643,607.6c-0.3-1.5,1-1.3,1.8-1.5c0.1,0.1,0.1,0.2,0.2,0.3c0.9,0.5,2.1-0.2,3,0.5l0.7,0.5
			C646.8,607.8,644.9,607.8,643,607.6z"/>
		<path class="st0" d="M607.7,530c-1.7-1.3-3.9,0.3-5.6-1c1.9,0,3.8,0,5.7,0.2C609,529.4,609,529.9,607.7,530z"/>
		<path class="st0" d="M672,601.9c-1.2,1.3-0.4,2.9-0.6,4.4c-1-2-1-4.3-0.1-6.3L672,601.9z"/>
		<path class="st0" d="M631.7,521.3l-0.7,0.2c-1.1,0.2-2.3,0.2-3.4,0.1c-0.6-0.3-1.2-0.6-1.7-1c0.1-0.1,0.1-0.2,0.1-0.3
			c0.9-1,2-0.6,3-0.3C629.5,521.1,631,520.4,631.7,521.3z"/>
		<path class="st0" d="M597,529.5c-1.7,0.3-3.3,0.3-5,0c-0.2-0.1-0.3-0.3-0.2-0.4s0.1-0.2,0.2-0.2c2.3,0.4,4.7-0.9,7.1,0
			C598.5,529.5,597.6,528.9,597,529.5z"/>
		<path class="st0" d="M626,617.7c2.7-0.3,5.5-0.2,8.3,0.2c-2.7,0.4-5.5,0.6-8.3,0.3c-0.2-0.1-0.3-0.2-0.2-0.3
			C625.8,617.8,625.9,617.7,626,617.7z"/>
		<path class="st0" d="M627.8,527c-0.6,0.1-1.1-0.4-1.2-1c0-0.1,0-0.2,0-0.2c0-0.5,0.1-1.1,0.5-1.5c0.2-0.2,0.5-0.3,0.7-0.4
			c0.6-0.1,1.5-0.6,1.4,0.7C629.3,525.7,628.4,526.2,627.8,527z"/>
		<path class="st0" d="M690.2,506.2c0,1.2-1,0.3-1.5,0.7l-3.6,0.4v-1.2c0.6-0.4,1.3-0.4,1.9,0H690.2z"/>
		<path class="st0" d="M582.6,529.7c-1.7,0.8-3.8,0.7-5.4-0.3c0.6-0.5,1.5-0.6,2.2-0.4C580.3,529.7,581.7,528.7,582.6,529.7z"/>
		<path class="st0" d="M582.6,529.7c-1-0.5-2.3,0.4-3.2-0.7l2.9-0.1c1.2-0.3,2.5-0.3,3.8-0.2c0.3,0.1,0.4,0.4,0.3,0.7
			c0,0.1-0.1,0.1-0.1,0.2L582.6,529.7z"/>
		<path class="st0" d="M619.8,582.5c-0.2,1.3-0.2,2.6-1.9,3.8c0.4-1.8,0.8-3.2,1.1-4.6C619.4,581.7,619.7,582,619.8,582.5z"/>
		<path class="st0" d="M665.6,599.3c0.9,1.9-0.2,3.9,0,5.8c-2.3-1-0.6-2.6-0.7-4C664.9,600.4,665.1,599.7,665.6,599.3z"/>
		<path class="st0" d="M631,615c-0.2-0.4-0.4-0.7-0.6-1.1c1.8,0,3.6-0.4,5.3,0.4c0,0,0,0.2,0,0.3c-0.1,0.1-0.3,0.3-0.4,0.4
			c-1.2-0.3-2.4-0.3-3.6,0L631,615z"/>
		<path class="st0" d="M617.8,618.8l1.3-0.5c1.2-0.6,2.5-0.2,3.7-0.3c0.7,0.1,1.5-0.2,2,0.4C622.5,619.1,620.2,618.8,617.8,618.8z"
			/>
		<path class="st0" d="M613.4,573c-0.7-0.5-0.6-0.9,0.1-1.4c1-0.1,2.1,0.1,3,0.6l-0.7,0.8C615,573.5,614.1,573.4,613.4,573z"/>
		<path class="st0" d="M664.9,601c0.4,1.3-0.5,2.8,0.7,4c-0.2,0.5-0.4,0.9-0.6,1.3c-1.1,0.2-1.5-0.3-1.3-1.3h0.1
			c0.3-0.8,0-1.8,0.5-2.6L664.9,601z"/>
		<path class="st0" d="M645.4,605.5c0-2,0-4.1,0.1-6.2c0.5-0.2,0.6,0.2,0.7,0.5c0.2,1.9,1.4,3.8-0.1,5.7L645.4,605.5z"/>
		<path class="st0" d="M614,589.3l-0.8-1.5c0.2-1-0.5-2.8,1.7-2.2h-0.1L614,589.3z"/>
		<path class="st0" d="M596.4,522c0.8,1.1,2.2,0.1,3.3,1.1h-4.8C595.3,522.6,595.4,521.8,596.4,522z"/>
		<path class="st0" d="M609,618.2c0.7,0,1.4-0.1,1.9,0.5c-2.1,0-4.3,0.4-6.4-0.4c0.4-0.5,0.9-0.4,1.4-0.4
			C606.9,618.1,608,617.7,609,618.2z"/>
		<path class="st0" d="M700.3,622.5c-1.2-0.8-2.5-0.2-3.8-0.5c-0.2-0.2-0.3-0.3-0.2-0.5s0.1-0.2,0.2-0.2h5v1.1L700.3,622.5z"/>
		<path class="st0" d="M646.1,605.7l0.1-5.7l1.1,2.6c-0.2,1,0.4,2.1-0.5,3L646.1,605.7z"/>
		<path class="st0" d="M595,579.8c1.4,1.3,0.5,2.8,0.8,4.4c-1-0.6-0.5-1.5-0.8-2.1C594.8,581.4,594.4,580.6,595,579.8z"/>
		<path class="st0" d="M691.5,603.1c-1.3-0.2-2.6,0.5-3.8-0.5c1.1-1,2.6,0,3.7-0.8c0.2,0.2,0.3,0.4,0.3,0.7
			C691.8,602.7,691.7,603,691.5,603.1z"/>
		<path class="st0" d="M660,500.6l-0.9,0.1c-0.5-0.1-1.2-0.5-0.6-0.9c1-0.6,2.3-1.1,2.8,0.7l-0.1,0.1
			C660.9,500.9,660.4,500.9,660,500.6C660,500.6,660,500.6,660,500.6z"/>
		<path class="st0" d="M687.7,604.4c-1.4-0.3-3,0.7-4.3-0.6l3-0.7C687,603.3,687.5,603.8,687.7,604.4z"/>
		<path class="st0" d="M643.6,614.6c-0.1,0.1-0.1,0.2-0.1,0.3h-5.8C639.7,614.3,641.7,614.2,643.6,614.6z"/>
		<path class="st0" d="M605.7,618.1l-1.3,0.2l-4.9-0.2c-0.2-0.1-0.3-0.2-0.2-0.3c0-0.1,0.1-0.1,0.2-0.2h6.3L605.7,618.1z"/>
		<path class="st0" d="M664.4,620.8c-2.1,1.2-4.3,0.5-6.4,0.5C660.1,620.8,662.2,620.6,664.4,620.8z"/>
		<path class="st0" d="M666.3,610.7l0.6-0.5c0.9-0.8,2.2,0.1,3.1-0.6l1.5,0.7C669.9,610.9,668,611.1,666.3,610.7z"/>
		<path class="st0" d="M615,585.7c-2-1.2-0.6-2.6-0.2-3.9c1.2,0,0.7,0.8,0.6,1.3C615.2,584,615.1,584.8,615,585.7L615,585.7z"/>
		<path class="st0" d="M615.4,583.2l-0.6-1.3c0-1.2,0.6-2.3,1.6-3C616.4,580.3,616,581.8,615.4,583.2z"/>
		<path class="st0" d="M674.6,531.9l-0.3,2.7c-0.3-1.7-1-3.4,0.1-5L674.6,531.9z"/>
		<path class="st0" d="M586.3,529.5v-0.6c0.4-0.3,1-0.4,1.4,0h4.3v0.7C590.1,529.6,588.2,529.9,586.3,529.5z"/>
		<path class="st0" d="M612.1,524.5l-1.8,0.7c-0.6-1-2-0.3-2.7-1.3l0.7-0.2c1.2-0.3,2.4-0.3,3.6-0.2
			C612.2,523.8,612.3,524.2,612.1,524.5C612.1,524.5,612.1,524.5,612.1,524.5z"/>
		<path class="st0" d="M583.1,617.7c0,0.2,0,0.4,0,0.6c-1.7,0-3.4,0.3-5.1-0.6H583.1z"/>
		<path class="st0" d="M646.8,605.7c0-1-0.5-2.2,0.5-3l0.7,1.3C648,604.7,648.1,605.6,646.8,605.7z"/>
		<path class="st0" d="M603.9,522c1,0,1.9,0.5,2.5,1.2l-2.9,0.2c-0.1-0.3-1.5,0.3-0.5-0.7C603.3,522.4,603.6,522.1,603.9,522z"/>
		<path class="st0" d="M693.4,488.7c-1.1,0.9-2.7,0.9-3.8,0C690.8,488.1,692.2,488.1,693.4,488.7z"/>
		<path class="st0" d="M662.5,511.8c0.1,0.5,1.3,0.7,0.7,1.4s-1.3,0.5-2,0.5C661.4,513,661.4,512,662.5,511.8z"/>
		<path class="st0" d="M606,548.5c-0.8-0.5-2.1,0.7-2.6-0.8c1-0.3,2.1-0.2,3.1,0.3c0.4,0.2,0.3,0.6,0,0.3
			C606.5,548.2,606.2,548.4,606,548.5z"/>
		<path class="st0" d="M693.4,501.8c-0.7,0-1.4,0.1-1.9-0.6c0.9-0.6,2-0.8,3.1-0.5C694.7,501.6,694.4,502.1,693.4,501.8z"/>
		<path class="st0" d="M591.4,617.7l5-0.1l-0.1,0.1c0.2,0.1,0.3,0.2,0.2,0.3s-0.1,0.2-0.2,0.2C594.7,618,593,618.9,591.4,617.7z"/>
		<path class="st0" d="M618.4,604.5c0,0.2,0,0.4,0,0.6c-0.5,0.5-1.4,0.5-1.9,0c-0.8-0.3-2,0.7-2.3-0.8
			C615.6,604.1,617,604.1,618.4,604.5z"/>
		<path class="st0" d="M641.1,523.2c0,0.2,0,0.4,0,0.5c-1.8,0.1-3.6,0-5.3-0.5L641.1,523.2z"/>
		<path class="st0" d="M644.1,601.7c0.8,0.9,0.9,2.3,0.2,3.3c-0.9-0.4-0.5-1.3-0.7-2C643.6,602.5,643.6,602,644.1,601.7z"/>
		<path class="st0" d="M614,568v0.5h-2.8C612.2,566.7,613.1,567.2,614,568z"/>
		<path class="st0" d="M595.2,561c1.1,1.7,0.4,3.5,0.5,5.3C594.8,564.6,595.3,562.7,595.2,561z"/>
		<path class="st0" d="M587.6,528.8l-1.4,0l-4-0.1C584.1,528.4,585.9,527.8,587.6,528.8z"/>
		<path class="st0" d="M632.9,604.3c-1.7-0.1-3.4,0.6-4.9-0.4h5L632.9,604.3z"/>
		<path class="st0" d="M693.4,501.8c0.6-0.2,1-0.6,1.2-1.1c1.2-0.1,0.6,0.8,0.7,1.2l-1.3,1.2c-0.5,0.1-0.9-0.2-1.1-0.6L693.4,501.8z
			"/>
		<path class="st0" d="M643.5,612.5c0-0.4,0-0.7,0-1.1c0.8,0.1,2.2-0.7,2.2,0.7C645.6,612.9,644.3,612.6,643.5,612.5z"/>
		<path class="st0" d="M673.9,522h0.5c0.3,1.4,0.3,2.9,0,4.4C673.3,525,674.1,523.4,673.9,522z"/>
		<path class="st0" d="M629.2,524.5c-0.4-0.7-0.9-0.3-1.4-0.2c-0.4-0.1-0.9,0-1.2-0.3c-0.2-0.2-0.1-0.5,0.1-0.6c0,0,0.1,0,0.1-0.1
			h-0.1c1-0.7,2.1-0.3,3.1-0.2v0.3L629.2,524.5z"/>
		<path class="st0" d="M593.7,523.9h4.7C596.9,524.5,595.2,524.5,593.7,523.9z"/>
		<path class="st0" d="M691.6,552.2c-1.3-1.3-0.5-3-0.7-4.5C692.7,548.9,691.1,550.7,691.6,552.2z"/>
		<path class="st0" d="M692.8,561c0.2-1.5-0.6-3.1,0.6-4.4l0.1,1.6c0.4,0.9,0.3,1.9-0.1,2.8L692.8,561z"/>
		<path class="st0" d="M621.6,613.9c0,0.2,0,0.4,0,0.5h-3.7v-0.5H621.6z"/>
		<path class="st0" d="M589.4,564.9c0.2-0.7-0.2-1.5,0.5-2.2c0.1,1.5,0.6,2.8-0.4,4L589.4,564.9z"/>
		<path class="st0" d="M622.2,571c1.1-0.3,2.2-0.5,3,0.7C624,571.8,622.8,572.8,622.2,571z"/>
		<path class="st0" d="M622.2,571c0.8,1.2,2,0.6,3,0.7l0.1,0.6c-1.2-0.4-3,0.9-3.7-1.2L622.2,571z"/>
		<path class="st0" d="M613.4,573l2.4,0.1c0.8,1.4-0.3,1.1-1,1.2c-0.2-0.8-0.9-0.6-1.4-0.8C613.4,573.3,613.4,573.1,613.4,573z"/>
		<path class="st0" d="M699.1,502.5l-1.3-1.2c0.8-0.1,1.8-0.3,2.2,0.4S699.6,502.4,699.1,502.5z"/>
		<path class="st0" d="M658.1,610.7l-0.5,0.6c-0.6,0-1.3,0.3-1.7-0.4c0-0.2,0-0.4,0.2-0.5C656.8,610,657.6,610.1,658.1,610.7z"/>
		<path class="st0" d="M691.5,602.5c0-0.2,0-0.4-0.1-0.6c0-0.5-0.1-1.1-0.1-1.6l0.3-1.4h0.5v3.7l0,0
			C691.9,602.8,691.7,602.8,691.5,602.5z"/>
		<path class="st0" d="M603.4,561.9c0-1.4,0-2.8,0-4.2C604.2,558.9,604.2,560.6,603.4,561.9z"/>
		<path class="st0" d="M629,520l-3,0.3c0.4-1.2,1.7-0.8,2.5-1.5L629,520z"/>
		<path class="st0" d="M624.2,580.1c0-1.1-0.7-2.2,0-3.4C625.2,577.8,624.4,578.9,624.2,580.1z"/>
		<path class="st0" d="M670.6,522.6c0.8,0.2,1.8,0.3,0.6,1.3C670,523.9,669.9,523.4,670.6,522.6z"/>
		<path class="st0" d="M666.9,615.1c0-0.2,0-0.4,0-0.6h3.1v0.6H666.9z"/>
		<path class="st0" d="M625.9,614.5c1.3,0.1,2.7-0.5,3.9,0.5C628.4,615,627.1,615.4,625.9,614.5z"/>
		<path class="st0" d="M631.7,615c1.1-0.8,2.5-0.8,3.6,0H631.7z"/>
		<path class="st0" d="M607,520.6l0.6,0.2c-1.2,1-2.7,0.4-4,0.5C604.7,520.6,605.9,520.9,607,520.6z"/>
		<path class="st0" d="M632.9,604.3c0-0.2,0-0.3,0-0.4h3.8c0.2,0.1,0.3,0.2,0.2,0.3s-0.2,0.2-0.2,0.2L632.9,604.3z"/>
		<path class="st0" d="M677.6,603.8c-1,1.1-2.2,0.5-3.4,0.2l2.2-0.3L677.6,603.8z"/>
		<path class="st0" d="M658.6,515.7c0.5,0.5,2.4-1,1.8,1.2c-0.2-1.3-1.3-0.4-1.8-0.8c-0.1,0-0.1-0.1-0.1-0.2
			C658.4,515.8,658.5,515.7,658.6,515.7z"/>
		<path class="st0" d="M597,529.5c0.5-0.7,1.3-0.5,2-0.6l1.7,0.2c-0.7,0.8-1.8,0.2-2.6,0.7L597,529.5z"/>
		<path class="st0" d="M670.7,513.1c0.1-1.2,1-1.1,1.9-1.2c0.5,0,1,0.3,1.2,0.8L670.7,513.1z"/>
		<path class="st0" d="M622.9,618.1l-3.9,0.1c0-0.2,0-0.3,0-0.5h3.8L622.9,618.1z"/>
		<path class="st0" d="M636.7,604.4c0-0.2,0-0.3,0-0.5h3.7C639.3,604.9,637.9,604.2,636.7,604.4z"/>
		<path class="st0" d="M635,617.7c1.2,0.2,2.5-0.4,3.6,0.5C637.3,618.1,636,618.9,635,617.7z"/>
		<path class="st0" d="M659.3,617.7c-1,1-2.6,1-3.7,0H659.3z"/>
		<path class="st0" d="M597.5,570.4c-0.9-1.3-0.4-2.7-0.4-4C597.9,567.7,597.3,569,597.5,570.4z"/>
		<path class="st0" d="M597.6,574.8c-0.9-1.1-0.9-2.7,0-3.8V574.8z"/>
		<path class="st0" d="M690.2,564.3l0.2-2c0.4,1.1,1,2.3-0.4,3.1C690.1,565,690.1,564.7,690.2,564.3z"/>
		<path class="st0" d="M700.3,600l-1.3,0.7c-0.8-0.7-0.4-1.6-0.5-2.4c0-0.3,0.2-0.4,0.5-0.2C699.3,598.8,698.7,600.2,700.3,600z"/>
		<path class="st0" d="M607.8,574.8l1.2,1.2l-1,1.9C607.4,577,607.3,575.8,607.8,574.8z"/>
		<path class="st0" d="M596.9,563.5c-1-1.2-0.4-2.5-0.5-3.8C597.2,560.8,596.7,562.2,596.9,563.5z"/>
		<path class="st0" d="M595.2,575.5c0.8,1.1,0.8,2.6,0,3.7V575.5z"/>
		<path class="st0" d="M594.6,555.3c1,1,0.5,2.1,0.5,3.2C594.3,557.6,594.6,556.4,594.6,555.3z"/>
		<path class="st0" d="M699,598.1c-0.2,0.1-0.3,0.1-0.5,0.2c0-1.1-0.5-2.3,0.5-3.3C699,596,699,597,699,598.1z"/>
		<path class="st0" d="M672,517.6c0.3-0.1,0.8-0.6,1-0.1c0.2,0.7-0.4,1-0.9,1.3C672.2,518.4,671.1,518.1,672,517.6z"/>
		<path class="st0" d="M597.6,579.9c-0.8-0.9-0.9-2.2-0.1-3.1L597.6,579.9z"/>
		<path class="st0" d="M584.2,552.1c0.4,0.2,1.1,0,1,0.8c0,0.3-0.3,0.5-0.4,0.7l-1-1.4C583.9,552.1,584.1,552,584.2,552.1z"/>
		<path class="st0" d="M596.4,618.2c0-0.2,0-0.3,0-0.5l3.2,0.1c0,0.2,0,0.3,0,0.5L596.4,618.2z"/>
		<path class="st0" d="M610.8,579.2l0.8,0.8l-0.3,1.4c-0.7-0.3-1-1.2-0.7-1.9C610.6,579.5,610.7,579.3,610.8,579.2z"/>
		<path class="st0" d="M605.7,618.1c0-0.1,0-0.3,0-0.4h3.2v0.5L605.7,618.1z"/>
		<path class="st0" d="M600.1,547.8c-0.7-0.4-0.1-0.8,0-1.3c0.6-0.2,1,0.1,1.3,0.6C601.2,547.6,600.7,547.8,600.1,547.8z"/>
		<path class="st0" d="M619.8,582.5l-0.8-0.8l0.1-1.1l0.8,0.1C620,581.2,620.6,581.9,619.8,582.5z"/>
		<path class="st0" d="M622.9,618.1c-0.1-0.1-0.1-0.3-0.1-0.4h3.1c0,0.2,0,0.3,0,0.5l-1.1,0.1L622.9,618.1z"/>
		<path class="st0" d="M699,528.9c-0.9-0.8-0.9-2.2-0.1-3.1c0,0,0,0,0,0C699.4,526.8,699.4,527.9,699,528.9z"/>
		<path class="st0" d="M595.1,552.8l-0.8,0.1l-1,0.1c0.5-1.1,1.5-1.3,2.5-1.5v0.7L595.1,552.8z"/>
		<path class="st0" d="M678.3,493.7c1,0.9,0.4,2.1,0.6,3.1c-0.2,0-0.4,0-0.5,0l-0.2-2C678.2,494.4,678.3,494,678.3,493.7z"/>
		<path class="st0" d="M664.3,602.4c0,0.9,0.3,1.9-0.5,2.6l-0.7-0.6c0.2-0.6,0.4-1.2,0.6-1.8C663.9,602.5,664.1,602.4,664.3,602.4z"
			/>
		<path class="st0" d="M676.4,497.4c0.5,0.8,1.3,1.6-0.1,2.4C676.3,499,676.4,498.2,676.4,497.4z"/>
		<path class="st0" d="M637.6,522.5c-1.2,0.1-2.3,0.5-3.4-0.4C635.3,522,636.5,522.1,637.6,522.5z"/>
		<path class="st0" d="M693.3,561c0-0.9,0.1-1.8,0.1-2.8c0.4,1.1,0.6,2.3,0.5,3.4L693.3,561z"/>
		<path class="st0" d="M617.7,569.8c-0.8-0.5-1.8-0.7-1.8-1.9C616.7,568.3,617.7,568.6,617.7,569.8z"/>
		<path class="st0" d="M691.5,602.5c0.2,0,0.4,0.1,0.6,0.1c0.8,4.8,0.1,9.6,0.3,14.5c0.1,1.5,0.4,3,0.9,4.4c-0.6,0.4-1.3,0.4-1.9,0
			c-1-6-1-12.2,0-18.2L691.5,602.5z"/>
		<path class="st0" d="M691.5,621.4h5c0,0.2,0,0.4,0,0.7h-5.7c-0.2-0.1-0.3-0.3-0.2-0.4s0.1-0.2,0.2-0.2L691.5,621.4z"/>
		<path class="st0" d="M692.2,594.3c0-1,0-2.1,0-3.1h0.6c0.5,1,0.5,2.2,0,3.2C692.6,594.4,692.4,594.3,692.2,594.3z"/>
		<path class="st0" d="M692.8,594.3v-3.2c0.9,0.8,0.9,2.1,0.1,3C692.9,594.2,692.9,594.3,692.8,594.3z"/>
		<path class="st0" d="M594.7,585.7c0.5,0.9,0.5,2,0.2,3C594.1,587.9,594.6,587,594.7,585.7z"/>
		<path class="st0" d="M672.7,538.2v-3.5h0.3v3.6L672.7,538.2z"/>
		<path class="st0" d="M683.9,621.4c-0.2-4-0.4-8-0.7-12l2.3-2.5c2.3-0.7,1.8,1.2,1.8,2.2c0.1,4,0.1,8,0,11.9
			c-0.1,0.4-0.4,0.7-0.7,0.7C685.7,621.7,684.8,621.9,683.9,621.4z"/>
		<path class="st0" d="M687.1,621.4c-1.3-4.2-0.4-8.6-0.6-12.8c0-0.8,0.3-1.7-1-1.7l1.5-1.3h0.6c1,3.9,0.6,8,0.7,12
			c0,1.3-0.1,2.7,0.6,3.9C688.4,621.9,687.6,621.8,687.1,621.4z"/>
		<path class="st0" d="M675,608.1l-0.7,0.6c-1,0.1-2.1,0.1-3.1,0c-1.3-0.3,0.2-0.7,0.1-1.1C672.6,607.8,674,606.8,675,608.1z"/>
		<path class="st0" d="M672,606.2l1.1-1.8l0.6,0.6l0.1,1.3L672,606.2z"/>
		<path class="st0" d="M687.1,621.4h3.8c0,0.2,0,0.4,0,0.6h-4.4c-0.2-0.2-0.3-0.3-0.2-0.4c0.1-0.1,0.1-0.2,0.2-0.2L687.1,621.4z"/>
		<path class="st0" d="M575.6,611.9c0.9-1,2.1-0.4,3.1-0.6h3.8c0.2,0.1,0.3,0.3,0.2,0.4s-0.1,0.2-0.2,0.2L575.6,611.9z"/>
		<path class="st0" d="M609,611.3h3.8c0.2,0.1,0.3,0.2,0.2,0.4s-0.1,0.2-0.2,0.2h-6.3C607.1,611,608.1,611.4,609,611.3z"/>
		<path class="st0" d="M612.7,611.9v-0.6h3.8c0.5-0.6,1.1-0.4,1.7-0.2c0.2,0.1,0.3,0.3,0.3,0.5c0,0.2,0,0.3-0.1,0.3L612.7,611.9z"/>
		<path class="st0" d="M618.4,611.9c0-0.2,0-0.3,0-0.5c0.6-0.4,1.3-0.4,1.9,0h3.2c0,0.2,0,0.3,0,0.5L618.4,611.9z"/>
		<path class="st0" d="M590.1,611.3v0.6h-4.4c-0.2-0.1-0.3-0.3-0.2-0.4c0.1-0.1,0.1-0.2,0.2-0.2L590.1,611.3L590.1,611.3z"/>
		<path class="st0" d="M585.6,611.3c0,0.2,0,0.4,0,0.6h-3.1c0-0.2,0-0.4,0-0.6H585.6z"/>
		<path class="st0" d="M620.3,611.3h-3.8c-0.8-0.8-2.3-0.6-2.3-2.5c-0.1-1.6,0.8-3.1,2.3-3.8h1.9C617.1,608.9,617.4,610,620.3,611.3
			z"/>
		<path class="st0" d="M686.5,621.4v0.6h-5.7c-0.2-0.1-0.3-0.3-0.2-0.4s0.1-0.2,0.2-0.2L686.5,621.4L686.5,621.4z"/>
		<path class="st0" d="M680.8,621.4v0.6h-7.5c0.3-0.4,0.7-0.7,1.2-0.6H680.8z"/>
		<path class="st0" d="M660,500.6h1.2c-0.7,1.2,0.4,2.3,0.1,3.7h-2.6C657.9,502.7,659.5,501.8,660,500.6z"/>
		<path class="st0" d="M687.1,506.2h-1.9c-0.8-0.1-1.6-0.3-0.6-1.2L687.1,506.2z"/>
		<path class="st0" d="M648,606.9c-1-0.1-2.1,0.4-3-0.5C646,606.5,647.1,605.8,648,606.9z"/>
		<path class="st0" d="M612.1,523.9l-3.8-0.2c1.2-1.3,3.5,0.3,4.4-1.7l1.8-0.2c0.8-0.4,1.7-0.6,2.6-0.5c1.4,0,2.8-0.8,4.1,0h0.9
			c0.2,0.2,0.4,0.3,0.7,0.4c0.5,0.2,0.9,0.5,1.3,0.9v0.6c-1,1.1-2.5,0.6-3.7,1l-0.4,0.1c-0.3,0.1-0.6,0.1-0.9,0.1
			c-0.3,0-0.6,0-0.8-0.1c-1-0.2-2-0.2-3-0.1C614.2,524.1,613.1,524.4,612.1,523.9z"/>
		<path class="st0" d="M608.4,520.8c1.1,0,2.5-0.7,3,1C610.3,521.7,609.2,521.4,608.4,520.8z"/>
		<path class="st0" d="M624.1,520.6c-0.3-2.1-2-4.2,0.6-6c0.6,2-0.2,4,0.1,6C624.5,520.9,624.3,520.9,624.1,520.6z"/>
		<path class="st0" d="M624.1,520.6h0.6l1.2,0.1l1.3,0.6c-0.1,0.3-0.3,0.4-0.6,0.2c-0.9-0.2-1.9,0-2.6,0.5c-0.5,0.5-1.3,0.5-1.8,0
			c0-0.2,0-0.4,0-0.6l0.8-0.6L624.1,520.6z"/>
		<path class="st0" d="M612.1,523.9l3.8-0.1l0.2,0.3l-0.1,0.4h-1.3l-2.5-0.1C612.1,524.3,612.1,524.1,612.1,523.9z"/>
		<path class="st0" d="M618.4,525.1c-1.3,1.7,0.2,4-1.3,5.6c-0.9-1.8-0.9-3.9,0-5.7C617.5,524.8,618.1,524.8,618.4,525.1z"/>
		<path class="st0" d="M618.4,525.1h-1.3c-0.5,0.1-0.9-0.2-1.2-0.6l-0.1-0.2c0.8-0.5,1.7-0.7,2.6-0.5c0.2,0,0.4,0,0.6,0
			c0.3,0.3,0.4,0.9,0,1.2c0,0,0,0,0,0L618.4,525.1z"/>
		<path class="st0" d="M617.2,521.8h-2.7l-1.8-0.6c0.2-0.2,0.5-0.4,0.7-0.6l3.2,0.1C617,521,617.3,521.3,617.2,521.8z"/>
		<path class="st0" d="M620.3,520.6l-1.2-0.5c0.3-2.1-1-4.5,1.2-6.3c1.2,2.2,0.6,4.6,0.6,6.9C620.6,521,620.4,521,620.3,520.6z"/>
		<path class="st0" d="M620.3,513.8c-1.3,1.9,0,4.3-1.2,6.3c-1.1-2.1-0.8-4.2,0-6.3L620.3,513.8z"/>
		<path class="st0" d="M620.3,520.6l0.6,0.1c0.1,0.2,0.2,0.4,0.3,0.7l-4,0.4l-0.6-1L620.3,520.6z"/>
		<path class="st0" d="M670,609.5c-0.9,1-2.1,0.4-3.1,0.6c0-0.2,0-0.4,0-0.7L670,609.5z"/>
		<path class="st0" d="M616.5,520.1v-5.6c1.6,1.3,1.8,3.5,0.5,5.1C616.9,519.7,616.7,519.9,616.5,520.1z"/>
		<path class="st0" d="M623.5,525.2l-1.3,0.7c-0.6,0.2-1.3,0.1-1.8-0.2c-0.7-0.5-1.4-0.9-0.6-1.8h-0.1c1.3-0.6,2.7-0.2,4.1-0.3
			c0.8,0.3,1.8,0.2,2.3,1C625.6,526.1,624.5,525.6,623.5,525.2z"/>
		<path class="st0" d="M620.9,525.2l1.3,0.6c0,0.2,0,0.3,0,0.5c-1.5,1.4,0.3,3.6-1.3,5C619.2,529.3,619.2,527.7,620.9,525.2z"/>
		<path class="st0" d="M626,525.7c-1,1.1-0.1,2.8-1.3,3.8c-1.8-1-1.3-2.4-0.6-3.8C624.6,525.3,625.4,525.3,626,525.7z"/>
		<path class="st0" d="M626,525.7h-1.9l-0.6-0.5c0.8-0.2,1.8,0,2.5-0.7c0.4-0.4,0.8-0.4,1.2,0.1c0,0.5-0.2,0.9-0.6,1.1L626,525.7z"
			/>
		<path class="st0" d="M626.6,521.4l0.6-0.2l3.8,0.2c0,0.2,0,0.3,0,0.5C629.6,521.8,628,522.5,626.6,521.4z"/>
		<path class="st0" d="M620.9,525.2c-0.7,2-1.1,4.1,0,6.2h-1.9c-0.8-2.1,0.4-4.2,0-6.3v-1.2h0.7
			C619.6,524.8,620.2,525.1,620.9,525.2z"/>
		<path class="st0" d="M624.1,524l-4.5-0.1c1.3-1.2,3-0.4,4.4-0.7l2.6,0.1c0,0.2-0.1,0.4-0.2,0.5C625.8,524.3,624.9,524.3,624.1,524
			z"/>
		<path class="st0" d="M629.7,523.1l-3.1,0.2C627.6,522.2,628.6,522.4,629.7,523.1z"/>
		<path class="st0" d="M622.2,521.9h1.8l0.8,0.4l-0.7,0.3C623.4,522.6,622.6,522.7,622.2,521.9z"/>
		<path class="st0" d="M624.1,524l2.3-0.2l1.3,0.5l-0.6,0.3l-1.2-0.1C625.4,524.4,624.6,524.6,624.1,524z"/>
		<path class="st0" d="M618.4,523.9c-0.7,0.8-1.7,0.6-2.6,0.5c0-0.2,0-0.3,0-0.5c0.5-0.7,1.5-0.8,2.2-0.3
			C618.2,523.6,618.3,523.7,618.4,523.9z"/>
	</g>
</g>
</svg>
